<?xml version="1.0" encoding="UTF-8"?>
<svg id="Layer_1" xmlns="http://www.w3.org/2000/svg" xmlns:xlink="http://www.w3.org/1999/xlink" version="1.1" viewBox="0 0 648 648">
  <!-- Generator: Adobe Illustrator 30.6.0, SVG Export Plug-In . SVG Version: 2.1.4 Build 109)  -->
  <defs>
    <style>
      .st0, .st1, .st2 {
        fill: none;
      }

      .st3 {
        isolation: isolate;
        opacity: .8;
        stroke: #ccc;
      }

      .st3, .st4 {
        fill: #fff;
      }

      .st5 {
        fill: red;
        stroke: red;
        stroke-width: 2px;
      }

      .st5, .st6, .st7, .st8, .st9, .st10 {
        stroke-linejoin: round;
      }

      .st6 {
        fill: #ff7f0e;
        stroke: #ff7f0e;
      }

      .st11 {
        clip-path: url(#clippath-17);
      }

      .st12 {
        clip-path: url(#clippath-19);
      }

      .st13 {
        clip-path: url(#clippath-11);
      }

      .st14 {
        clip-path: url(#clippath-16);
      }

      .st15 {
        clip-path: url(#clippath-18);
      }

      .st16 {
        clip-path: url(#clippath-10);
      }

      .st17 {
        clip-path: url(#clippath-15);
      }

      .st18 {
        clip-path: url(#clippath-13);
      }

      .st19 {
        clip-path: url(#clippath-14);
      }

      .st20 {
        clip-path: url(#clippath-12);
      }

      .st21 {
        clip-path: url(#clippath-20);
      }

      .st22 {
        clip-path: url(#clippath-21);
      }

      .st23 {
        clip-path: url(#clippath-22);
      }

      .st24 {
        clip-path: url(#clippath-23);
      }

      .st25 {
        clip-path: url(#clippath-1);
      }

      .st26 {
        clip-path: url(#clippath-3);
      }

      .st27 {
        clip-path: url(#clippath-4);
      }

      .st28 {
        clip-path: url(#clippath-2);
      }

      .st29 {
        clip-path: url(#clippath-7);
      }

      .st30 {
        clip-path: url(#clippath-6);
      }

      .st31 {
        clip-path: url(#clippath-9);
      }

      .st32 {
        clip-path: url(#clippath-8);
      }

      .st33 {
        clip-path: url(#clippath-5);
      }

      .st1 {
        stroke: #888;
      }

      .st7 {
        fill: #1f77b4;
        stroke: #1f77b4;
      }

      .st8 {
        fill: #2ca02c;
        stroke: #2ca02c;
      }

      .st9, .st10, .st2 {
        stroke: #000;
      }

      .st9, .st2 {
        stroke-width: .8px;
      }

      .st2 {
        stroke-linecap: square;
      }

      .st34 {
        clip-path: url(#clippath);
      }
    </style>
    <clipPath id="clippath">
      <rect class="st0" x="53" y="52" width="584.2" height="533.2"/>
    </clipPath>
    <clipPath id="clippath-1">
      <rect class="st0" x="53" y="52" width="584.2" height="533.2"/>
    </clipPath>
    <clipPath id="clippath-2">
      <rect class="st0" x="53" y="52" width="584.2" height="533.2"/>
    </clipPath>
    <clipPath id="clippath-3">
      <rect class="st0" x="53" y="52" width="584.2" height="533.2"/>
    </clipPath>
    <clipPath id="clippath-4">
      <rect class="st0" x="53" y="52" width="584.2" height="533.2"/>
    </clipPath>
    <clipPath id="clippath-5">
      <rect class="st0" x="53" y="52" width="584.2" height="533.2"/>
    </clipPath>
    <clipPath id="clippath-6">
      <rect class="st0" x="53" y="52" width="584.2" height="533.2"/>
    </clipPath>
    <clipPath id="clippath-7">
      <rect class="st0" x="53" y="52" width="584.2" height="533.2"/>
    </clipPath>
    <clipPath id="clippath-8">
      <rect class="st0" x="53" y="52" width="584.2" height="533.2"/>
    </clipPath>
    <clipPath id="clippath-9">
      <rect class="st0" x="53" y="52" width="584.2" height="533.2"/>
    </clipPath>
    <clipPath id="clippath-10">
      <rect class="st0" x="53" y="52" width="584.2" height="533.2"/>
    </clipPath>
    <clipPath id="clippath-11">
      <rect class="st0" x="53" y="52" width="584.2" height="533.2"/>
    </clipPath>
    <clipPath id="clippath-12">
      <rect class="st0" x="53" y="52" width="584.2" height="533.2"/>
    </clipPath>
    <clipPath id="clippath-13">
      <rect class="st0" x="53" y="52" width="584.2" height="533.2"/>
    </clipPath>
    <clipPath id="clippath-14">
      <rect class="st0" x="53" y="52" width="584.2" height="533.2"/>
    </clipPath>
    <clipPath id="clippath-15">
      <rect class="st0" x="53" y="52" width="584.2" height="533.2"/>
    </clipPath>
    <clipPath id="clippath-16">
      <rect class="st0" x="53" y="52" width="584.2" height="533.2"/>
    </clipPath>
    <clipPath id="clippath-17">
      <rect class="st0" x="53" y="52" width="584.2" height="533.2"/>
    </clipPath>
    <clipPath id="clippath-18">
      <rect class="st0" x="53" y="52" width="584.2" height="533.2"/>
    </clipPath>
    <clipPath id="clippath-19">
      <rect class="st0" x="53" y="52" width="584.2" height="533.2"/>
    </clipPath>
    <clipPath id="clippath-20">
      <rect class="st0" x="53" y="52" width="584.2" height="533.2"/>
    </clipPath>
    <clipPath id="clippath-21">
      <rect class="st0" x="53" y="52" width="584.2" height="533.2"/>
    </clipPath>
    <clipPath id="clippath-22">
      <rect class="st0" x="53" y="52" width="584.2" height="533.2"/>
    </clipPath>
    <clipPath id="clippath-23">
      <rect class="st0" x="39" y="68" width="584.2" height="533.2"/>
    </clipPath>
  </defs>
  <g id="patch_1">
    <path class="st4" d="M0,648h648V0H0v648Z"/>
  </g>
  <path class="st4" d="M53,585.2h584.2V52H53v533.2Z"/>
  <g class="st34">
    <path class="st1" d="M246.2,440.7l-52.1,30.1v60.1l52.1,30.1,52.1-30.1v-60.1l-52.1-30.1Z"/>
  </g>
  <g class="st25">
    <path class="st1" d="M194.1,349.6l-52.1,30.1v60.1l52.1,30.1,52.1-30.1v-60.1l-52.1-30.1Z"/>
  </g>
  <g class="st28">
    <path class="st1" d="M142.1,258.5l-52.1,30.1v60.1l52.1,30.1,52.1-30.1v-60.1l-52.1-30.1Z"/>
  </g>
  <g class="st26">
    <path class="st1" d="M350.3,440.7l-52.1,30.1v60.1l52.1,30.1,52.1-30.1v-60.1l-52.1-30.1Z"/>
  </g>
  <g class="st27">
    <path class="st1" d="M298.3,349.6l-52.1,30.1v60.1l52.1,30.1,52.1-30.1v-60.1l-52.1-30.1Z"/>
  </g>
  <g class="st33">
    <path class="st1" d="M246.2,258.5l-52.1,30.1v60.1l52.1,30.1,52.1-30.1v-60.1l-52.1-30.1Z"/>
  </g>
  <g class="st30">
    <path class="st1" d="M194.1,167.3l-52.1,30.1v60.1l52.1,30.1,52.1-30.1v-60.1l-52.1-30.1Z"/>
  </g>
  <g class="st29">
    <path class="st1" d="M454.5,440.7l-52.1,30.1v60.1l52.1,30.1,52.1-30.1v-60.1l-52.1-30.1Z"/>
  </g>
  <g class="st32">
    <path class="st1" d="M402.4,349.6l-52.1,30.1v60.1l52.1,30.1,52.1-30.1v-60.1l-52.1-30.1Z"/>
  </g>
  <g class="st31">
    <path class="st1" d="M350.3,258.5l-52.1,30.1v60.1l52.1,30.1,52.1-30.1v-60.1l-52.1-30.1Z"/>
  </g>
  <g class="st16">
    <path class="st1" d="M298.3,167.3l-52.1,30.1v60.1l52.1,30.1,52.1-30.1v-60.1l-52.1-30.1Z"/>
  </g>
  <g class="st13">
    <path class="st1" d="M246.2,76.2l-52.1,30.1v60.1l52.1,30.1,52.1-30.1v-60.1l-52.1-30.1Z"/>
  </g>
  <g class="st20">
    <path class="st1" d="M506.5,349.6l-52.1,30.1v60.1l52.1,30.1,52.1-30.1v-60.1l-52.1-30.1Z"/>
  </g>
  <g class="st18">
    <path class="st1" d="M454.5,258.5l-52.1,30.1v60.1l52.1,30.1,52.1-30.1v-60.1l-52.1-30.1Z"/>
  </g>
  <g class="st19">
    <path class="st1" d="M402.4,167.3l-52.1,30.1v60.1l52.1,30.1,52.1-30.1v-60.1l-52.1-30.1Z"/>
  </g>
  <g class="st17">
    <path class="st1" d="M350.3,76.2l-52.1,30.1v60.1l52.1,30.1,52.1-30.1v-60.1l-52.1-30.1Z"/>
  </g>
  <g class="st14">
    <path class="st1" d="M558.6,258.5l-52.1,30.1v60.1l52.1,30.1,52.1-30.1v-60.1l-52.1-30.1Z"/>
  </g>
  <g class="st11">
    <path class="st1" d="M506.5,167.3l-52.1,30.1v60.1l52.1,30.1,52.1-30.1v-60.1l-52.1-30.1Z"/>
  </g>
  <g class="st15">
    <path class="st1" d="M454.5,76.2l-52.1,30.1v60.1l52.1,30.1,52.1-30.1v-60.1l-52.1-30.1Z"/>
  </g>
  <g id="text_10">
    <g>
      <path id="DejaVuSans-78" d="M332.4,608l-2,2.7,2.1,2.8h-1.1l-1.6-2.1-1.6,2.1h-1.1l2.1-2.9-1.9-2.6h1.1l1.5,1.9,1.5-1.9h1.1Z"/>
      <path id="DejaVuSans-20" d="M332.8,613.4"/>
      <path id="DejaVuSans-28" d="M339.1,605.8c-.4.7-.8,1.5-1,2.2-.2.7-.3,1.5-.3,2.2s.1,1.5.3,2.2.5,1.5,1,2.2h-.8c-.5-.8-.9-1.5-1.1-2.3-.2-.7-.4-1.5-.4-2.2s.1-1.5.4-2.2c.2-.7.6-1.5,1.1-2.3h.8Z"/>
      <path id="DejaVuSans-6d" d="M345.1,609c.2-.4.5-.7.8-.9s.7-.3,1.1-.3,1,.2,1.3.6c.3.4.5,1,.5,1.7v3.3h-.9v-3.3c0-.5,0-.9-.3-1.2-.2-.3-.5-.4-.8-.4s-.8.2-1.1.5c-.3.3-.4.7-.4,1.3v3.1h-.9v-3.3c0-.5,0-.9-.3-1.2s-.5-.4-.9-.4-.8.2-1.1.5c-.3.3-.4.7-.4,1.3v3.1h-.9v-5.5h.9v.9c.2-.3.5-.6.7-.7s.6-.2,1-.2.7.1,1,.3c.3.2.5.5.6.9Z"/>
      <path id="DejaVuSans-6d1" data-name="DejaVuSans-6d" d="M354.9,609c.2-.4.5-.7.8-.9s.7-.3,1.1-.3,1,.2,1.3.6c.3.4.5,1,.5,1.7v3.3h-.9v-3.3c0-.5,0-.9-.3-1.2-.2-.3-.5-.4-.8-.4s-.8.2-1.1.5c-.3.3-.4.7-.4,1.3v3.1h-.9v-3.3c0-.5,0-.9-.3-1.2s-.5-.4-.9-.4-.8.2-1.1.5c-.3.3-.4.7-.4,1.3v3.1h-.9v-5.5h.9v.9c.2-.3.5-.6.7-.7s.6-.2,1-.2.7.1,1,.3c.3.2.5.5.6.9Z"/>
      <path id="DejaVuSans-29" d="M360.2,605.8h.8c.5.8.9,1.5,1.1,2.3.2.7.4,1.5.4,2.2s-.1,1.5-.4,2.2c-.2.7-.6,1.5-1.1,2.3h-.8c.4-.7.8-1.5,1-2.2.2-.7.3-1.5.3-2.2s-.1-1.5-.3-2.2c-.2-.7-.5-1.5-1-2.2Z"/>
    </g>
  </g>
  <g id="ytick_8">
    <g id="line2d_34">
      <path id="mcbc4eaaf42" class="st9" d="M53,123.3h-3.5"/>
    </g>
    <g id="text_18">
      <g>
        <path id="DejaVuSans-31" d="M34.5,126.3h1.6v-5.6l-1.8.4v-.9l1.7-.4h1v6.5h1.6v.8h-4.2v-.8Z"/>
        <path id="DejaVuSans-35" d="M40.7,119.8h3.9v.8h-3v1.8c.1,0,.3,0,.4-.1.1,0,.3,0,.4,0,.8,0,1.5.2,1.9.7.5.4.7,1,.7,1.8s-.2,1.4-.7,1.8c-.5.4-1.2.7-2.1.7s-.6,0-.9,0c-.3,0-.6-.1-1-.2v-1c.3.2.6.3.9.4s.6.1,1,.1c.6,0,1-.1,1.3-.4.3-.3.5-.7.5-1.2s-.2-.9-.5-1.2c-.3-.3-.8-.4-1.3-.4s-.5,0-.8,0c-.3,0-.5.1-.8.3v-3.7Z"/>
      </g>
    </g>
  </g>
  <g id="text_20">
    <g>
      <path id="DejaVuSans-79" d="M19.4,333.5c.7.3,1.1.5,1.3.7.2.2.3.6.3,1v.7h-.8v-.5c0-.2,0-.4-.2-.6-.1-.1-.4-.3-.8-.5l-.4-.2-5.4,2.2v-1l4.3-1.7-4.3-1.7v-1l6,2.4Z"/>
      <path id="DejaVuSans-201" data-name="DejaVuSans-20" d="M18.8,330.8"/>
      <path id="DejaVuSans-281" data-name="DejaVuSans-28" d="M11.3,324.6c.7.4,1.5.8,2.2,1,.7.2,1.5.3,2.2.3s1.5-.1,2.2-.3,1.5-.5,2.2-1v.8c-.8.5-1.5.9-2.3,1.1-.7.2-1.5.4-2.2.4s-1.5-.1-2.2-.4c-.7-.2-1.5-.6-2.3-1.1v-.8Z"/>
      <path id="DejaVuSans-6d2" data-name="DejaVuSans-6d" d="M14.4,318.6c-.4-.2-.7-.5-.9-.8s-.3-.7-.3-1.1.2-1,.6-1.3c.4-.3,1-.5,1.7-.5h3.3v.9h-3.3c-.5,0-.9,0-1.2.3-.3.2-.4.5-.4.8s.2.8.5,1.1c.3.3.7.4,1.3.4h3.1v.9h-3.3c-.5,0-.9,0-1.2.3s-.4.5-.4.9.2.8.5,1.1c.3.3.7.4,1.3.4h3.1v.9h-5.5v-.9h.9c-.3-.2-.6-.5-.7-.7s-.2-.6-.2-1,.1-.7.3-1c.2-.3.5-.5.9-.6Z"/>
      <path id="DejaVuSans-6d3" data-name="DejaVuSans-6d" d="M14.4,308.8c-.4-.2-.7-.5-.9-.8s-.3-.7-.3-1.1.2-1,.6-1.3c.4-.3,1-.5,1.7-.5h3.3v.9h-3.3c-.5,0-.9,0-1.2.3-.3.2-.4.5-.4.8s.2.8.5,1.1c.3.3.7.4,1.3.4h3.1v.9h-3.3c-.5,0-.9,0-1.2.3s-.4.5-.4.9.2.8.5,1.1c.3.3.7.4,1.3.4h3.1v.9h-5.5v-.9h.9c-.3-.2-.6-.5-.7-.7s-.2-.6-.2-1,.1-.7.3-1c.2-.3.5-.5.9-.6Z"/>
      <path id="DejaVuSans-291" data-name="DejaVuSans-29" d="M11.3,303.5v-.8c.8-.5,1.5-.9,2.3-1.1.7-.2,1.5-.4,2.2-.4s1.5.1,2.2.4c.7.2,1.5.6,2.3,1.1v.8c-.7-.4-1.5-.8-2.2-1-.7-.2-1.5-.3-2.2-.3s-1.5.1-2.2.3c-.7.2-1.5.5-2.2,1Z"/>
    </g>
  </g>
  <path class="st2" d="M53,585.2V52"/>
  <path class="st2" d="M637.2,585.2V52"/>
  <path class="st2" d="M53,585.2h584.2"/>
  <path class="st2" d="M53,52h584.2"/>
  <path id="DejaVuSans-Bold-31" d="M244.3,491.8h1.3v-3.8l-1.4.3v-1l1.4-.3h1.4v4.8h1.3v1h-4.1v-1Z"/>
  <path id="DejaVuSans-Bold-32" d="M193.6,400.6h2.6v1.1h-4.2v-1.1l2.1-1.9c.2-.2.3-.3.4-.5s.1-.3.1-.5c0-.3,0-.5-.3-.7s-.4-.2-.7-.2-.5,0-.8.1c-.3,0-.6.2-.9.4v-1.3c.3-.1.7-.2,1-.3.3,0,.7,0,1,0,.7,0,1.2.2,1.6.5.4.3.6.7.6,1.3s0,.6-.2.9c-.2.3-.5.6-1,1.1l-1.2,1.1Z"/>
  <path id="DejaVuSans-Bold-33" d="M143,307.4c.4.1.7.3.9.5.2.3.3.6.3,1,0,.6-.2,1-.7,1.3-.4.3-1.1.5-1.9.5s-.6,0-.9,0c-.3,0-.6-.1-.9-.2v-1.2c.3.1.6.2.8.3.3,0,.6.1.8.1.4,0,.7,0,.9-.2.2-.1.3-.3.3-.6s-.1-.5-.3-.6-.5-.2-1-.2h-.6v-1h.6c.4,0,.7,0,.8-.2.2-.1.3-.3.3-.5s0-.4-.3-.5c-.2-.1-.4-.2-.8-.2s-.5,0-.7,0c-.2,0-.5.1-.7.2v-1.1c.3,0,.6-.1.9-.2s.6,0,.9,0c.8,0,1.3.1,1.7.4.4.2.6.6.6,1.1s0,.6-.3.8c-.2.2-.4.4-.8.5Z"/>
  <path id="DejaVuSans-Bold-34" d="M350.5,488.2l-1.6,2.4h1.6v-2.4ZM350.2,487h1.7v3.7h.8v1.1h-.8v1.1h-1.4v-1.1h-2.6v-1.3l2.3-3.5Z"/>
  <path id="DejaVuSans-Bold-35" d="M296.3,395.9h3.7v1.1h-2.5v.9c.1,0,.2,0,.3,0,.1,0,.2,0,.4,0,.7,0,1.3.2,1.7.5s.6.9.6,1.5-.2,1.1-.6,1.5c-.4.4-1,.5-1.8.5s-.7,0-1,0c-.3,0-.6-.2-1-.3v-1.2c.3.2.6.3.9.4.3,0,.6.1.8.1.4,0,.7,0,.9-.3.2-.2.3-.4.3-.7s-.1-.5-.3-.7c-.2-.2-.5-.3-.9-.3s-.4,0-.7,0c-.2,0-.5.1-.8.3v-3.3Z"/>
  <path id="DejaVuSans-Bold-36" d="M246.3,307.7c-.3,0-.5,0-.6.3-.1.2-.2.4-.2.8s0,.6.2.8c.1.2.3.3.6.3s.5,0,.6-.3c.1-.2.2-.4.2-.8s0-.6-.2-.8c-.1-.2-.3-.3-.6-.3ZM248.2,304.9v1.1c-.2-.1-.5-.2-.7-.3-.2,0-.4,0-.6,0-.4,0-.8.1-1,.4-.2.2-.4.6-.4,1.1.2-.1.4-.2.6-.3.2,0,.4,0,.7,0,.6,0,1.1.2,1.4.5.4.3.5.8.5,1.4s-.2,1.1-.6,1.5c-.4.4-1,.6-1.6.6s-1.3-.3-1.8-.8c-.4-.5-.6-1.2-.6-2.2s.2-1.7.7-2.3c.5-.6,1.2-.8,2-.8s.5,0,.8,0,.5.1.7.2Z"/>
  <path id="DejaVuSans-Bold-37" d="M191.9,213.6h4.4v.8l-2.3,5h-1.5l2.2-4.7h-2.8v-1.1Z"/>
  <path id="DejaVuSans-Bold-38" d="M454.5,490.2c-.3,0-.5,0-.6.2-.2.2-.2.4-.2.7s0,.5.2.7c.2.2.4.2.6.2s.5,0,.6-.2c.1-.2.2-.4.2-.7s0-.5-.2-.7-.4-.2-.6-.2ZM453.4,489.7c-.4-.1-.6-.3-.8-.5-.2-.2-.3-.5-.3-.8,0-.5.2-.9.5-1.1.4-.3.9-.4,1.6-.4s1.2.1,1.6.4c.4.3.6.6.6,1.1s0,.6-.3.8c-.2.2-.4.4-.8.5.4.1.7.3.9.5.2.2.3.6.3.9,0,.6-.2,1-.6,1.3-.4.3-1,.4-1.7.4s-1.3-.1-1.7-.4c-.4-.3-.6-.7-.6-1.3s.1-.7.3-.9c.2-.2.5-.4.9-.5ZM453.7,488.5c0,.2,0,.4.2.5s.3.2.6.2.4,0,.5-.2c.1-.1.2-.3.2-.5s0-.4-.2-.5c-.1-.1-.3-.2-.5-.2s-.4,0-.6.2-.2.3-.2.5Z"/>
  <path id="DejaVuSans-Bold-39" d="M400.4,401.6v-1.1c.2.1.5.2.7.3.2,0,.4,0,.6,0,.4,0,.8-.1,1-.4.2-.2.4-.6.4-1.1-.2.1-.4.2-.6.3s-.4,0-.7,0c-.6,0-1.1-.2-1.4-.5-.4-.3-.5-.8-.5-1.4s.2-1.1.6-1.5,1-.6,1.6-.6,1.3.3,1.8.8c.4.5.6,1.2.6,2.2s-.2,1.7-.7,2.3c-.5.6-1.2.8-2,.8s-.5,0-.8,0c-.2,0-.5-.1-.7-.2ZM402.3,398.7c.3,0,.5,0,.6-.3.1-.2.2-.4.2-.8s0-.6-.2-.8c-.1-.2-.3-.3-.6-.3s-.5,0-.6.3c-.1.2-.2.4-.2.8s0,.6.2.8c.1.2.3.3.6.3Z"/>
  <g>
    <path id="DejaVuSans-Bold-311" data-name="DejaVuSans-Bold-31" d="M345.7,309.5h1.3v-3.8l-1.4.3v-1l1.4-.3h1.4v4.8h1.3v1h-4.1v-1Z"/>
    <path id="DejaVuSans-Bold-30" d="M354,307.6c0-.7,0-1.2-.2-1.5-.1-.3-.4-.4-.7-.4s-.6.1-.7.4c-.1.3-.2.8-.2,1.5s0,1.3.2,1.6c.1.3.4.5.7.5s.5-.2.7-.5c.1-.3.2-.8.2-1.6ZM355.5,307.7c0,1-.2,1.7-.6,2.2s-1,.8-1.8.8-1.4-.3-1.8-.8c-.4-.5-.6-1.3-.6-2.2s.2-1.7.6-2.2c.4-.5,1-.8,1.8-.8s1.4.3,1.8.8c.4.5.6,1.3.6,2.2Z"/>
  </g>
  <g>
    <path id="DejaVuSans-Bold-312" data-name="DejaVuSans-Bold-31" d="M293.6,218.4h1.3v-3.8l-1.4.3v-1l1.4-.3h1.4v4.8h1.3v1h-4.1v-1Z"/>
    <path id="DejaVuSans-Bold-313" data-name="DejaVuSans-Bold-31" d="M299.2,218.4h1.3v-3.8l-1.4.3v-1l1.4-.3h1.4v4.8h1.3v1h-4.1v-1Z"/>
  </g>
  <g>
    <path id="DejaVuSans-Bold-314" data-name="DejaVuSans-Bold-31" d="M241.6,127.3h1.3v-3.8l-1.4.3v-1l1.4-.3h1.4v4.8h1.3v1h-4.1v-1Z"/>
    <path id="DejaVuSans-Bold-321" data-name="DejaVuSans-Bold-32" d="M248.5,127.2h2.6v1.1h-4.2v-1.1l2.1-1.9c.2-.2.3-.3.4-.5s.1-.3.1-.5c0-.3,0-.5-.3-.7s-.4-.2-.7-.2-.5,0-.8.1c-.3,0-.6.2-.9.4v-1.3c.3-.1.7-.2,1-.3.3,0,.7,0,1,0,.7,0,1.2.2,1.6.5.4.3.6.7.6,1.3s0,.6-.2.9c-.2.3-.5.6-1,1.1l-1.2,1.1Z"/>
  </g>
  <g>
    <path id="DejaVuSans-Bold-315" data-name="DejaVuSans-Bold-31" d="M501.9,400.6h1.3v-3.8l-1.4.3v-1l1.4-.3h1.4v4.8h1.3v1h-4.1v-1Z"/>
    <path id="DejaVuSans-Bold-331" data-name="DejaVuSans-Bold-33" d="M510.2,398.5c.4.1.7.3.9.5.2.3.3.6.3,1,0,.6-.2,1-.7,1.3-.4.3-1.1.5-1.9.5s-.6,0-.9,0c-.3,0-.6-.1-.9-.2v-1.2c.3.1.6.2.8.3.3,0,.6.1.8.1.4,0,.7,0,.9-.2.2-.1.3-.3.3-.6s-.1-.5-.3-.6-.5-.2-1-.2h-.6v-1h.6c.4,0,.7,0,.8-.2.2-.1.3-.3.3-.5s0-.4-.3-.5c-.2-.1-.4-.2-.8-.2s-.5,0-.7,0c-.2,0-.5.1-.7.2v-1.1c.3,0,.6-.1.9-.2s.6,0,.9,0c.8,0,1.3.1,1.7.4.4.2.6.6.6,1.1s0,.6-.3.8c-.2.2-.4.4-.8.5Z"/>
  </g>
  <g>
    <path id="DejaVuSans-Bold-316" data-name="DejaVuSans-Bold-31" d="M449.8,309.5h1.3v-3.8l-1.4.3v-1l1.4-.3h1.4v4.8h1.3v1h-4.1v-1Z"/>
    <path id="DejaVuSans-Bold-341" data-name="DejaVuSans-Bold-34" d="M457.4,306l-1.6,2.4h1.6v-2.4ZM457.1,304.7h1.7v3.7h.8v1.1h-.8v1.1h-1.4v-1.1h-2.6v-1.3l2.3-3.5Z"/>
  </g>
  <g>
    <path id="DejaVuSans-Bold-317" data-name="DejaVuSans-Bold-31" d="M397.8,218.4h1.3v-3.8l-1.4.3v-1l1.4-.3h1.4v4.8h1.3v1h-4.1v-1Z"/>
    <path id="DejaVuSans-Bold-351" data-name="DejaVuSans-Bold-35" d="M403.2,213.6h3.7v1.1h-2.5v.9c.1,0,.2,0,.3,0,.1,0,.2,0,.4,0,.7,0,1.3.2,1.7.5s.6.9.6,1.5-.2,1.1-.6,1.5c-.4.4-1,.5-1.8.5s-.7,0-1,0c-.3,0-.6-.2-1-.3v-1.2c.3.2.6.3.9.4.3,0,.6.1.8.1.4,0,.7,0,.9-.3.2-.2.3-.4.3-.7s-.1-.5-.3-.7c-.2-.2-.5-.3-.9-.3s-.4,0-.7,0c-.2,0-.5.1-.8.3v-3.3Z"/>
  </g>
  <g>
    <path id="DejaVuSans-Bold-318" data-name="DejaVuSans-Bold-31" d="M345.7,127.3h1.3v-3.8l-1.4.3v-1l1.4-.3h1.4v4.8h1.3v1h-4.1v-1Z"/>
    <path id="DejaVuSans-Bold-361" data-name="DejaVuSans-Bold-36" d="M353.2,125.5c-.3,0-.5,0-.6.3-.1.2-.2.4-.2.8s0,.6.2.8c.1.2.3.3.6.3s.5,0,.6-.3c.1-.2.2-.4.2-.8s0-.6-.2-.8c-.1-.2-.3-.3-.6-.3ZM355.1,122.7v1.1c-.2-.1-.5-.2-.7-.3-.2,0-.4,0-.6,0-.4,0-.8.1-1,.4-.2.2-.4.6-.4,1.1.2-.1.4-.2.6-.3.2,0,.4,0,.7,0,.6,0,1.1.2,1.4.5.4.3.5.8.5,1.4s-.2,1.1-.6,1.5c-.4.4-1,.6-1.6.6s-1.3-.3-1.8-.8c-.4-.5-.6-1.2-.6-2.2s.2-1.7.7-2.3c.5-.6,1.2-.8,2-.8s.5,0,.8,0,.5.1.7.2Z"/>
  </g>
  <g>
    <path id="DejaVuSans-Bold-319" data-name="DejaVuSans-Bold-31" d="M554,309.5h1.3v-3.8l-1.4.3v-1l1.4-.3h1.4v4.8h1.3v1h-4.1v-1Z"/>
    <path id="DejaVuSans-Bold-371" data-name="DejaVuSans-Bold-37" d="M559.1,304.7h4.4v.8l-2.3,5h-1.5l2.2-4.7h-2.8v-1.1Z"/>
  </g>
  <g>
    <path id="DejaVuSans-Bold-3110" data-name="DejaVuSans-Bold-31" d="M501.9,218.4h1.3v-3.8l-1.4.3v-1l1.4-.3h1.4v4.8h1.3v1h-4.1v-1Z"/>
    <path id="DejaVuSans-Bold-381" data-name="DejaVuSans-Bold-38" d="M509.3,216.8c-.3,0-.5,0-.6.2-.2.2-.2.4-.2.7s0,.5.2.7c.2.2.4.2.6.2s.5,0,.6-.2c.1-.2.2-.4.2-.7s0-.5-.2-.7-.4-.2-.6-.2ZM508.2,216.4c-.4-.1-.6-.3-.8-.5-.2-.2-.3-.5-.3-.8,0-.5.2-.9.5-1.1.4-.3.9-.4,1.6-.4s1.2.1,1.6.4c.4.3.6.6.6,1.1s0,.6-.3.8c-.2.2-.4.4-.8.5.4.1.7.3.9.5.2.2.3.6.3.9,0,.6-.2,1-.6,1.3-.4.3-1,.4-1.7.4s-1.3-.1-1.7-.4c-.4-.3-.6-.7-.6-1.3s.1-.7.3-.9c.2-.2.5-.4.9-.5ZM508.6,215.2c0,.2,0,.4.2.5s.3.2.6.2.4,0,.5-.2c.1-.1.2-.3.2-.5s0-.4-.2-.5c-.1-.1-.3-.2-.5-.2s-.4,0-.6.2-.2.3-.2.5Z"/>
  </g>
  <g>
    <path id="DejaVuSans-Bold-3111" data-name="DejaVuSans-Bold-31" d="M449.8,127.3h1.3v-3.8l-1.4.3v-1l1.4-.3h1.4v4.8h1.3v1h-4.1v-1Z"/>
    <path id="DejaVuSans-Bold-391" data-name="DejaVuSans-Bold-39" d="M455.3,128.2v-1.1c.2.1.5.2.7.3.2,0,.4,0,.6,0,.4,0,.8-.1,1-.4.2-.2.4-.6.4-1.1-.2.1-.4.2-.6.3s-.4,0-.7,0c-.6,0-1.1-.2-1.4-.5-.4-.3-.5-.8-.5-1.4s.2-1.1.6-1.5,1-.6,1.6-.6,1.3.3,1.8.8c.4.5.6,1.2.6,2.2s-.2,1.7-.7,2.3c-.5.6-1.2.8-2,.8s-.5,0-.8,0c-.2,0-.5-.1-.7-.2ZM457.1,125.4c.3,0,.5,0,.6-.3.1-.2.2-.4.2-.8s0-.6-.2-.8c-.1-.2-.3-.3-.6-.3s-.5,0-.6.3c-.1.2-.2.4-.2.8s0,.6.2.8c.1.2.3.3.6.3Z"/>
  </g>
  <g>
    <path id="DejaVuSans-Bold-41" d="M236.7,44.3h-3.8l-.6,1.7h-2.5l3.5-9.5h2.9l3.5,9.5h-2.5l-.6-1.7ZM233.4,42.5h2.6l-1.3-3.8-1.3,3.8Z"/>
    <path id="DejaVuSans-Bold-6c" d="M240.9,36.1h2.3v9.9h-2.3v-9.9Z"/>
    <path id="DejaVuSans-Bold-6c1" data-name="DejaVuSans-Bold-6c" d="M245.3,36.1h2.3v9.9h-2.3v-9.9Z"/>
    <path id="DejaVuSans-Bold-20" d="M248.7,46"/>
    <path id="DejaVuSans-Bold-63" d="M260.1,39.1v1.9c-.3-.2-.6-.4-.9-.5s-.6-.2-1-.2c-.6,0-1.1.2-1.5.6s-.5.9-.5,1.6.2,1.2.5,1.6c.4.4.8.6,1.5.6s.7,0,1-.2c.3-.1.6-.3.9-.5v1.9c-.4.1-.7.2-1.1.3-.4,0-.7,0-1.1,0-1.3,0-2.3-.3-3-1-.7-.7-1.1-1.6-1.1-2.7s.4-2.1,1.1-2.7c.7-.7,1.7-1,3-1s.7,0,1.1,0,.7.2,1.1.3Z"/>
    <path id="DejaVuSans-Bold-61" d="M265.2,42.8c-.5,0-.8,0-1.1.2-.2.2-.4.4-.4.7s0,.5.3.7c.2.2.5.2.8.2s.8-.2,1.1-.5c.3-.3.4-.7.4-1.2v-.3h-1.2ZM268.7,41.9v4.1h-2.3v-1.1c-.3.4-.6.7-1,.9-.4.2-.8.3-1.4.3s-1.3-.2-1.8-.6c-.5-.4-.7-1-.7-1.7s.3-1.4.9-1.8c.6-.4,1.5-.6,2.7-.6h1.3v-.2c0-.4-.1-.6-.4-.8-.3-.2-.7-.3-1.3-.3s-.9,0-1.4.1c-.4,0-.8.2-1.2.4v-1.7c.5-.1,1-.2,1.5-.3.5,0,1,0,1.5,0,1.3,0,2.2.3,2.8.8.6.5.9,1.3.9,2.5Z"/>
    <path id="DejaVuSans-Bold-6c2" data-name="DejaVuSans-Bold-6c" d="M270.8,36.1h2.3v9.9h-2.3v-9.9Z"/>
    <path id="DejaVuSans-Bold-69" d="M275.2,38.9h2.3v7.1h-2.3v-7.1ZM275.2,36.1h2.3v1.9h-2.3v-1.9Z"/>
    <path id="DejaVuSans-Bold-62" d="M283.5,44.5c.5,0,.9-.2,1.1-.5.3-.4.4-.9.4-1.5s-.1-1.2-.4-1.5c-.3-.4-.6-.5-1.1-.5s-.9.2-1.1.5c-.3.4-.4.9-.4,1.5s.1,1.2.4,1.5c.3.4.6.5,1.1.5ZM282,39.9c.3-.4.7-.7,1-.9.4-.2.8-.3,1.3-.3.9,0,1.6.3,2.2,1,.6.7.8,1.6.8,2.7s-.3,2-.8,2.7c-.6.7-1.3,1-2.2,1s-.9,0-1.3-.3c-.4-.2-.7-.5-1-.9v1h-2.3v-9.9h2.3v3.8Z"/>
    <path id="DejaVuSans-Bold-72" d="M294.3,40.8c-.2,0-.4-.2-.6-.2-.2,0-.4,0-.6,0-.6,0-1,.2-1.3.6-.3.4-.5.9-.5,1.6v3.3h-2.3v-7.1h2.3v1.2c.3-.5.6-.8,1-1,.4-.2.8-.3,1.4-.3s.2,0,.2,0c0,0,.2,0,.4,0v2.1Z"/>
    <path id="DejaVuSans-Bold-611" data-name="DejaVuSans-Bold-61" d="M298.6,42.8c-.5,0-.8,0-1.1.2-.2.2-.4.4-.4.7s0,.5.3.7c.2.2.5.2.8.2s.8-.2,1.1-.5c.3-.3.4-.7.4-1.2v-.3h-1.2ZM302.1,41.9v4.1h-2.3v-1.1c-.3.4-.6.7-1,.9-.4.2-.8.3-1.4.3s-1.3-.2-1.8-.6c-.5-.4-.7-1-.7-1.7s.3-1.4.9-1.8c.6-.4,1.5-.6,2.7-.6h1.3v-.2c0-.4-.1-.6-.4-.8-.3-.2-.7-.3-1.3-.3s-.9,0-1.4.1c-.4,0-.8.2-1.2.4v-1.7c.5-.1,1-.2,1.5-.3.5,0,1,0,1.5,0,1.3,0,2.2.3,2.8.8.6.5.9,1.3.9,2.5Z"/>
    <path id="DejaVuSans-Bold-74" d="M306.7,36.9v2h2.3v1.6h-2.3v3c0,.3,0,.6.2.7s.4.2.8.2h1.2v1.6h-1.9c-.9,0-1.5-.2-1.9-.6-.4-.4-.6-1-.6-1.9v-3h-1.1v-1.6h1.1v-2h2.3Z"/>
    <path id="DejaVuSans-Bold-691" data-name="DejaVuSans-Bold-69" d="M310.4,38.9h2.3v7.1h-2.3v-7.1ZM310.4,36.1h2.3v1.9h-2.3v-1.9Z"/>
    <path id="DejaVuSans-Bold-6f" d="M318.2,40.3c-.5,0-.9.2-1.2.5s-.4.9-.4,1.6.1,1.2.4,1.6c.3.4.6.5,1.2.5s.9-.2,1.1-.5c.3-.4.4-.9.4-1.6s-.1-1.2-.4-1.6c-.3-.4-.6-.5-1.1-.5ZM318.2,38.7c1.2,0,2.2.3,2.9,1,.7.7,1,1.6,1,2.7s-.3,2.1-1,2.7c-.7.7-1.6,1-2.9,1s-2.2-.3-2.9-1c-.7-.7-1-1.6-1-2.7s.3-2.1,1-2.7c.7-.7,1.7-1,2.9-1Z"/>
    <path id="DejaVuSans-Bold-6e" d="M330.9,41.7v4.3h-2.3v-3.3c0-.6,0-1,0-1.3s0-.4-.1-.5c0-.1-.2-.3-.4-.3-.2,0-.3-.1-.5-.1-.5,0-.8.2-1.1.6-.3.4-.4.9-.4,1.5v3.5h-2.3v-7.1h2.3v1c.3-.4.7-.7,1.1-.9.4-.2.8-.3,1.3-.3.8,0,1.4.3,1.9.8.4.5.6,1.2.6,2.2Z"/>
    <path id="DejaVuSans-Bold-201" data-name="DejaVuSans-Bold-20" d="M332,46"/>
    <path id="DejaVuSans-Bold-70" d="M339.8,45v3.7h-2.3v-9.8h2.3v1c.3-.4.7-.7,1-.9.4-.2.8-.3,1.3-.3.9,0,1.6.3,2.2,1,.6.7.8,1.6.8,2.7s-.3,2-.8,2.7c-.6.7-1.3,1-2.2,1s-.9,0-1.3-.3c-.4-.2-.7-.5-1-.9ZM341.4,40.4c-.5,0-.9.2-1.1.5-.3.4-.4.9-.4,1.5s.1,1.2.4,1.5c.3.4.6.5,1.1.5s.9-.2,1.1-.5c.3-.4.4-.9.4-1.5s-.1-1.2-.4-1.5c-.3-.4-.6-.5-1.1-.5Z"/>
    <path id="DejaVuSans-Bold-6f1" data-name="DejaVuSans-Bold-6f" d="M350.3,40.3c-.5,0-.9.2-1.2.5s-.4.9-.4,1.6.1,1.2.4,1.6c.3.4.6.5,1.2.5s.9-.2,1.1-.5c.3-.4.4-.9.4-1.6s-.1-1.2-.4-1.6c-.3-.4-.6-.5-1.1-.5ZM350.3,38.7c1.2,0,2.2.3,2.9,1,.7.7,1,1.6,1,2.7s-.3,2.1-1,2.7c-.7.7-1.6,1-2.9,1s-2.2-.3-2.9-1c-.7-.7-1-1.6-1-2.7s.3-2.1,1-2.7c.7-.7,1.7-1,2.9-1Z"/>
    <path id="DejaVuSans-Bold-692" data-name="DejaVuSans-Bold-69" d="M355.8,38.9h2.3v7.1h-2.3v-7.1ZM355.8,36.1h2.3v1.9h-2.3v-1.9Z"/>
    <path id="DejaVuSans-Bold-6e1" data-name="DejaVuSans-Bold-6e" d="M367.4,41.7v4.3h-2.3v-3.3c0-.6,0-1,0-1.3s0-.4-.1-.5c0-.1-.2-.3-.4-.3-.2,0-.3-.1-.5-.1-.5,0-.8.2-1.1.6-.3.4-.4.9-.4,1.5v3.5h-2.3v-7.1h2.3v1c.3-.4.7-.7,1.1-.9.4-.2.8-.3,1.3-.3.8,0,1.4.3,1.9.8.4.5.6,1.2.6,2.2Z"/>
    <path id="DejaVuSans-Bold-741" data-name="DejaVuSans-Bold-74" d="M372,36.9v2h2.3v1.6h-2.3v3c0,.3,0,.6.2.7s.4.2.8.2h1.2v1.6h-1.9c-.9,0-1.5-.2-1.9-.6-.4-.4-.6-1-.6-1.9v-3h-1.1v-1.6h1.1v-2h2.3Z"/>
    <path id="DejaVuSans-Bold-73" d="M381.3,39.1v1.7c-.5-.2-1-.4-1.4-.5-.5-.1-.9-.2-1.3-.2s-.8,0-1,.2c-.2.1-.3.3-.3.5s0,.3.2.4c.2,0,.4.2.9.2h.4c1.2.2,1.9.4,2.3.8.4.3.6.9.6,1.6s-.3,1.3-.8,1.7c-.6.4-1.4.6-2.5.6s-1,0-1.5-.1c-.5,0-1-.2-1.5-.3v-1.7c.5.2.9.4,1.4.5.5.1,1,.2,1.5.2s.8,0,1-.2c.2-.1.3-.3.3-.5s0-.4-.2-.5-.5-.2-.9-.2h-.4c-1-.2-1.7-.4-2.1-.8s-.6-.9-.6-1.6.3-1.3.8-1.7c.5-.4,1.3-.5,2.4-.5s.9,0,1.3,0c.5,0,1,.2,1.5.3Z"/>
    <path id="DejaVuSans-Bold-202" data-name="DejaVuSans-Bold-20" d="M382.4,46"/>
    <path id="DejaVuSans-Bold-203" data-name="DejaVuSans-Bold-20" d="M386.9,46"/>
    <path id="DejaVuSans-Bold-28" d="M396.3,47.7h-1.9c-.6-1-1.1-2-1.4-3-.3-.9-.5-1.9-.5-2.8s.2-1.9.5-2.8c.3-1,.8-1.9,1.4-3h1.9c-.5,1-.9,2-1.2,2.9s-.4,1.9-.4,2.8.1,1.9.4,2.8c.3,1,.7,1.9,1.2,3Z"/>
    <path id="DejaVuSans-Bold-382" data-name="DejaVuSans-Bold-38" d="M401.9,41.7c-.5,0-.8.1-1.1.4-.2.2-.4.6-.4,1.1s.1.8.4,1.1c.2.2.6.4,1.1.4s.8-.1,1-.4c.2-.2.4-.6.4-1.1s-.1-.8-.4-1.1-.6-.4-1-.4ZM400.1,40.9c-.6-.2-1-.4-1.3-.8-.3-.4-.4-.8-.4-1.3,0-.8.3-1.4.9-1.8.6-.4,1.5-.6,2.6-.6s2,.2,2.6.6c.6.4.9,1,.9,1.8s-.1,1-.4,1.3c-.3.4-.7.6-1.3.8.6.2,1.1.5,1.5.9.3.4.5.9.5,1.5,0,.9-.3,1.7-.9,2.1-.6.5-1.5.7-2.8.7s-2.2-.2-2.8-.7c-.6-.5-.9-1.2-.9-2.1s.2-1.1.5-1.5c.3-.4.8-.7,1.5-.9ZM400.7,39c0,.4.1.7.3.9s.5.3.9.3.7-.1.9-.3c.2-.2.3-.5.3-.9s-.1-.7-.3-.9c-.2-.2-.5-.3-.9-.3s-.7.1-.9.3-.3.5-.3.9Z"/>
    <path id="DejaVuSans-Bold-352" data-name="DejaVuSans-Bold-35" d="M407.8,36.5h6.1v1.8h-4.1v1.5c.2,0,.4,0,.6-.1.2,0,.4,0,.6,0,1.2,0,2.1.3,2.7.9s1,1.4,1,2.4-.4,1.8-1.1,2.4c-.7.6-1.7.9-2.9.9s-1.1,0-1.6-.2c-.5-.1-1.1-.3-1.6-.5v-1.9c.5.3,1,.5,1.5.7.5.1.9.2,1.3.2.6,0,1.1-.1,1.4-.4.3-.3.5-.7.5-1.2s-.2-.9-.5-1.2c-.3-.3-.8-.4-1.4-.4s-.7,0-1.1.1c-.4,0-.8.2-1.3.4v-5.3Z"/>
    <path id="DejaVuSans-Bold-204" data-name="DejaVuSans-Bold-20" d="M415.5,46"/>
    <path id="DejaVuSans-Bold-742" data-name="DejaVuSans-Bold-74" d="M423.6,36.9v2h2.3v1.6h-2.3v3c0,.3,0,.6.2.7s.4.2.8.2h1.2v1.6h-1.9c-.9,0-1.5-.2-1.9-.6-.4-.4-.6-1-.6-1.9v-3h-1.1v-1.6h1.1v-2h2.3Z"/>
    <path id="DejaVuSans-Bold-6f2" data-name="DejaVuSans-Bold-6f" d="M430.7,40.3c-.5,0-.9.2-1.2.5s-.4.9-.4,1.6.1,1.2.4,1.6c.3.4.6.5,1.2.5s.9-.2,1.1-.5c.3-.4.4-.9.4-1.6s-.1-1.2-.4-1.6c-.3-.4-.6-.5-1.1-.5ZM430.7,38.7c1.2,0,2.2.3,2.9,1,.7.7,1,1.6,1,2.7s-.3,2.1-1,2.7c-.7.7-1.6,1-2.9,1s-2.2-.3-2.9-1c-.7-.7-1-1.6-1-2.7s.3-2.1,1-2.7c.7-.7,1.7-1,2.9-1Z"/>
    <path id="DejaVuSans-Bold-743" data-name="DejaVuSans-Bold-74" d="M438.7,36.9v2h2.3v1.6h-2.3v3c0,.3,0,.6.2.7s.4.2.8.2h1.2v1.6h-1.9c-.9,0-1.5-.2-1.9-.6-.4-.4-.6-1-.6-1.9v-3h-1.1v-1.6h1.1v-2h2.3Z"/>
    <path id="DejaVuSans-Bold-612" data-name="DejaVuSans-Bold-61" d="M445.6,42.8c-.5,0-.8,0-1.1.2-.2.2-.4.4-.4.7s0,.5.3.7c.2.2.5.2.8.2s.8-.2,1.1-.5c.3-.3.4-.7.4-1.2v-.3h-1.2ZM449.1,41.9v4.1h-2.3v-1.1c-.3.4-.6.7-1,.9-.4.2-.8.3-1.4.3s-1.3-.2-1.8-.6c-.5-.4-.7-1-.7-1.7s.3-1.4.9-1.8c.6-.4,1.5-.6,2.7-.6h1.3v-.2c0-.4-.1-.6-.4-.8-.3-.2-.7-.3-1.3-.3s-.9,0-1.4.1c-.4,0-.8.2-1.2.4v-1.7c.5-.1,1-.2,1.5-.3.5,0,1,0,1.5,0,1.3,0,2.2.3,2.8.8.6.5.9,1.3.9,2.5Z"/>
    <path id="DejaVuSans-Bold-6c3" data-name="DejaVuSans-Bold-6c" d="M451.2,36.1h2.3v9.9h-2.3v-9.9Z"/>
    <path id="DejaVuSans-Bold-29" d="M455.6,47.7c.5-1,.9-2,1.2-3,.3-1,.4-1.9.4-2.8s-.1-1.9-.4-2.8c-.3-1-.7-1.9-1.2-2.9h1.9c.6,1,1.1,2,1.4,3,.3.9.5,1.9.5,2.8s-.2,1.9-.5,2.8c-.3.9-.8,1.9-1.4,3h-1.9Z"/>
  </g>
  <g class="st12">
    <g>
      <path id="m866b84cb45" class="st7" d="M298.3,140.1c1,0,1.9-.4,2.6-1.1.7-.7,1.1-1.6,1.1-2.6s-.4-1.9-1.1-2.6c-.7-.7-1.6-1.1-2.6-1.1s-1.9.4-2.6,1.1c-.7.7-1.1,1.6-1.1,2.6s.4,1.9,1.1,2.6c.7.7,1.6,1.1,2.6,1.1Z"/>
      <path id="m866b84cb451" data-name="m866b84cb45" class="st7" d="M402.4,140.1c1,0,1.9-.4,2.6-1.1.7-.7,1.1-1.6,1.1-2.6s-.4-1.9-1.1-2.6c-.7-.7-1.6-1.1-2.6-1.1s-1.9.4-2.6,1.1c-.7.7-1.1,1.6-1.1,2.6s.4,1.9,1.1,2.6c.7.7,1.6,1.1,2.6,1.1Z"/>
      <path id="m866b84cb452" data-name="m866b84cb45" class="st7" d="M246.2,231.2c1,0,1.9-.4,2.6-1.1.7-.7,1.1-1.6,1.1-2.6s-.4-1.9-1.1-2.6c-.7-.7-1.6-1.1-2.6-1.1s-1.9.4-2.6,1.1c-.7.7-1.1,1.6-1.1,2.6s.4,1.9,1.1,2.6c.7.7,1.6,1.1,2.6,1.1Z"/>
      <path id="m866b84cb453" data-name="m866b84cb45" class="st7" d="M350.3,231.2c1,0,1.9-.4,2.6-1.1.7-.7,1.1-1.6,1.1-2.6s-.4-1.9-1.1-2.6c-.7-.7-1.6-1.1-2.6-1.1s-1.9.4-2.6,1.1c-.7.7-1.1,1.6-1.1,2.6s.4,1.9,1.1,2.6c.7.7,1.6,1.1,2.6,1.1Z"/>
      <path id="m866b84cb454" data-name="m866b84cb45" class="st7" d="M454.5,231.2c1,0,1.9-.4,2.6-1.1.7-.7,1.1-1.6,1.1-2.6s-.4-1.9-1.1-2.6c-.7-.7-1.6-1.1-2.6-1.1s-1.9.4-2.6,1.1c-.7.7-1.1,1.6-1.1,2.6s.4,1.9,1.1,2.6c.7.7,1.6,1.1,2.6,1.1Z"/>
      <path id="m866b84cb455" data-name="m866b84cb45" class="st7" d="M194.1,322.3c1,0,1.9-.4,2.6-1.1.7-.7,1.1-1.6,1.1-2.6s-.4-1.9-1.1-2.6c-.7-.7-1.6-1.1-2.6-1.1s-1.9.4-2.6,1.1c-.7.7-1.1,1.6-1.1,2.6s.4,1.9,1.1,2.6c.7.7,1.6,1.1,2.6,1.1Z"/>
      <path id="m866b84cb456" data-name="m866b84cb45" class="st7" d="M298.3,322.3c1,0,1.9-.4,2.6-1.1.7-.7,1.1-1.6,1.1-2.6s-.4-1.9-1.1-2.6c-.7-.7-1.6-1.1-2.6-1.1s-1.9.4-2.6,1.1c-.7.7-1.1,1.6-1.1,2.6s.4,1.9,1.1,2.6c.7.7,1.6,1.1,2.6,1.1Z"/>
      <path id="m866b84cb457" data-name="m866b84cb45" class="st7" d="M402.4,322.3c1,0,1.9-.4,2.6-1.1.7-.7,1.1-1.6,1.1-2.6s-.4-1.9-1.1-2.6c-.7-.7-1.6-1.1-2.6-1.1s-1.9.4-2.6,1.1c-.7.7-1.1,1.6-1.1,2.6s.4,1.9,1.1,2.6c.7.7,1.6,1.1,2.6,1.1Z"/>
      <path id="m866b84cb458" data-name="m866b84cb45" class="st7" d="M506.5,322.3c1,0,1.9-.4,2.6-1.1.7-.7,1.1-1.6,1.1-2.6s-.4-1.9-1.1-2.6c-.7-.7-1.6-1.1-2.6-1.1s-1.9.4-2.6,1.1c-.7.7-1.1,1.6-1.1,2.6s.4,1.9,1.1,2.6c.7.7,1.6,1.1,2.6,1.1Z"/>
      <path id="m866b84cb459" data-name="m866b84cb45" class="st7" d="M246.2,413.4c1,0,1.9-.4,2.6-1.1.7-.7,1.1-1.6,1.1-2.6s-.4-1.9-1.1-2.6c-.7-.7-1.6-1.1-2.6-1.1s-1.9.4-2.6,1.1c-.7.7-1.1,1.6-1.1,2.6s.4,1.9,1.1,2.6c.7.7,1.6,1.1,2.6,1.1Z"/>
      <path id="m866b84cb4510" data-name="m866b84cb45" class="st7" d="M350.3,413.4c1,0,1.9-.4,2.6-1.1.7-.7,1.1-1.6,1.1-2.6s-.4-1.9-1.1-2.6c-.7-.7-1.6-1.1-2.6-1.1s-1.9.4-2.6,1.1c-.7.7-1.1,1.6-1.1,2.6s.4,1.9,1.1,2.6c.7.7,1.6,1.1,2.6,1.1Z"/>
      <path id="m866b84cb4511" data-name="m866b84cb45" class="st7" d="M454.5,413.4c1,0,1.9-.4,2.6-1.1.7-.7,1.1-1.6,1.1-2.6s-.4-1.9-1.1-2.6c-.7-.7-1.6-1.1-2.6-1.1s-1.9.4-2.6,1.1c-.7.7-1.1,1.6-1.1,2.6s.4,1.9,1.1,2.6c.7.7,1.6,1.1,2.6,1.1Z"/>
      <path id="m866b84cb4512" data-name="m866b84cb45" class="st7" d="M298.3,504.5c1,0,1.9-.4,2.6-1.1.7-.7,1.1-1.6,1.1-2.6s-.4-1.9-1.1-2.6c-.7-.7-1.6-1.1-2.6-1.1s-1.9.4-2.6,1.1c-.7.7-1.1,1.6-1.1,2.6s.4,1.9,1.1,2.6c.7.7,1.6,1.1,2.6,1.1Z"/>
      <path id="m866b84cb4513" data-name="m866b84cb45" class="st7" d="M402.4,504.5c1,0,1.9-.4,2.6-1.1.7-.7,1.1-1.6,1.1-2.6s-.4-1.9-1.1-2.6c-.7-.7-1.6-1.1-2.6-1.1s-1.9.4-2.6,1.1c-.7.7-1.1,1.6-1.1,2.6s.4,1.9,1.1,2.6c.7.7,1.6,1.1,2.6,1.1Z"/>
    </g>
  </g>
  <g class="st21">
    <g>
      <path id="m8f89401cc7" class="st8" d="M220.2,459c1,0,1.9-.4,2.6-1.1.7-.7,1.1-1.6,1.1-2.6s-.4-1.9-1.1-2.6c-.7-.7-1.6-1.1-2.6-1.1s-1.9.4-2.6,1.1c-.7.7-1.1,1.6-1.1,2.6s.4,1.9,1.1,2.6c.7.7,1.6,1.1,2.6,1.1Z"/>
      <path id="m8f89401cc71" data-name="m8f89401cc7" class="st8" d="M272.2,459c1,0,1.9-.4,2.6-1.1.7-.7,1.1-1.6,1.1-2.6s-.4-1.9-1.1-2.6c-.7-.7-1.6-1.1-2.6-1.1s-1.9.4-2.6,1.1c-.7.7-1.1,1.6-1.1,2.6s.4,1.9,1.1,2.6c.7.7,1.6,1.1,2.6,1.1Z"/>
      <path id="m8f89401cc72" data-name="m8f89401cc7" class="st8" d="M168.1,367.8c1,0,1.9-.4,2.6-1.1.7-.7,1.1-1.6,1.1-2.6s-.4-1.9-1.1-2.6c-.7-.7-1.6-1.1-2.6-1.1s-1.9.4-2.6,1.1c-.7.7-1.1,1.6-1.1,2.6s.4,1.9,1.1,2.6c.7.7,1.6,1.1,2.6,1.1Z"/>
      <path id="m8f89401cc73" data-name="m8f89401cc7" class="st8" d="M220.2,367.8c1,0,1.9-.4,2.6-1.1.7-.7,1.1-1.6,1.1-2.6s-.4-1.9-1.1-2.6c-.7-.7-1.6-1.1-2.6-1.1s-1.9.4-2.6,1.1c-.7.7-1.1,1.6-1.1,2.6s.4,1.9,1.1,2.6c.7.7,1.6,1.1,2.6,1.1Z"/>
      <path id="m8f89401cc74" data-name="m8f89401cc7" class="st8" d="M168.1,276.7c1,0,1.9-.4,2.6-1.1.7-.7,1.1-1.6,1.1-2.6s-.4-1.9-1.1-2.6c-.7-.7-1.6-1.1-2.6-1.1s-1.9.4-2.6,1.1c-.7.7-1.1,1.6-1.1,2.6s.4,1.9,1.1,2.6c.7.7,1.6,1.1,2.6,1.1Z"/>
      <path id="m8f89401cc75" data-name="m8f89401cc7" class="st8" d="M324.3,459c1,0,1.9-.4,2.6-1.1.7-.7,1.1-1.6,1.1-2.6s-.4-1.9-1.1-2.6c-.7-.7-1.6-1.1-2.6-1.1s-1.9.4-2.6,1.1c-.7.7-1.1,1.6-1.1,2.6s.4,1.9,1.1,2.6c.7.7,1.6,1.1,2.6,1.1Z"/>
      <path id="m8f89401cc76" data-name="m8f89401cc7" class="st8" d="M376.4,459c1,0,1.9-.4,2.6-1.1.7-.7,1.1-1.6,1.1-2.6s-.4-1.9-1.1-2.6c-.7-.7-1.6-1.1-2.6-1.1s-1.9.4-2.6,1.1c-.7.7-1.1,1.6-1.1,2.6s.4,1.9,1.1,2.6c.7.7,1.6,1.1,2.6,1.1Z"/>
      <path id="m8f89401cc77" data-name="m8f89401cc7" class="st8" d="M272.2,367.8c1,0,1.9-.4,2.6-1.1.7-.7,1.1-1.6,1.1-2.6s-.4-1.9-1.1-2.6c-.7-.7-1.6-1.1-2.6-1.1s-1.9.4-2.6,1.1c-.7.7-1.1,1.6-1.1,2.6s.4,1.9,1.1,2.6c.7.7,1.6,1.1,2.6,1.1Z"/>
      <path id="m8f89401cc78" data-name="m8f89401cc7" class="st8" d="M324.3,367.8c1,0,1.9-.4,2.6-1.1.7-.7,1.1-1.6,1.1-2.6s-.4-1.9-1.1-2.6c-.7-.7-1.6-1.1-2.6-1.1s-1.9.4-2.6,1.1c-.7.7-1.1,1.6-1.1,2.6s.4,1.9,1.1,2.6c.7.7,1.6,1.1,2.6,1.1Z"/>
      <path id="m8f89401cc79" data-name="m8f89401cc7" class="st8" d="M220.2,276.7c1,0,1.9-.4,2.6-1.1.7-.7,1.1-1.6,1.1-2.6s-.4-1.9-1.1-2.6c-.7-.7-1.6-1.1-2.6-1.1s-1.9.4-2.6,1.1c-.7.7-1.1,1.6-1.1,2.6s.4,1.9,1.1,2.6c.7.7,1.6,1.1,2.6,1.1Z"/>
      <path id="m8f89401cc710" data-name="m8f89401cc7" class="st8" d="M272.2,276.7c1,0,1.9-.4,2.6-1.1.7-.7,1.1-1.6,1.1-2.6s-.4-1.9-1.1-2.6c-.7-.7-1.6-1.1-2.6-1.1s-1.9.4-2.6,1.1c-.7.7-1.1,1.6-1.1,2.6s.4,1.9,1.1,2.6c.7.7,1.6,1.1,2.6,1.1Z"/>
      <path id="m8f89401cc711" data-name="m8f89401cc7" class="st8" d="M220.2,185.6c1,0,1.9-.4,2.6-1.1.7-.7,1.1-1.6,1.1-2.6s-.4-1.9-1.1-2.6c-.7-.7-1.6-1.1-2.6-1.1s-1.9.4-2.6,1.1c-.7.7-1.1,1.6-1.1,2.6s.4,1.9,1.1,2.6c.7.7,1.6,1.1,2.6,1.1Z"/>
      <path id="m8f89401cc712" data-name="m8f89401cc7" class="st8" d="M428.4,459c1,0,1.9-.4,2.6-1.1.7-.7,1.1-1.6,1.1-2.6s-.4-1.9-1.1-2.6c-.7-.7-1.6-1.1-2.6-1.1s-1.9.4-2.6,1.1c-.7.7-1.1,1.6-1.1,2.6s.4,1.9,1.1,2.6c.7.7,1.6,1.1,2.6,1.1Z"/>
      <path id="m8f89401cc713" data-name="m8f89401cc7" class="st8" d="M480.5,459c1,0,1.9-.4,2.6-1.1.7-.7,1.1-1.6,1.1-2.6s-.4-1.9-1.1-2.6c-.7-.7-1.6-1.1-2.6-1.1s-1.9.4-2.6,1.1c-.7.7-1.1,1.6-1.1,2.6s.4,1.9,1.1,2.6c.7.7,1.6,1.1,2.6,1.1Z"/>
      <path id="m8f89401cc714" data-name="m8f89401cc7" class="st8" d="M376.4,367.8c1,0,1.9-.4,2.6-1.1.7-.7,1.1-1.6,1.1-2.6s-.4-1.9-1.1-2.6c-.7-.7-1.6-1.1-2.6-1.1s-1.9.4-2.6,1.1c-.7.7-1.1,1.6-1.1,2.6s.4,1.9,1.1,2.6c.7.7,1.6,1.1,2.6,1.1Z"/>
      <path id="m8f89401cc715" data-name="m8f89401cc7" class="st8" d="M428.4,367.8c1,0,1.9-.4,2.6-1.1.7-.7,1.1-1.6,1.1-2.6s-.4-1.9-1.1-2.6c-.7-.7-1.6-1.1-2.6-1.1s-1.9.4-2.6,1.1c-.7.7-1.1,1.6-1.1,2.6s.4,1.9,1.1,2.6c.7.7,1.6,1.1,2.6,1.1Z"/>
      <path id="m8f89401cc716" data-name="m8f89401cc7" class="st8" d="M324.3,276.7c1,0,1.9-.4,2.6-1.1.7-.7,1.1-1.6,1.1-2.6s-.4-1.9-1.1-2.6c-.7-.7-1.6-1.1-2.6-1.1s-1.9.4-2.6,1.1c-.7.7-1.1,1.6-1.1,2.6s.4,1.9,1.1,2.6c.7.7,1.6,1.1,2.6,1.1Z"/>
      <path id="m8f89401cc717" data-name="m8f89401cc7" class="st8" d="M376.4,276.7c1,0,1.9-.4,2.6-1.1.7-.7,1.1-1.6,1.1-2.6s-.4-1.9-1.1-2.6c-.7-.7-1.6-1.1-2.6-1.1s-1.9.4-2.6,1.1c-.7.7-1.1,1.6-1.1,2.6s.4,1.9,1.1,2.6c.7.7,1.6,1.1,2.6,1.1Z"/>
      <path id="m8f89401cc718" data-name="m8f89401cc7" class="st8" d="M272.2,185.6c1,0,1.9-.4,2.6-1.1.7-.7,1.1-1.6,1.1-2.6s-.4-1.9-1.1-2.6c-.7-.7-1.6-1.1-2.6-1.1s-1.9.4-2.6,1.1c-.7.7-1.1,1.6-1.1,2.6s.4,1.9,1.1,2.6c.7.7,1.6,1.1,2.6,1.1Z"/>
      <path id="m8f89401cc719" data-name="m8f89401cc7" class="st8" d="M324.3,185.6c1,0,1.9-.4,2.6-1.1.7-.7,1.1-1.6,1.1-2.6s-.4-1.9-1.1-2.6c-.7-.7-1.6-1.1-2.6-1.1s-1.9.4-2.6,1.1c-.7.7-1.1,1.6-1.1,2.6s.4,1.9,1.1,2.6c.7.7,1.6,1.1,2.6,1.1Z"/>
      <path id="m8f89401cc720" data-name="m8f89401cc7" class="st8" d="M480.5,367.8c1,0,1.9-.4,2.6-1.1.7-.7,1.1-1.6,1.1-2.6s-.4-1.9-1.1-2.6c-.7-.7-1.6-1.1-2.6-1.1s-1.9.4-2.6,1.1c-.7.7-1.1,1.6-1.1,2.6s.4,1.9,1.1,2.6c.7.7,1.6,1.1,2.6,1.1Z"/>
      <path id="m8f89401cc721" data-name="m8f89401cc7" class="st8" d="M532.5,367.8c1,0,1.9-.4,2.6-1.1.7-.7,1.1-1.6,1.1-2.6s-.4-1.9-1.1-2.6c-.7-.7-1.6-1.1-2.6-1.1s-1.9.4-2.6,1.1c-.7.7-1.1,1.6-1.1,2.6s.4,1.9,1.1,2.6c.7.7,1.6,1.1,2.6,1.1Z"/>
      <path id="m8f89401cc722" data-name="m8f89401cc7" class="st8" d="M428.4,276.7c1,0,1.9-.4,2.6-1.1.7-.7,1.1-1.6,1.1-2.6s-.4-1.9-1.1-2.6c-.7-.7-1.6-1.1-2.6-1.1s-1.9.4-2.6,1.1c-.7.7-1.1,1.6-1.1,2.6s.4,1.9,1.1,2.6c.7.7,1.6,1.1,2.6,1.1Z"/>
      <path id="m8f89401cc723" data-name="m8f89401cc7" class="st8" d="M480.5,276.7c1,0,1.9-.4,2.6-1.1.7-.7,1.1-1.6,1.1-2.6s-.4-1.9-1.1-2.6c-.7-.7-1.6-1.1-2.6-1.1s-1.9.4-2.6,1.1c-.7.7-1.1,1.6-1.1,2.6s.4,1.9,1.1,2.6c.7.7,1.6,1.1,2.6,1.1Z"/>
      <path id="m8f89401cc724" data-name="m8f89401cc7" class="st8" d="M376.4,185.6c1,0,1.9-.4,2.6-1.1.7-.7,1.1-1.6,1.1-2.6s-.4-1.9-1.1-2.6c-.7-.7-1.6-1.1-2.6-1.1s-1.9.4-2.6,1.1c-.7.7-1.1,1.6-1.1,2.6s.4,1.9,1.1,2.6c.7.7,1.6,1.1,2.6,1.1Z"/>
      <path id="m8f89401cc725" data-name="m8f89401cc7" class="st8" d="M428.4,185.6c1,0,1.9-.4,2.6-1.1.7-.7,1.1-1.6,1.1-2.6s-.4-1.9-1.1-2.6c-.7-.7-1.6-1.1-2.6-1.1s-1.9.4-2.6,1.1c-.7.7-1.1,1.6-1.1,2.6s.4,1.9,1.1,2.6c.7.7,1.6,1.1,2.6,1.1Z"/>
      <path id="m8f89401cc726" data-name="m8f89401cc7" class="st8" d="M532.5,276.7c1,0,1.9-.4,2.6-1.1.7-.7,1.1-1.6,1.1-2.6s-.4-1.9-1.1-2.6c-.7-.7-1.6-1.1-2.6-1.1s-1.9.4-2.6,1.1c-.7.7-1.1,1.6-1.1,2.6s.4,1.9,1.1,2.6c.7.7,1.6,1.1,2.6,1.1Z"/>
      <path id="m8f89401cc727" data-name="m8f89401cc7" class="st8" d="M480.5,185.6c1,0,1.9-.4,2.6-1.1.7-.7,1.1-1.6,1.1-2.6s-.4-1.9-1.1-2.6c-.7-.7-1.6-1.1-2.6-1.1s-1.9.4-2.6,1.1c-.7.7-1.1,1.6-1.1,2.6s.4,1.9,1.1,2.6c.7.7,1.6,1.1,2.6,1.1Z"/>
    </g>
  </g>
  <g class="st22">
    <g>
      <path id="mcf2becd0ea" class="st6" d="M246.2,436.3l-3.7,7.4h7.4l-3.7-7.4Z"/>
      <path id="mcf2becd0ea1" data-name="mcf2becd0ea" class="st6" d="M298.3,466.7l-3.7,7.4h7.4l-3.7-7.4Z"/>
      <path id="mcf2becd0ea2" data-name="mcf2becd0ea" class="st6" d="M194.1,345.2l-3.7,7.4h7.4l-3.7-7.4Z"/>
      <path id="mcf2becd0ea3" data-name="mcf2becd0ea" class="st6" d="M246.2,375.6l-3.7,7.4h7.4l-3.7-7.4Z"/>
      <path id="mcf2becd0ea4" data-name="mcf2becd0ea" class="st6" d="M194.1,284.5l-3.7,7.4h7.4l-3.7-7.4Z"/>
      <path id="mcf2becd0ea5" data-name="mcf2becd0ea" class="st6" d="M350.3,436.3l-3.7,7.4h7.4l-3.7-7.4Z"/>
      <path id="mcf2becd0ea6" data-name="mcf2becd0ea" class="st6" d="M402.4,466.7l-3.7,7.4h7.4l-3.7-7.4Z"/>
      <path id="mcf2becd0ea7" data-name="mcf2becd0ea" class="st6" d="M298.3,345.2l-3.7,7.4h7.4l-3.7-7.4Z"/>
      <path id="mcf2becd0ea8" data-name="mcf2becd0ea" class="st6" d="M350.3,375.6l-3.7,7.4h7.4l-3.7-7.4Z"/>
      <path id="mcf2becd0ea9" data-name="mcf2becd0ea" class="st6" d="M246.2,254.1l-3.7,7.4h7.4l-3.7-7.4Z"/>
      <path id="mcf2becd0ea10" data-name="mcf2becd0ea" class="st6" d="M298.3,284.5l-3.7,7.4h7.4l-3.7-7.4Z"/>
      <path id="mcf2becd0ea11" data-name="mcf2becd0ea" class="st6" d="M246.2,193.4l-3.7,7.4h7.4l-3.7-7.4Z"/>
      <path id="mcf2becd0ea12" data-name="mcf2becd0ea" class="st6" d="M454.5,436.3l-3.7,7.4h7.4l-3.7-7.4Z"/>
      <path id="mcf2becd0ea13" data-name="mcf2becd0ea" class="st6" d="M402.4,345.2l-3.7,7.4h7.4l-3.7-7.4Z"/>
      <path id="mcf2becd0ea14" data-name="mcf2becd0ea" class="st6" d="M454.5,375.6l-3.7,7.4h7.4l-3.7-7.4Z"/>
      <path id="mcf2becd0ea15" data-name="mcf2becd0ea" class="st6" d="M350.3,254.1l-3.7,7.4h7.4l-3.7-7.4Z"/>
      <path id="mcf2becd0ea16" data-name="mcf2becd0ea" class="st6" d="M402.4,284.5l-3.7,7.4h7.4l-3.7-7.4Z"/>
      <path id="mcf2becd0ea17" data-name="mcf2becd0ea" class="st6" d="M298.3,163l-3.7,7.4h7.4l-3.7-7.4Z"/>
      <path id="mcf2becd0ea18" data-name="mcf2becd0ea" class="st6" d="M350.3,193.4l-3.7,7.4h7.4l-3.7-7.4Z"/>
      <path id="mcf2becd0ea19" data-name="mcf2becd0ea" class="st6" d="M506.5,345.2l-3.7,7.4h7.4l-3.7-7.4Z"/>
      <path id="mcf2becd0ea20" data-name="mcf2becd0ea" class="st6" d="M454.5,254.1l-3.7,7.4h7.4l-3.7-7.4Z"/>
      <path id="mcf2becd0ea21" data-name="mcf2becd0ea" class="st6" d="M506.5,284.5l-3.7,7.4h7.4l-3.7-7.4Z"/>
      <path id="mcf2becd0ea22" data-name="mcf2becd0ea" class="st6" d="M402.4,163l-3.7,7.4h7.4l-3.7-7.4Z"/>
      <path id="mcf2becd0ea23" data-name="mcf2becd0ea" class="st6" d="M454.5,193.4l-3.7,7.4h7.4l-3.7-7.4Z"/>
    </g>
  </g>
  <g class="st23">
    <g>
      <path id="m092b99b63b" class="st10" d="M241.4,505.5h9.5v-9.5h-9.5v9.5Z"/>
      <path id="m092b99b63b1" data-name="m092b99b63b" class="st10" d="M189.4,414.4h9.5v-9.5h-9.5v9.5Z"/>
      <path id="m092b99b63b2" data-name="m092b99b63b" class="st10" d="M137.3,323.3h9.5v-9.5h-9.5v9.5Z"/>
      <path id="m092b99b63b3" data-name="m092b99b63b" class="st10" d="M345.6,505.5h9.5v-9.5h-9.5v9.5Z"/>
      <path id="m092b99b63b4" data-name="m092b99b63b" class="st10" d="M293.5,414.4h9.5v-9.5h-9.5v9.5Z"/>
      <path id="m092b99b63b5" data-name="m092b99b63b" class="st10" d="M241.4,323.3h9.5v-9.5h-9.5v9.5Z"/>
      <path id="m092b99b63b6" data-name="m092b99b63b" class="st10" d="M189.4,232.2h9.5v-9.5h-9.5v9.5Z"/>
      <path id="m092b99b63b7" data-name="m092b99b63b" class="st10" d="M449.7,505.5h9.5v-9.5h-9.5v9.5Z"/>
      <path id="m092b99b63b8" data-name="m092b99b63b" class="st10" d="M397.6,414.4h9.5v-9.5h-9.5v9.5Z"/>
      <path id="m092b99b63b9" data-name="m092b99b63b" class="st10" d="M345.6,323.3h9.5v-9.5h-9.5v9.5Z"/>
      <path id="m092b99b63b10" data-name="m092b99b63b" class="st10" d="M293.5,232.2h9.5v-9.5h-9.5v9.5Z"/>
      <path id="m092b99b63b11" data-name="m092b99b63b" class="st10" d="M241.4,141.1h9.5v-9.5h-9.5v9.5Z"/>
      <path id="m092b99b63b12" data-name="m092b99b63b" class="st10" d="M501.8,414.4h9.5v-9.5h-9.5v9.5Z"/>
      <path id="m092b99b63b13" data-name="m092b99b63b" class="st10" d="M449.7,323.3h9.5v-9.5h-9.5v9.5Z"/>
      <path id="m092b99b63b14" data-name="m092b99b63b" class="st10" d="M397.6,232.2h9.5v-9.5h-9.5v9.5Z"/>
      <path id="m092b99b63b15" data-name="m092b99b63b" class="st10" d="M345.6,141.1h9.5v-9.5h-9.5v9.5Z"/>
      <path id="m092b99b63b16" data-name="m092b99b63b" class="st10" d="M553.8,323.3h9.5v-9.5h-9.5v9.5Z"/>
      <path id="m092b99b63b17" data-name="m092b99b63b" class="st10" d="M501.8,232.2h9.5v-9.5h-9.5v9.5Z"/>
      <path id="m092b99b63b18" data-name="m092b99b63b" class="st10" d="M449.7,141.1h9.5v-9.5h-9.5v9.5Z"/>
    </g>
  </g>
  <g id="patch_26">
    <path class="st3" d="M498.7,125.2h132.2c1.2,0,1.8-.6,1.8-1.8V58.3c0-1.2-.6-1.8-1.8-1.8h-132.2c-1.2,0-1.8.6-1.8,1.8v65.2c0,1.2.6,1.8,1.8,1.8Z"/>
  </g>
  <g id="PathCollection_5">
    <path id="m092b99b63b19" data-name="m092b99b63b" class="st10" d="M504.7,69.3h9.5v-9.5h-9.5v9.5Z"/>
  </g>
  <g id="text_41">
    <g>
      <path id="DejaVuSans-4e" d="M526.6,60.4h1.2l2.9,5.5v-5.5h.9v6.6h-1.2l-2.9-5.5v5.5h-.9v-6.6Z"/>
      <path id="DejaVuSans-6f" d="M535.2,62.6c-.4,0-.8.2-1,.5s-.4.8-.4,1.4.1,1.1.4,1.4c.3.3.6.5,1,.5s.8-.2,1-.5c.3-.3.4-.8.4-1.4s-.1-1-.4-1.4c-.3-.3-.6-.5-1-.5ZM535.2,61.9c.7,0,1.3.2,1.7.7.4.5.6,1.1.6,1.9s-.2,1.4-.6,1.9c-.4.5-1,.7-1.7.7s-1.3-.2-1.7-.7c-.4-.5-.6-1.1-.6-1.9s.2-1.4.6-1.9c.4-.5,1-.7,1.7-.7Z"/>
      <path id="DejaVuSans-6d4" data-name="DejaVuSans-6d" d="M542.6,63c.2-.4.4-.6.7-.8s.6-.3,1-.3.9.2,1.2.5c.3.4.4.9.4,1.5v3h-.8v-2.9c0-.5,0-.8-.3-1-.2-.2-.4-.3-.8-.3s-.8.1-1,.4c-.2.3-.4.7-.4,1.1v2.8h-.8v-2.9c0-.5,0-.8-.3-1.1s-.4-.3-.8-.3-.7.1-1,.4c-.2.3-.4.7-.4,1.1v2.8h-.8v-4.9h.8v.8c.2-.3.4-.5.7-.7s.6-.2.9-.2.7,0,.9.3c.3.2.4.4.6.8Z"/>
      <path id="DejaVuSans-69" d="M547.5,62h.8v4.9h-.8v-4.9ZM547.5,60.1h.8v1h-.8v-1Z"/>
      <path id="DejaVuSans-6e" d="M554.1,64v3h-.8v-2.9c0-.5,0-.8-.3-1-.2-.2-.5-.3-.8-.3s-.8.1-1,.4c-.3.3-.4.7-.4,1.1v2.8h-.8v-4.9h.8v.8c.2-.3.4-.5.7-.7.3-.1.6-.2.9-.2.6,0,1,.2,1.3.5.3.3.4.9.4,1.5Z"/>
      <path id="DejaVuSans-61" d="M558,64.5c-.7,0-1.1,0-1.4.2s-.4.4-.4.8,0,.5.3.7c.2.2.4.3.8.3s.8-.2,1.1-.5.4-.7.4-1.3v-.2h-.8ZM559.6,64.1v2.8h-.8v-.7c-.2.3-.4.5-.7.7-.3.1-.6.2-1,.2s-.9-.1-1.2-.4c-.3-.3-.4-.7-.4-1.1s.2-1,.6-1.3c.4-.3.9-.4,1.7-.4h1.1c0-.5-.1-.7-.4-.9s-.6-.3-1-.3-.6,0-.8.1c-.3,0-.5.2-.8.3v-.7c.3-.1.6-.2.9-.3.3,0,.5,0,.8,0,.7,0,1.2.2,1.6.6.4.4.5.9.5,1.7Z"/>
      <path id="DejaVuSans-6c" d="M561.2,60.1h.8v6.8h-.8v-6.8Z"/>
      <path id="DejaVuSans-202" data-name="DejaVuSans-20" d="M562.9,66.9"/>
      <path id="DejaVuSans-282" data-name="DejaVuSans-28" d="M568.5,60.1c-.4.7-.7,1.3-.9,2-.2.7-.3,1.3-.3,2s0,1.3.3,2,.5,1.3.9,2h-.7c-.4-.7-.8-1.4-1-2-.2-.7-.3-1.3-.3-2s.1-1.3.3-2c.2-.7.5-1.3,1-2h.7Z"/>
      <path id="DejaVuSans-311" data-name="DejaVuSans-31" d="M570.4,66.2h1.4v-5l-1.6.3v-.8l1.6-.3h.9v5.8h1.4v.7h-3.8v-.7Z"/>
      <path id="DejaVuSans-39" d="M576,66.8v-.8c.2.1.4.2.7.2.2,0,.5,0,.7,0,.6,0,1-.2,1.3-.6.3-.4.5-1,.5-1.8-.2.3-.4.4-.6.6-.3.1-.5.2-.9.2-.7,0-1.2-.2-1.6-.6-.4-.4-.6-.9-.6-1.6s.2-1.2.6-1.6c.4-.4.9-.6,1.6-.6s1.3.3,1.7.9c.4.6.6,1.4.6,2.5s-.2,1.9-.7,2.5c-.5.6-1.1.9-2,.9s-.4,0-.7,0c-.2,0-.5-.1-.7-.2ZM577.7,64c.4,0,.7-.1.9-.4.2-.3.4-.6.4-1.1s-.1-.8-.4-1.1c-.2-.3-.5-.4-.9-.4s-.7.1-.9.4c-.2.3-.3.6-.3,1.1s.1.8.3,1.1c.2.3.5.4.9.4Z"/>
      <path id="DejaVuSans-292" data-name="DejaVuSans-29" d="M581.4,60.1h.7c.4.7.8,1.4,1,2,.2.7.3,1.3.3,2s-.1,1.3-.3,2c-.2.7-.5,1.3-1,2h-.7c.4-.7.7-1.3.9-2,.2-.7.3-1.3.3-2s0-1.3-.3-2c-.2-.7-.5-1.3-.9-2Z"/>
    </g>
  </g>
  <g id="PathCollection_6">
    <path id="m866b84cb4514" data-name="m866b84cb45" class="st7" d="M509.5,81.5c1,0,1.9-.4,2.6-1.1.7-.7,1.1-1.6,1.1-2.6s-.4-1.9-1.1-2.6c-.7-.7-1.6-1.1-2.6-1.1s-1.9.4-2.6,1.1c-.7.7-1.1,1.6-1.1,2.6s.4,1.9,1.1,2.6c.7.7,1.6,1.1,2.6,1.1Z"/>
  </g>
  <g id="text_42">
    <g>
      <path id="DejaVuSans-48" d="M526.6,73.6h.9v2.7h3.2v-2.7h.9v6.6h-.9v-3.1h-3.2v3.1h-.9v-6.6Z"/>
      <path id="DejaVuSans-6f1" data-name="DejaVuSans-6f" d="M535.2,75.8c-.4,0-.8.2-1,.5s-.4.8-.4,1.4.1,1.1.4,1.4c.3.3.6.5,1,.5s.8-.2,1-.5c.3-.3.4-.8.4-1.4s-.1-1-.4-1.4c-.3-.3-.6-.5-1-.5ZM535.2,75.1c.7,0,1.3.2,1.7.7.4.5.6,1.1.6,1.9s-.2,1.4-.6,1.9c-.4.5-1,.7-1.7.7s-1.3-.2-1.7-.7c-.4-.5-.6-1.1-.6-1.9s.2-1.4.6-1.9c.4-.5,1-.7,1.7-.7Z"/>
      <path id="DejaVuSans-72" d="M541.6,76c0,0-.2,0-.3-.1-.1,0-.2,0-.4,0-.5,0-.8.1-1.1.4s-.4.7-.4,1.3v2.6h-.8v-4.9h.8v.8c.2-.3.4-.5.7-.7.3-.1.6-.2,1-.2s.1,0,.2,0c0,0,.1,0,.2,0v.8Z"/>
      <path id="DejaVuSans-691" data-name="DejaVuSans-69" d="M542.5,75.2h.8v4.9h-.8v-4.9ZM542.5,73.3h.8v1h-.8v-1Z"/>
      <path id="DejaVuSans-7a" d="M544.6,75.2h3.8v.7l-3,3.5h3v.6h-4v-.7l3-3.5h-2.9v-.6Z"/>
      <path id="DejaVuSans-6f2" data-name="DejaVuSans-6f" d="M551.6,75.8c-.4,0-.8.2-1,.5s-.4.8-.4,1.4.1,1.1.4,1.4c.3.3.6.5,1,.5s.8-.2,1-.5c.3-.3.4-.8.4-1.4s-.1-1-.4-1.4c-.3-.3-.6-.5-1-.5ZM551.6,75.1c.7,0,1.3.2,1.7.7.4.5.6,1.1.6,1.9s-.2,1.4-.6,1.9c-.4.5-1,.7-1.7.7s-1.3-.2-1.7-.7c-.4-.5-.6-1.1-.6-1.9s.2-1.4.6-1.9c.4-.5,1-.7,1.7-.7Z"/>
      <path id="DejaVuSans-6e1" data-name="DejaVuSans-6e" d="M559.3,77.2v3h-.8v-2.9c0-.5,0-.8-.3-1-.2-.2-.5-.3-.8-.3s-.8.1-1,.4c-.3.3-.4.7-.4,1.1v2.8h-.8v-4.9h.8v.8c.2-.3.4-.5.7-.7.3-.1.6-.2.9-.2.6,0,1,.2,1.3.5.3.3.4.9.4,1.5Z"/>
      <path id="DejaVuSans-74" d="M561.7,73.8v1.4h1.7v.6h-1.7v2.7c0,.4,0,.7.2.8s.3.2.7.2h.8v.7h-.8c-.6,0-1.1-.1-1.3-.3-.2-.2-.4-.7-.4-1.3v-2.7h-.6v-.6h.6v-1.4h.8Z"/>
      <path id="DejaVuSans-611" data-name="DejaVuSans-61" d="M566.7,77.7c-.7,0-1.1,0-1.4.2s-.4.4-.4.8,0,.5.3.7c.2.2.4.3.8.3s.8-.2,1.1-.5.4-.7.4-1.3v-.2h-.8ZM568.3,77.3v2.8h-.8v-.7c-.2.3-.4.5-.7.7-.3.1-.6.2-1,.2s-.9-.1-1.2-.4c-.3-.3-.4-.7-.4-1.1s.2-1,.6-1.3c.4-.3.9-.4,1.7-.4h1.1c0-.5-.1-.7-.4-.9s-.6-.3-1-.3-.6,0-.8.1c-.3,0-.5.2-.8.3v-.7c.3-.1.6-.2.9-.3.3,0,.5,0,.8,0,.7,0,1.2.2,1.6.6.4.4.5.9.5,1.7Z"/>
      <path id="DejaVuSans-6c1" data-name="DejaVuSans-6c" d="M570,73.3h.8v6.8h-.8v-6.8Z"/>
      <path id="DejaVuSans-203" data-name="DejaVuSans-20" d="M571.6,80.1"/>
      <path id="DejaVuSans-283" data-name="DejaVuSans-28" d="M577.3,73.3c-.4.7-.7,1.3-.9,2-.2.7-.3,1.3-.3,2s0,1.3.3,2,.5,1.3.9,2h-.7c-.4-.7-.8-1.4-1-2-.2-.7-.3-1.3-.3-2s.1-1.3.3-2c.2-.7.5-1.3,1-2h.7Z"/>
      <path id="DejaVuSans-312" data-name="DejaVuSans-31" d="M579.1,79.4h1.4v-5l-1.6.3v-.8l1.6-.3h.9v5.8h1.4v.7h-3.8v-.7Z"/>
      <path id="DejaVuSans-34" d="M587.1,74.4l-2.2,3.5h2.2v-3.5ZM586.9,73.6h1.1v4.3h.9v.7h-.9v1.5h-.9v-1.5h-3v-.9l2.7-4.2Z"/>
      <path id="DejaVuSans-293" data-name="DejaVuSans-29" d="M590.2,73.3h.7c.4.7.8,1.4,1,2,.2.7.3,1.3.3,2s-.1,1.3-.3,2c-.2.7-.5,1.3-1,2h-.7c.4-.7.7-1.3.9-2,.2-.7.3-1.3.3-2s0-1.3-.3-2c-.2-.7-.5-1.3-.9-2Z"/>
    </g>
  </g>
  <g id="PathCollection_7">
    <path id="m8f89401cc728" data-name="m8f89401cc7" class="st8" d="M509.5,94.7c1,0,1.9-.4,2.6-1.1.7-.7,1.1-1.6,1.1-2.6s-.4-1.9-1.1-2.6c-.7-.7-1.6-1.1-2.6-1.1s-1.9.4-2.6,1.1c-.7.7-1.1,1.6-1.1,2.6s.4,1.9,1.1,2.6c.7.7,1.6,1.1,2.6,1.1Z"/>
  </g>
  <g id="text_43">
    <g>
      <path id="DejaVuSans-44" d="M527.4,87.5v5.1h1.1c.9,0,1.6-.2,2-.6.4-.4.6-1.1.6-1.9s-.2-1.5-.6-1.9-1.1-.6-2-.6h-1.1ZM526.6,86.8h1.8c1.3,0,2.2.3,2.8.8.6.5.9,1.4.9,2.5s-.3,2-.9,2.5c-.6.5-1.5.8-2.8.8h-1.8v-6.6Z"/>
      <path id="DejaVuSans-692" data-name="DejaVuSans-69" d="M533.4,88.4h.8v4.9h-.8v-4.9ZM533.4,86.5h.8v1h-.8v-1Z"/>
      <path id="DejaVuSans-612" data-name="DejaVuSans-61" d="M538.2,90.9c-.7,0-1.1,0-1.4.2s-.4.4-.4.8,0,.5.3.7c.2.2.4.3.8.3s.8-.2,1.1-.5.4-.7.4-1.3v-.2h-.8ZM539.8,90.5v2.8h-.8v-.7c-.2.3-.4.5-.7.7-.3.1-.6.2-1,.2s-.9-.1-1.2-.4c-.3-.3-.4-.7-.4-1.1s.2-1,.6-1.3c.4-.3.9-.4,1.7-.4h1.1c0-.5-.1-.7-.4-.9s-.6-.3-1-.3-.6,0-.8.1c-.3,0-.5.2-.8.3v-.7c.3-.1.6-.2.9-.3.3,0,.5,0,.8,0,.7,0,1.2.2,1.6.6.4.4.5.9.5,1.7Z"/>
      <path id="DejaVuSans-67" d="M544.7,90.8c0-.6-.1-1-.4-1.4-.2-.3-.6-.5-1-.5s-.8.2-1,.5c-.2.3-.4.8-.4,1.4s.1,1,.4,1.4c.2.3.6.5,1,.5s.8-.2,1-.5c.2-.3.4-.8.4-1.4ZM545.5,92.7c0,.8-.2,1.5-.6,1.9-.4.4-.9.6-1.7.6s-.6,0-.8,0-.5-.1-.7-.2v-.8c.2.1.5.2.7.3.2,0,.5,0,.7,0,.5,0,.9-.1,1.2-.4.3-.3.4-.7.4-1.3v-.4c-.2.3-.4.5-.6.7s-.6.2-.9.2c-.6,0-1.1-.2-1.5-.7-.4-.5-.6-1.1-.6-1.8s.2-1.4.6-1.8c.4-.5.9-.7,1.5-.7s.7,0,.9.2.5.4.6.6v-.7h.8v4.3Z"/>
      <path id="DejaVuSans-6f3" data-name="DejaVuSans-6f" d="M549.1,89c-.4,0-.8.2-1,.5s-.4.8-.4,1.4.1,1.1.4,1.4c.3.3.6.5,1,.5s.8-.2,1-.5c.3-.3.4-.8.4-1.4s-.1-1-.4-1.4c-.3-.3-.6-.5-1-.5ZM549.1,88.3c.7,0,1.3.2,1.7.7.4.5.6,1.1.6,1.9s-.2,1.4-.6,1.9c-.4.5-1,.7-1.7.7s-1.3-.2-1.7-.7c-.4-.5-.6-1.1-.6-1.9s.2-1.4.6-1.9c.4-.5,1-.7,1.7-.7Z"/>
      <path id="DejaVuSans-6e2" data-name="DejaVuSans-6e" d="M556.8,90.4v3h-.8v-2.9c0-.5,0-.8-.3-1-.2-.2-.5-.3-.8-.3s-.8.1-1,.4c-.3.3-.4.7-.4,1.1v2.8h-.8v-4.9h.8v.8c.2-.3.4-.5.7-.7.3-.1.6-.2.9-.2.6,0,1,.2,1.3.5.3.3.4.9.4,1.5Z"/>
      <path id="DejaVuSans-613" data-name="DejaVuSans-61" d="M560.6,90.9c-.7,0-1.1,0-1.4.2s-.4.4-.4.8,0,.5.3.7c.2.2.4.3.8.3s.8-.2,1.1-.5.4-.7.4-1.3v-.2h-.8ZM562.2,90.5v2.8h-.8v-.7c-.2.3-.4.5-.7.7-.3.1-.6.2-1,.2s-.9-.1-1.2-.4c-.3-.3-.4-.7-.4-1.1s.2-1,.6-1.3c.4-.3.9-.4,1.7-.4h1.1c0-.5-.1-.7-.4-.9s-.6-.3-1-.3-.6,0-.8.1c-.3,0-.5.2-.8.3v-.7c.3-.1.6-.2.9-.3.3,0,.5,0,.8,0,.7,0,1.2.2,1.6.6.4.4.5.9.5,1.7Z"/>
      <path id="DejaVuSans-6c2" data-name="DejaVuSans-6c" d="M563.9,86.5h.8v6.8h-.8v-6.8Z"/>
      <path id="DejaVuSans-204" data-name="DejaVuSans-20" d="M565.6,93.3"/>
      <path id="DejaVuSans-284" data-name="DejaVuSans-28" d="M571.2,86.5c-.4.7-.7,1.3-.9,2-.2.7-.3,1.3-.3,2s0,1.3.3,2,.5,1.3.9,2h-.7c-.4-.7-.8-1.4-1-2-.2-.7-.3-1.3-.3-2s.1-1.3.3-2c.2-.7.5-1.3,1-2h.7Z"/>
      <path id="DejaVuSans-32" d="M573.7,92.6h3.1v.7h-4.2v-.7c.3-.3.8-.8,1.4-1.4.6-.6.9-1,1.1-1.1.3-.3.5-.6.6-.8.1-.2.2-.4.2-.7,0-.3-.1-.6-.4-.9-.2-.2-.6-.3-1-.3s-.6,0-.9.1c-.3,0-.6.2-1,.4v-.9c.4-.1.7-.3,1-.3.3,0,.6-.1.9-.1.7,0,1.2.2,1.6.5.4.3.6.8.6,1.4s0,.5-.2.8c-.1.2-.3.5-.6.9,0,0-.3.3-.7.7-.4.4-.9,1-1.7,1.7Z"/>
      <path id="DejaVuSans-38" d="M580.5,90.2c-.4,0-.8.1-1,.3-.2.2-.4.5-.4.9s.1.7.4.9c.2.2.6.3,1,.3s.8-.1,1-.3c.2-.2.4-.5.4-.9s-.1-.7-.4-.9c-.2-.2-.6-.3-1-.3ZM579.6,89.9c-.4,0-.7-.3-.9-.5-.2-.3-.3-.6-.3-1s.2-.9.6-1.2c.4-.3.9-.5,1.5-.5s1.2.2,1.5.5.6.7.6,1.2-.1.7-.3,1c-.2.3-.5.4-.9.5.4,0,.8.3,1,.6.2.3.4.6.4,1.1,0,.6-.2,1.1-.6,1.5-.4.3-.9.5-1.7.5s-1.3-.2-1.7-.5c-.4-.3-.6-.8-.6-1.5s.1-.8.4-1.1c.2-.3.6-.5,1-.6ZM579.3,88.5c0,.3.1.6.3.8.2.2.5.3.9.3s.7,0,.9-.3c.2-.2.3-.5.3-.8s-.1-.6-.3-.8c-.2-.2-.5-.3-.9-.3s-.7,0-.9.3c-.2.2-.3.5-.3.8Z"/>
      <path id="DejaVuSans-294" data-name="DejaVuSans-29" d="M584.1,86.5h.7c.4.7.8,1.4,1,2,.2.7.3,1.3.3,2s-.1,1.3-.3,2c-.2.7-.5,1.3-1,2h-.7c.4-.7.7-1.3.9-2,.2-.7.3-1.3.3-2s0-1.3-.3-2c-.2-.7-.5-1.3-.9-2Z"/>
    </g>
  </g>
  <g id="PathCollection_8">
    <path id="mcf2becd0ea24" data-name="mcf2becd0ea" class="st6" d="M509.5,100.5l-3.7,7.4h7.4l-3.7-7.4Z"/>
  </g>
  <g id="text_44">
    <g>
      <path id="DejaVuSans-54" d="M525.6,100h5.6v.7h-2.3v5.8h-.9v-5.8h-2.3v-.7Z"/>
      <path id="DejaVuSans-721" data-name="DejaVuSans-72" d="M533.5,102.4c0,0-.2,0-.3-.1-.1,0-.2,0-.4,0-.5,0-.8.1-1.1.4s-.4.7-.4,1.3v2.6h-.8v-4.9h.8v.8c.2-.3.4-.5.7-.7.3-.1.6-.2,1-.2s.1,0,.2,0c0,0,.1,0,.2,0v.8Z"/>
      <path id="DejaVuSans-693" data-name="DejaVuSans-69" d="M534.4,101.6h.8v4.9h-.8v-4.9ZM534.4,99.7h.8v1h-.8v-1Z"/>
      <path id="DejaVuSans-614" data-name="DejaVuSans-61" d="M539.1,104.1c-.7,0-1.1,0-1.4.2s-.4.4-.4.8,0,.5.3.7c.2.2.4.3.8.3s.8-.2,1.1-.5.4-.7.4-1.3v-.2h-.8ZM540.7,103.8v2.8h-.8v-.7c-.2.3-.4.5-.7.7-.3.1-.6.2-1,.2s-.9-.1-1.2-.4c-.3-.3-.4-.7-.4-1.1s.2-1,.6-1.3c.4-.3.9-.4,1.7-.4h1.1c0-.5-.1-.7-.4-.9s-.6-.3-1-.3-.6,0-.8.1c-.3,0-.5.2-.8.3v-.7c.3-.1.6-.2.9-.3.3,0,.5,0,.8,0,.7,0,1.2.2,1.6.6.4.4.5.9.5,1.7Z"/>
      <path id="DejaVuSans-6e3" data-name="DejaVuSans-6e" d="M546.5,103.6v3h-.8v-2.9c0-.5,0-.8-.3-1-.2-.2-.5-.3-.8-.3s-.8.1-1,.4c-.3.3-.4.7-.4,1.1v2.8h-.8v-4.9h.8v.8c.2-.3.4-.5.7-.7.3-.1.6-.2.9-.2.6,0,1,.2,1.3.5.3.3.4.9.4,1.5Z"/>
      <path id="DejaVuSans-671" data-name="DejaVuSans-67" d="M551.3,104c0-.6-.1-1-.4-1.4-.2-.3-.6-.5-1-.5s-.8.2-1,.5c-.2.3-.4.8-.4,1.4s.1,1,.4,1.4c.2.3.6.5,1,.5s.8-.2,1-.5c.2-.3.4-.8.4-1.4ZM552.2,105.9c0,.8-.2,1.5-.6,1.9-.4.4-.9.6-1.7.6s-.6,0-.8,0-.5-.1-.7-.2v-.8c.2.1.5.2.7.3.2,0,.5,0,.7,0,.5,0,.9-.1,1.2-.4.3-.3.4-.7.4-1.3v-.4c-.2.3-.4.5-.6.7s-.6.2-.9.2c-.6,0-1.1-.2-1.5-.7-.4-.5-.6-1.1-.6-1.8s.2-1.4.6-1.8c.4-.5.9-.7,1.5-.7s.7,0,.9.2.5.4.6.6v-.7h.8v4.3Z"/>
      <path id="DejaVuSans-6c3" data-name="DejaVuSans-6c" d="M553.8,99.7h.8v6.8h-.8v-6.8Z"/>
      <path id="DejaVuSans-65" d="M560.5,103.9v.4h-3.7c0,.6.2,1,.5,1.3.3.3.7.4,1.3.4s.6,0,.9-.1.6-.2.9-.3v.8c-.3.1-.6.2-.9.3s-.6,0-.9,0c-.8,0-1.4-.2-1.9-.7-.5-.5-.7-1.1-.7-1.9s.2-1.4.7-1.9c.4-.5,1-.7,1.8-.7s1.2.2,1.6.6c.4.4.6,1,.6,1.7ZM559.7,103.7c0-.4-.1-.8-.4-1.1-.2-.3-.6-.4-1-.4s-.8.1-1.1.4-.4.6-.5,1.1h2.9Z"/>
      <path id="DejaVuSans-205" data-name="DejaVuSans-20" d="M561,106.6"/>
      <path id="DejaVuSans-63" d="M568.3,101.8v.8c-.2-.1-.5-.2-.7-.3s-.5,0-.7,0c-.5,0-.9.2-1.2.5-.3.3-.4.8-.4,1.4s.1,1.1.4,1.4c.3.3.7.5,1.2.5s.5,0,.7,0,.5-.2.7-.3v.7c-.2.1-.5.2-.7.2-.2,0-.5,0-.8,0-.7,0-1.3-.2-1.8-.7-.4-.5-.7-1.1-.7-1.9s.2-1.4.7-1.9c.4-.5,1-.7,1.8-.7s.5,0,.7,0c.2,0,.5.1.7.2Z"/>
      <path id="DejaVuSans-651" data-name="DejaVuSans-65" d="M573.9,103.9v.4h-3.7c0,.6.2,1,.5,1.3.3.3.7.4,1.3.4s.6,0,.9-.1.6-.2.9-.3v.8c-.3.1-.6.2-.9.3s-.6,0-.9,0c-.8,0-1.4-.2-1.9-.7-.5-.5-.7-1.1-.7-1.9s.2-1.4.7-1.9c.4-.5,1-.7,1.8-.7s1.2.2,1.6.6c.4.4.6,1,.6,1.7ZM573.1,103.7c0-.4-.1-.8-.4-1.1-.2-.3-.6-.4-1-.4s-.8.1-1.1.4-.4.6-.5,1.1h2.9Z"/>
      <path id="DejaVuSans-6e4" data-name="DejaVuSans-6e" d="M579.3,103.6v3h-.8v-2.9c0-.5,0-.8-.3-1-.2-.2-.5-.3-.8-.3s-.8.1-1,.4c-.3.3-.4.7-.4,1.1v2.8h-.8v-4.9h.8v.8c.2-.3.4-.5.7-.7.3-.1.6-.2.9-.2.6,0,1,.2,1.3.5.3.3.4.9.4,1.5Z"/>
      <path id="DejaVuSans-741" data-name="DejaVuSans-74" d="M581.7,100.2v1.4h1.7v.6h-1.7v2.7c0,.4,0,.7.2.8s.3.2.7.2h.8v.7h-.8c-.6,0-1.1-.1-1.3-.3-.2-.2-.4-.7-.4-1.3v-2.7h-.6v-.6h.6v-1.4h.8Z"/>
      <path id="DejaVuSans-722" data-name="DejaVuSans-72" d="M587.3,102.4c0,0-.2,0-.3-.1-.1,0-.2,0-.4,0-.5,0-.8.1-1.1.4s-.4.7-.4,1.3v2.6h-.8v-4.9h.8v.8c.2-.3.4-.5.7-.7.3-.1.6-.2,1-.2s.1,0,.2,0c0,0,.1,0,.2,0v.8Z"/>
      <path id="DejaVuSans-6f4" data-name="DejaVuSans-6f" d="M589.8,102.2c-.4,0-.8.2-1,.5s-.4.8-.4,1.4.1,1.1.4,1.4c.3.3.6.5,1,.5s.8-.2,1-.5c.3-.3.4-.8.4-1.4s-.1-1-.4-1.4c-.3-.3-.6-.5-1-.5ZM589.8,101.5c.7,0,1.3.2,1.7.7.4.5.6,1.1.6,1.9s-.2,1.4-.6,1.9c-.4.5-1,.7-1.7.7s-1.3-.2-1.7-.7c-.4-.5-.6-1.1-.6-1.9s.2-1.4.6-1.9c.4-.5,1-.7,1.7-.7Z"/>
      <path id="DejaVuSans-694" data-name="DejaVuSans-69" d="M593.4,101.6h.8v4.9h-.8v-4.9ZM593.4,99.7h.8v1h-.8v-1Z"/>
      <path id="DejaVuSans-64" d="M599.2,102.4v-2.7h.8v6.8h-.8v-.7c-.2.3-.4.5-.6.7-.3.1-.6.2-.9.2-.6,0-1.1-.2-1.5-.7-.4-.5-.6-1.1-.6-1.9s.2-1.4.6-1.9c.4-.5.9-.7,1.5-.7s.7,0,.9.2c.3.1.5.4.6.7ZM596.4,104.1c0,.6.1,1.1.4,1.4.2.3.6.5,1,.5s.8-.2,1-.5c.2-.3.4-.8.4-1.4s-.1-1.1-.4-1.4c-.2-.3-.6-.5-1-.5s-.8.2-1,.5-.4.8-.4,1.4Z"/>
      <path id="DejaVuSans-206" data-name="DejaVuSans-20" d="M600.8,106.6"/>
      <path id="DejaVuSans-285" data-name="DejaVuSans-28" d="M606.5,99.7c-.4.7-.7,1.3-.9,2-.2.7-.3,1.3-.3,2s0,1.3.3,2,.5,1.3.9,2h-.7c-.4-.7-.8-1.4-1-2-.2-.7-.3-1.3-.3-2s.1-1.3.3-2c.2-.7.5-1.3,1-2h.7Z"/>
      <path id="DejaVuSans-321" data-name="DejaVuSans-32" d="M608.9,105.8h3.1v.7h-4.2v-.7c.3-.3.8-.8,1.4-1.4.6-.6.9-1,1.1-1.1.3-.3.5-.6.6-.8.1-.2.2-.4.2-.7,0-.3-.1-.6-.4-.9-.2-.2-.6-.3-1-.3s-.6,0-.9.1c-.3,0-.6.2-1,.4v-.9c.4-.1.7-.3,1-.3.3,0,.6-.1.9-.1.7,0,1.2.2,1.6.5.4.3.6.8.6,1.4s0,.5-.2.8c-.1.2-.3.5-.6.9,0,0-.3.3-.7.7-.4.4-.9,1-1.7,1.7Z"/>
      <path id="DejaVuSans-341" data-name="DejaVuSans-34" d="M616.3,100.8l-2.2,3.5h2.2v-3.5ZM616.1,100h1.1v4.3h.9v.7h-.9v1.5h-.9v-1.5h-3v-.9l2.7-4.2Z"/>
      <path id="DejaVuSans-295" data-name="DejaVuSans-29" d="M619.4,99.7h.7c.4.7.8,1.4,1,2,.2.7.3,1.3.3,2s-.1,1.3-.3,2c-.2.7-.5,1.3-1,2h-.7c.4-.7.7-1.3.9-2,.2-.7.3-1.3.3-2s0-1.3-.3-2c-.2-.7-.5-1.3-.9-2Z"/>
    </g>
  </g>
  <g id="PathCollection_9">
    <path id="mfb95f312b2" class="st5" d="M505.3,121.6h8.4v-8.4h-8.4v8.4Z"/>
  </g>
  <g id="text_45">
    <g>
      <path id="DejaVuSans-41" d="M528.7,114.1l-1.2,3.3h2.4l-1.2-3.3ZM528.2,113.2h1l2.5,6.6h-.9l-.6-1.7h-3l-.6,1.7h-.9l2.5-6.6Z"/>
      <path id="DejaVuSans-631" data-name="DejaVuSans-63" d="M536.1,115v.8c-.2-.1-.5-.2-.7-.3s-.5,0-.7,0c-.5,0-.9.2-1.2.5-.3.3-.4.8-.4,1.4s.1,1.1.4,1.4c.3.3.7.5,1.2.5s.5,0,.7,0,.5-.2.7-.3v.7c-.2.1-.5.2-.7.2-.2,0-.5,0-.8,0-.7,0-1.3-.2-1.8-.7-.4-.5-.7-1.1-.7-1.9s.2-1.4.7-1.9c.4-.5,1-.7,1.8-.7s.5,0,.7,0c.2,0,.5.1.7.2Z"/>
      <path id="DejaVuSans-742" data-name="DejaVuSans-74" d="M538.3,113.5v1.4h1.7v.6h-1.7v2.7c0,.4,0,.7.2.8s.3.2.7.2h.8v.7h-.8c-.6,0-1.1-.1-1.3-.3-.2-.2-.4-.7-.4-1.3v-2.7h-.6v-.6h.6v-1.4h.8Z"/>
      <path id="DejaVuSans-75" d="M540.9,117.8v-3h.8v2.9c0,.5,0,.8.3,1,.2.2.5.3.8.3s.8-.1,1-.4c.3-.3.4-.7.4-1.1v-2.8h.8v4.9h-.8v-.8c-.2.3-.4.5-.7.7-.3.1-.6.2-.9.2-.6,0-1-.2-1.3-.5-.3-.4-.4-.9-.4-1.5ZM542.9,114.7h0Z"/>
      <path id="DejaVuSans-615" data-name="DejaVuSans-61" d="M548.9,117.3c-.7,0-1.1,0-1.4.2s-.4.4-.4.8,0,.5.3.7c.2.2.4.3.8.3s.8-.2,1.1-.5.4-.7.4-1.3v-.2h-.8ZM550.5,117v2.8h-.8v-.7c-.2.3-.4.5-.7.7-.3.1-.6.2-1,.2s-.9-.1-1.2-.4c-.3-.3-.4-.7-.4-1.1s.2-1,.6-1.3c.4-.3.9-.4,1.7-.4h1.1c0-.5-.1-.7-.4-.9s-.6-.3-1-.3-.6,0-.8.1c-.3,0-.5.2-.8.3v-.7c.3-.1.6-.2.9-.3.3,0,.5,0,.8,0,.7,0,1.2.2,1.6.6.4.4.5.9.5,1.7Z"/>
      <path id="DejaVuSans-6c4" data-name="DejaVuSans-6c" d="M552.2,112.9h.8v6.8h-.8v-6.8Z"/>
      <path id="DejaVuSans-207" data-name="DejaVuSans-20" d="M553.9,119.8"/>
      <path id="DejaVuSans-286" data-name="DejaVuSans-28" d="M559.5,112.9c-.4.7-.7,1.3-.9,2-.2.7-.3,1.3-.3,2s0,1.3.3,2,.5,1.3.9,2h-.7c-.4-.7-.8-1.4-1-2-.2-.7-.3-1.3-.3-2s.1-1.3.3-2c.2-.7.5-1.3,1-2h.7Z"/>
      <path id="DejaVuSans-723" data-name="DejaVuSans-72" d="M563.9,115.6c0,0-.2,0-.3-.1-.1,0-.2,0-.4,0-.5,0-.8.1-1.1.4s-.4.7-.4,1.3v2.6h-.8v-4.9h.8v.8c.2-.3.4-.5.7-.7.3-.1.6-.2,1-.2s.1,0,.2,0c0,0,.1,0,.2,0v.8Z"/>
      <path id="DejaVuSans-6f5" data-name="DejaVuSans-6f" d="M566.5,115.4c-.4,0-.8.2-1,.5s-.4.8-.4,1.4.1,1.1.4,1.4c.3.3.6.5,1,.5s.8-.2,1-.5c.3-.3.4-.8.4-1.4s-.1-1-.4-1.4c-.3-.3-.6-.5-1-.5ZM566.5,114.7c.7,0,1.3.2,1.7.7.4.5.6,1.1.6,1.9s-.2,1.4-.6,1.9c-.4.5-1,.7-1.7.7s-1.3-.2-1.7-.7c-.4-.5-.6-1.1-.6-1.9s.2-1.4.6-1.9c.4-.5,1-.7,1.7-.7Z"/>
      <path id="DejaVuSans-62" d="M573.6,117.3c0-.6-.1-1.1-.4-1.4s-.6-.5-1-.5-.8.2-1,.5-.4.8-.4,1.4.1,1.1.4,1.4c.2.3.6.5,1,.5s.8-.2,1-.5c.2-.3.4-.8.4-1.4ZM570.9,115.6c.2-.3.4-.5.6-.7.3-.1.6-.2.9-.2.6,0,1.1.2,1.5.7.4.5.6,1.1.6,1.9s-.2,1.4-.6,1.9c-.4.5-.9.7-1.5.7s-.7,0-.9-.2c-.3-.1-.5-.4-.6-.7v.7h-.8v-6.8h.8v2.7Z"/>
      <path id="DejaVuSans-6f6" data-name="DejaVuSans-6f" d="M577.7,115.4c-.4,0-.8.2-1,.5s-.4.8-.4,1.4.1,1.1.4,1.4c.3.3.6.5,1,.5s.8-.2,1-.5c.3-.3.4-.8.4-1.4s-.1-1-.4-1.4c-.3-.3-.6-.5-1-.5ZM577.7,114.7c.7,0,1.3.2,1.7.7.4.5.6,1.1.6,1.9s-.2,1.4-.6,1.9c-.4.5-1,.7-1.7.7s-1.3-.2-1.7-.7c-.4-.5-.6-1.1-.6-1.9s.2-1.4.6-1.9c.4-.5,1-.7,1.7-.7Z"/>
      <path id="DejaVuSans-743" data-name="DejaVuSans-74" d="M582.1,113.5v1.4h1.7v.6h-1.7v2.7c0,.4,0,.7.2.8s.3.2.7.2h.8v.7h-.8c-.6,0-1.1-.1-1.3-.3-.2-.2-.4-.7-.4-1.3v-2.7h-.6v-.6h.6v-1.4h.8Z"/>
      <path id="DejaVuSans-2d" d="M584.4,116.9h2.4v.7h-2.4v-.7Z"/>
      <path id="DejaVuSans-632" data-name="DejaVuSans-63" d="M591.6,115v.8c-.2-.1-.5-.2-.7-.3s-.5,0-.7,0c-.5,0-.9.2-1.2.5-.3.3-.4.8-.4,1.4s.1,1.1.4,1.4c.3.3.7.5,1.2.5s.5,0,.7,0,.5-.2.7-.3v.7c-.2.1-.5.2-.7.2-.2,0-.5,0-.8,0-.7,0-1.3-.2-1.8-.7-.4-.5-.7-1.1-.7-1.9s.2-1.4.7-1.9c.4-.5,1-.7,1.8-.7s.5,0,.7,0c.2,0,.5.1.7.2Z"/>
      <path id="DejaVuSans-616" data-name="DejaVuSans-61" d="M595.3,117.3c-.7,0-1.1,0-1.4.2s-.4.4-.4.8,0,.5.3.7c.2.2.4.3.8.3s.8-.2,1.1-.5.4-.7.4-1.3v-.2h-.8ZM596.9,117v2.8h-.8v-.7c-.2.3-.4.5-.7.7-.3.1-.6.2-1,.2s-.9-.1-1.2-.4c-.3-.3-.4-.7-.4-1.1s.2-1,.6-1.3c.4-.3.9-.4,1.7-.4h1.1c0-.5-.1-.7-.4-.9s-.6-.3-1-.3-.6,0-.8.1c-.3,0-.5.2-.8.3v-.7c.3-.1.6-.2.9-.3.3,0,.5,0,.8,0,.7,0,1.2.2,1.6.6.4.4.5.9.5,1.7Z"/>
      <path id="DejaVuSans-6c5" data-name="DejaVuSans-6c" d="M598.5,112.9h.8v6.8h-.8v-6.8Z"/>
      <path id="DejaVuSans-695" data-name="DejaVuSans-69" d="M601,114.8h.8v4.9h-.8v-4.9ZM601,112.9h.8v1h-.8v-1Z"/>
      <path id="DejaVuSans-621" data-name="DejaVuSans-62" d="M607.1,117.3c0-.6-.1-1.1-.4-1.4s-.6-.5-1-.5-.8.2-1,.5-.4.8-.4,1.4.1,1.1.4,1.4c.2.3.6.5,1,.5s.8-.2,1-.5c.2-.3.4-.8.4-1.4ZM604.3,115.6c.2-.3.4-.5.6-.7.3-.1.6-.2.9-.2.6,0,1.1.2,1.5.7.4.5.6,1.1.6,1.9s-.2,1.4-.6,1.9c-.4.5-.9.7-1.5.7s-.7,0-.9-.2c-.3-.1-.5-.4-.6-.7v.7h-.8v-6.8h.8v2.7Z"/>
      <path id="DejaVuSans-2c" d="M609.5,118.7h.9v.8l-.7,1.4h-.6l.4-1.4v-.8Z"/>
      <path id="DejaVuSans-208" data-name="DejaVuSans-20" d="M611.3,119.8"/>
      <path id="DejaVuSans-313" data-name="DejaVuSans-31" d="M615.3,119h1.4v-5l-1.6.3v-.8l1.6-.3h.9v5.8h1.4v.7h-3.8v-.7Z"/>
      <path id="DejaVuSans-391" data-name="DejaVuSans-39" d="M620.9,119.6v-.8c.2.1.4.2.7.2.2,0,.5,0,.7,0,.6,0,1-.2,1.3-.6.3-.4.5-1,.5-1.8-.2.3-.4.4-.6.6-.3.1-.5.2-.9.2-.7,0-1.2-.2-1.6-.6-.4-.4-.6-.9-.6-1.6s.2-1.2.6-1.6c.4-.4.9-.6,1.6-.6s1.3.3,1.7.9c.4.6.6,1.4.6,2.5s-.2,1.9-.7,2.5c-.5.6-1.1.9-2,.9s-.4,0-.7,0c-.2,0-.5-.1-.7-.2ZM622.6,116.9c.4,0,.7-.1.9-.4.2-.3.4-.6.4-1.1s-.1-.8-.4-1.1c-.2-.3-.5-.4-.9-.4s-.7.1-.9.4c-.2.3-.3.6-.3,1.1s.1.8.3,1.1c.2.3.5.4.9.4Z"/>
      <path id="DejaVuSans-296" data-name="DejaVuSans-29" d="M626.3,112.9h.7c.4.7.8,1.4,1,2,.2.7.3,1.3.3,2s-.1,1.3-.3,2c-.2.7-.5,1.3-1,2h-.7c.4-.7.7-1.3.9-2,.2-.7.3-1.3.3-2s0-1.3-.3-2c-.2-.7-.5-1.3-.9-2Z"/>
    </g>
  </g>
  <g class="st24">
    <g>
      <path id="mfb95f312b21" data-name="mfb95f312b2" class="st5" d="M217.8,523.5h8.4v-8.4h-8.4v8.4Z"/>
      <path id="mfb95f312b22" data-name="mfb95f312b2" class="st5" d="M161.9,416.8h8.4v-8.4h-8.4v8.4Z"/>
      <path id="mfb95f312b23" data-name="mfb95f312b2" class="st5" d="M112.4,312.7h8.4v-8.4h-8.4v8.4Z"/>
      <path id="mfb95f312b24" data-name="mfb95f312b2" class="st5" d="M332.4,531.4h8.4v-8.4h-8.4v8.4Z"/>
      <path id="mfb95f312b25" data-name="mfb95f312b2" class="st5" d="M281.6,424.6h8.4v-8.4h-8.4v8.4Z"/>
      <path id="mfb95f312b26" data-name="mfb95f312b2" class="st5" d="M226.9,319.2h8.4v-8.4h-8.4v8.4Z"/>
      <path id="mfb95f312b27" data-name="mfb95f312b2" class="st5" d="M176.2,208.6h8.4v-8.4h-8.4v8.4Z"/>
      <path id="mfb95f312b28" data-name="mfb95f312b2" class="st5" d="M454.7,532.7h8.4v-8.4h-8.4v8.4Z"/>
      <path id="mfb95f312b29" data-name="mfb95f312b2" class="st5" d="M400.1,428.6h8.4v-8.4h-8.4v8.4Z"/>
      <path id="mfb95f312b210" data-name="mfb95f312b2" class="st5" d="M345.4,321.8h8.4v-8.4h-8.4v8.4Z"/>
      <path id="mfb95f312b211" data-name="mfb95f312b2" class="st5" d="M290.7,216.4h8.4v-8.4h-8.4v8.4Z"/>
      <path id="mfb95f312b212" data-name="mfb95f312b2" class="st5" d="M241.3,109.7h8.4v-8.4h-8.4v8.4Z"/>
      <path id="mfb95f312b213" data-name="mfb95f312b2" class="st5" d="M509.4,437.7h8.4v-8.4h-8.4v8.4Z"/>
      <path id="mfb95f312b214" data-name="mfb95f312b2" class="st5" d="M461.2,330.9h8.4v-8.4h-8.4v8.4Z"/>
      <path id="mfb95f312b215" data-name="mfb95f312b2" class="st5" d="M406.6,224.2h8.4v-8.4h-8.4v8.4Z"/>
      <path id="mfb95f312b216" data-name="mfb95f312b2" class="st5" d="M353.2,118.8h8.4v-8.4h-8.4v8.4Z"/>
      <path id="mfb95f312b217" data-name="mfb95f312b2" class="st5" d="M571.9,340h8.4v-8.4h-8.4v8.4Z"/>
      <path id="mfb95f312b218" data-name="mfb95f312b2" class="st5" d="M519.8,230.7h8.4v-8.4h-8.4v8.4Z"/>
      <path id="mfb95f312b219" data-name="mfb95f312b2" class="st5" d="M473,130.5h8.4v-8.4h-8.4v8.4Z"/>
    </g>
  </g>
</svg>