<?xml version="1.0" encoding="UTF-8"?>
<svg id="Layer_1" xmlns="http://www.w3.org/2000/svg" xmlns:xlink="http://www.w3.org/1999/xlink" version="1.1" viewBox="0 0 648 648">
  <!-- Generator: Adobe Illustrator 30.6.0, SVG Export Plug-In . SVG Version: 2.1.4 Build 109)  -->
  <defs>
    <style>
      .st0, .st1, .st2 {
        fill: none;
      }

      .st3 {
        isolation: isolate;
        opacity: .8;
        stroke: #ccc;
      }

      .st3, .st4 {
        fill: #fff;
      }

      .st5 {
        stroke: red;
        stroke-width: 2px;
      }

      .st5, .st6, .st7, .st8, .st9, .st10 {
        stroke-linejoin: round;
      }

      .st5, .st11 {
        fill: red;
      }

      .st6 {
        fill: #ff7f0e;
        stroke: #ff7f0e;
      }

      .st12 {
        clip-path: url(#clippath-17);
      }

      .st13 {
        clip-path: url(#clippath-19);
      }

      .st14 {
        clip-path: url(#clippath-11);
      }

      .st15 {
        clip-path: url(#clippath-16);
      }

      .st16 {
        clip-path: url(#clippath-18);
      }

      .st17 {
        clip-path: url(#clippath-10);
      }

      .st18 {
        clip-path: url(#clippath-15);
      }

      .st19 {
        clip-path: url(#clippath-13);
      }

      .st20 {
        clip-path: url(#clippath-14);
      }

      .st21 {
        clip-path: url(#clippath-12);
      }

      .st22 {
        clip-path: url(#clippath-20);
      }

      .st23 {
        clip-path: url(#clippath-21);
      }

      .st24 {
        clip-path: url(#clippath-22);
      }

      .st25 {
        clip-path: url(#clippath-23);
      }

      .st26 {
        clip-path: url(#clippath-1);
      }

      .st27 {
        clip-path: url(#clippath-3);
      }

      .st28 {
        clip-path: url(#clippath-4);
      }

      .st29 {
        clip-path: url(#clippath-2);
      }

      .st30 {
        clip-path: url(#clippath-7);
      }

      .st31 {
        clip-path: url(#clippath-6);
      }

      .st32 {
        clip-path: url(#clippath-9);
      }

      .st33 {
        clip-path: url(#clippath-8);
      }

      .st34 {
        clip-path: url(#clippath-5);
      }

      .st1 {
        stroke: #888;
      }

      .st7 {
        fill: #1f77b4;
        stroke: #1f77b4;
      }

      .st8 {
        fill: #2ca02c;
        stroke: #2ca02c;
      }

      .st9, .st10, .st2 {
        stroke: #000;
      }

      .st9, .st2 {
        stroke-width: .8px;
      }

      .st2 {
        stroke-linecap: square;
      }

      .st35 {
        clip-path: url(#clippath);
      }
    </style>
    <clipPath id="clippath">
      <rect class="st0" x="53" y="44.5" width="584.2" height="543.8"/>
    </clipPath>
    <clipPath id="clippath-1">
      <rect class="st0" x="53" y="44.5" width="584.2" height="543.8"/>
    </clipPath>
    <clipPath id="clippath-2">
      <rect class="st0" x="53" y="44.5" width="584.2" height="543.8"/>
    </clipPath>
    <clipPath id="clippath-3">
      <rect class="st0" x="53" y="44.5" width="584.2" height="543.8"/>
    </clipPath>
    <clipPath id="clippath-4">
      <rect class="st0" x="53" y="44.5" width="584.2" height="543.8"/>
    </clipPath>
    <clipPath id="clippath-5">
      <rect class="st0" x="53" y="44.5" width="584.2" height="543.8"/>
    </clipPath>
    <clipPath id="clippath-6">
      <rect class="st0" x="53" y="44.5" width="584.2" height="543.8"/>
    </clipPath>
    <clipPath id="clippath-7">
      <rect class="st0" x="53" y="44.5" width="584.2" height="543.8"/>
    </clipPath>
    <clipPath id="clippath-8">
      <rect class="st0" x="53" y="44.5" width="584.2" height="543.8"/>
    </clipPath>
    <clipPath id="clippath-9">
      <rect class="st0" x="53" y="44.5" width="584.2" height="543.8"/>
    </clipPath>
    <clipPath id="clippath-10">
      <rect class="st0" x="53" y="44.5" width="584.2" height="543.8"/>
    </clipPath>
    <clipPath id="clippath-11">
      <rect class="st0" x="53" y="44.5" width="584.2" height="543.8"/>
    </clipPath>
    <clipPath id="clippath-12">
      <rect class="st0" x="53" y="44.5" width="584.2" height="543.8"/>
    </clipPath>
    <clipPath id="clippath-13">
      <rect class="st0" x="53" y="44.5" width="584.2" height="543.8"/>
    </clipPath>
    <clipPath id="clippath-14">
      <rect class="st0" x="53" y="44.5" width="584.2" height="543.8"/>
    </clipPath>
    <clipPath id="clippath-15">
      <rect class="st0" x="53" y="44.5" width="584.2" height="543.8"/>
    </clipPath>
    <clipPath id="clippath-16">
      <rect class="st0" x="53" y="44.5" width="584.2" height="543.8"/>
    </clipPath>
    <clipPath id="clippath-17">
      <rect class="st0" x="53" y="44.5" width="584.2" height="543.8"/>
    </clipPath>
    <clipPath id="clippath-18">
      <rect class="st0" x="53" y="44.5" width="584.2" height="543.8"/>
    </clipPath>
    <clipPath id="clippath-19">
      <rect class="st0" x="53" y="44.5" width="584.2" height="543.8"/>
    </clipPath>
    <clipPath id="clippath-20">
      <rect class="st0" x="53" y="44.5" width="584.2" height="543.8"/>
    </clipPath>
    <clipPath id="clippath-21">
      <rect class="st0" x="53" y="44.5" width="584.2" height="543.8"/>
    </clipPath>
    <clipPath id="clippath-22">
      <rect class="st0" x="53" y="44.5" width="584.2" height="543.8"/>
    </clipPath>
    <clipPath id="clippath-23">
      <rect class="st0" x="53" y="44.5" width="584.2" height="543.8"/>
    </clipPath>
  </defs>
  <path class="st4" d="M0,648h648V0H0v648Z"/>
  <g id="patch_2">
    <path class="st4" d="M53,588.4h584.2V44.5H53v543.8Z"/>
  </g>
  <g id="patch_3">
    <g class="st35">
      <path class="st1" d="M238.9,69.3l-53.1,30.7v61.3l53.1,30.7,53.1-30.7v-61.3l-53.1-30.7Z"/>
    </g>
  </g>
  <g id="patch_4">
    <g class="st26">
      <path class="st1" d="M345.1,69.3l-53.1,30.7v61.3l53.1,30.7,53.1-30.7v-61.3l-53.1-30.7Z"/>
    </g>
  </g>
  <g id="patch_5">
    <g class="st29">
      <path class="st1" d="M451.3,69.3l-53.1,30.7v61.3l53.1,30.7,53.1-30.7v-61.3l-53.1-30.7Z"/>
    </g>
  </g>
  <g id="patch_6">
    <g class="st27">
      <path class="st1" d="M185.8,162.2l-53.1,30.7v61.3l53.1,30.7,53.1-30.7v-61.3l-53.1-30.7Z"/>
    </g>
  </g>
  <g id="patch_7">
    <g class="st28">
      <path class="st1" d="M292,162.2l-53.1,30.7v61.3l53.1,30.7,53.1-30.7v-61.3l-53.1-30.7Z"/>
    </g>
  </g>
  <g id="patch_8">
    <g class="st34">
      <path class="st1" d="M398.2,162.2l-53.1,30.7v61.3l53.1,30.7,53.1-30.7v-61.3l-53.1-30.7Z"/>
    </g>
  </g>
  <g id="patch_9">
    <g class="st31">
      <path class="st1" d="M504.4,162.2l-53.1,30.7v61.3l53.1,30.7,53.1-30.7v-61.3l-53.1-30.7Z"/>
    </g>
  </g>
  <g id="patch_10">
    <g class="st30">
      <path class="st1" d="M132.7,255.1l-53.1,30.7v61.3l53.1,30.7,53.1-30.7v-61.3l-53.1-30.7Z"/>
    </g>
  </g>
  <g id="patch_11">
    <g class="st33">
      <path class="st1" d="M238.9,255.1l-53.1,30.7v61.3l53.1,30.7,53.1-30.7v-61.3l-53.1-30.7Z"/>
    </g>
  </g>
  <g id="patch_12">
    <g class="st32">
      <path class="st1" d="M345.1,255.1l-53.1,30.7v61.3l53.1,30.7,53.1-30.7v-61.3l-53.1-30.7Z"/>
    </g>
  </g>
  <g id="patch_13">
    <g class="st17">
      <path class="st1" d="M451.3,255.1l-53.1,30.7v61.3l53.1,30.7,53.1-30.7v-61.3l-53.1-30.7Z"/>
    </g>
  </g>
  <g id="patch_14">
    <g class="st14">
      <path class="st1" d="M557.5,255.1l-53.1,30.7v61.3l53.1,30.7,53.1-30.7v-61.3l-53.1-30.7Z"/>
    </g>
  </g>
  <g id="patch_15">
    <g class="st21">
      <path class="st1" d="M185.8,348.1l-53.1,30.7v61.3l53.1,30.7,53.1-30.7v-61.3l-53.1-30.7Z"/>
    </g>
  </g>
  <g id="patch_16">
    <g class="st19">
      <path class="st1" d="M292,348.1l-53.1,30.7v61.3l53.1,30.7,53.1-30.7v-61.3l-53.1-30.7Z"/>
    </g>
  </g>
  <g id="patch_17">
    <g class="st20">
      <path class="st1" d="M398.2,348.1l-53.1,30.7v61.3l53.1,30.7,53.1-30.7v-61.3l-53.1-30.7Z"/>
    </g>
  </g>
  <g id="patch_18">
    <g class="st18">
      <path class="st1" d="M504.4,348.1l-53.1,30.7v61.3l53.1,30.7,53.1-30.7v-61.3l-53.1-30.7Z"/>
    </g>
  </g>
  <g id="patch_19">
    <g class="st15">
      <path class="st1" d="M238.9,441l-53.1,30.7v61.3l53.1,30.7,53.1-30.7v-61.3l-53.1-30.7Z"/>
    </g>
  </g>
  <g id="patch_20">
    <g class="st12">
      <path class="st1" d="M345.1,441l-53.1,30.7v61.3l53.1,30.7,53.1-30.7v-61.3l-53.1-30.7Z"/>
    </g>
  </g>
  <g id="patch_21">
    <g class="st16">
      <path class="st1" d="M451.3,441l-53.1,30.7v61.3l53.1,30.7,53.1-30.7v-61.3l-53.1-30.7Z"/>
    </g>
  </g>
  <g id="matplotlib.axis_1">
    <g id="xtick_1">
      <g id="line2d_1">
        <path id="m4207d6e869" class="st9" d="M118.1,588.4v3.5"/>
      </g>
      <g id="text_1">
        <g>
          <path id="DejaVuSans-2212" d="M108.6,599.4h6.3v.8h-6.3v-.8Z"/>
          <path id="DejaVuSans-32" d="M117.8,602.1h3.4v.8h-4.6v-.8c.4-.4.9-.9,1.5-1.6.6-.7,1.1-1.1,1.2-1.3.3-.4.5-.7.7-.9.1-.2.2-.5.2-.7,0-.4-.1-.7-.4-.9-.3-.2-.6-.4-1.1-.4s-.6,0-1,.2c-.3.1-.7.3-1.1.5v-1c.4-.2.8-.3,1.1-.4.3,0,.7-.1.9-.1.8,0,1.4.2,1.8.6.4.4.7.9.7,1.5s0,.6-.2.9c-.1.3-.3.6-.6.9,0,0-.3.4-.8.8-.4.5-1.1,1.1-1.8,1.9Z"/>
          <path id="DejaVuSans-30" d="M125.5,596.3c-.5,0-.9.3-1.1.8-.3.5-.4,1.3-.4,2.3s.1,1.7.4,2.2c.3.5.6.8,1.1.8s.9-.3,1.2-.8c.3-.5.4-1.2.4-2.2s-.1-1.8-.4-2.3c-.3-.5-.6-.8-1.2-.8ZM125.5,595.6c.8,0,1.4.3,1.9,1,.4.6.6,1.6.6,2.8s-.2,2.2-.6,2.8c-.4.6-1.1,1-1.9,1s-1.4-.3-1.9-1c-.4-.6-.6-1.6-.6-2.8s.2-2.2.6-2.8c.4-.6,1.1-1,1.9-1Z"/>
        </g>
      </g>
    </g>
    <g id="xtick_2">
      <g id="line2d_2">
        <path id="m4207d6e8691" data-name="m4207d6e869" class="st9" d="M184.5,588.4v3.5"/>
      </g>
      <g id="text_2">
        <g>
          <path id="DejaVuSans-22121" data-name="DejaVuSans-2212" d="M175,599.4h6.3v.8h-6.3v-.8Z"/>
          <path id="DejaVuSans-31" d="M183.5,602.1h1.6v-5.6l-1.8.4v-.9l1.7-.4h1v6.5h1.6v.8h-4.2v-.8Z"/>
          <path id="DejaVuSans-35" d="M189.7,595.7h3.9v.8h-3v1.8c.1,0,.3,0,.4-.1.1,0,.3,0,.4,0,.8,0,1.5.2,1.9.7.5.4.7,1,.7,1.8s-.2,1.4-.7,1.8c-.5.4-1.2.7-2.1.7s-.6,0-.9,0c-.3,0-.6-.1-1-.2v-1c.3.2.6.3.9.4s.6.1,1,.1c.6,0,1-.1,1.3-.4.3-.3.5-.7.5-1.2s-.2-.9-.5-1.2c-.3-.3-.8-.4-1.3-.4s-.5,0-.8,0c-.3,0-.5.1-.8.3v-3.7Z"/>
        </g>
      </g>
    </g>
    <g id="xtick_3">
      <g id="line2d_3">
        <path id="m4207d6e8692" data-name="m4207d6e869" class="st9" d="M250.9,588.4v3.5"/>
      </g>
      <g id="text_3">
        <g>
          <path id="DejaVuSans-22122" data-name="DejaVuSans-2212" d="M241.4,599.4h6.3v.8h-6.3v-.8Z"/>
          <path id="DejaVuSans-311" data-name="DejaVuSans-31" d="M249.9,602.1h1.6v-5.6l-1.8.4v-.9l1.7-.4h1v6.5h1.6v.8h-4.2v-.8Z"/>
          <path id="DejaVuSans-301" data-name="DejaVuSans-30" d="M258.2,596.3c-.5,0-.9.3-1.1.8-.3.5-.4,1.3-.4,2.3s.1,1.7.4,2.2c.3.5.6.8,1.1.8s.9-.3,1.2-.8c.3-.5.4-1.2.4-2.2s-.1-1.8-.4-2.3c-.3-.5-.6-.8-1.2-.8ZM258.2,595.6c.8,0,1.4.3,1.9,1,.4.6.6,1.6.6,2.8s-.2,2.2-.6,2.8c-.4.6-1.1,1-1.9,1s-1.4-.3-1.9-1c-.4-.6-.6-1.6-.6-2.8s.2-2.2.6-2.8c.4-.6,1.1-1,1.9-1Z"/>
        </g>
      </g>
    </g>
    <g id="xtick_4">
      <g id="line2d_4">
        <path id="m4207d6e8693" data-name="m4207d6e869" class="st9" d="M317.2,588.4v3.5"/>
      </g>
      <g id="text_4">
        <g>
          <path id="DejaVuSans-22123" data-name="DejaVuSans-2212" d="M310.9,599.4h6.3v.8h-6.3v-.8Z"/>
          <path id="DejaVuSans-351" data-name="DejaVuSans-35" d="M319.3,595.7h3.9v.8h-3v1.8c.1,0,.3,0,.4-.1.1,0,.3,0,.4,0,.8,0,1.5.2,1.9.7.5.4.7,1,.7,1.8s-.2,1.4-.7,1.8c-.5.4-1.2.7-2.1.7s-.6,0-.9,0c-.3,0-.6-.1-1-.2v-1c.3.2.6.3.9.4s.6.1,1,.1c.6,0,1-.1,1.3-.4.3-.3.5-.7.5-1.2s-.2-.9-.5-1.2c-.3-.3-.8-.4-1.3-.4s-.5,0-.8,0c-.3,0-.5.1-.8.3v-3.7Z"/>
        </g>
      </g>
    </g>
    <g id="xtick_5">
      <g id="line2d_5">
        <path id="m4207d6e8694" data-name="m4207d6e869" class="st9" d="M383.6,588.4v3.5"/>
      </g>
      <g id="text_5">
        <path id="DejaVuSans-302" data-name="DejaVuSans-30" d="M383.6,596.3c-.5,0-.9.3-1.1.8-.3.5-.4,1.3-.4,2.3s.1,1.7.4,2.2c.3.5.6.8,1.1.8s.9-.3,1.2-.8c.3-.5.4-1.2.4-2.2s-.1-1.8-.4-2.3c-.3-.5-.6-.8-1.2-.8ZM383.6,595.6c.8,0,1.4.3,1.9,1,.4.6.6,1.6.6,2.8s-.2,2.2-.6,2.8c-.4.6-1.1,1-1.9,1s-1.4-.3-1.9-1c-.4-.6-.6-1.6-.6-2.8s.2-2.2.6-2.8c.4-.6,1.1-1,1.9-1Z"/>
      </g>
    </g>
    <g id="xtick_6">
      <g id="line2d_6">
        <path id="m4207d6e8695" data-name="m4207d6e869" class="st9" d="M450,588.4v3.5"/>
      </g>
      <g id="text_6">
        <path id="DejaVuSans-352" data-name="DejaVuSans-35" d="M447.9,595.7h3.9v.8h-3v1.8c.1,0,.3,0,.4-.1.1,0,.3,0,.4,0,.8,0,1.5.2,1.9.7.5.4.7,1,.7,1.8s-.2,1.4-.7,1.8c-.5.4-1.2.7-2.1.7s-.6,0-.9,0c-.3,0-.6-.1-1-.2v-1c.3.2.6.3.9.4s.6.1,1,.1c.6,0,1-.1,1.3-.4.3-.3.5-.7.5-1.2s-.2-.9-.5-1.2c-.3-.3-.8-.4-1.3-.4s-.5,0-.8,0c-.3,0-.5.1-.8.3v-3.7Z"/>
      </g>
    </g>
    <g id="xtick_7">
      <g id="line2d_7">
        <path id="m4207d6e8696" data-name="m4207d6e869" class="st9" d="M516.4,588.4v3.5"/>
      </g>
      <g id="text_7">
        <g>
          <path id="DejaVuSans-312" data-name="DejaVuSans-31" d="M511.3,602.1h1.6v-5.6l-1.8.4v-.9l1.7-.4h1v6.5h1.6v.8h-4.2v-.8Z"/>
          <path id="DejaVuSans-303" data-name="DejaVuSans-30" d="M519.6,596.3c-.5,0-.9.3-1.1.8-.3.5-.4,1.3-.4,2.3s.1,1.7.4,2.2c.3.5.6.8,1.1.8s.9-.3,1.2-.8c.3-.5.4-1.2.4-2.2s-.1-1.8-.4-2.3c-.3-.5-.6-.8-1.2-.8ZM519.6,595.6c.8,0,1.4.3,1.9,1,.4.6.6,1.6.6,2.8s-.2,2.2-.6,2.8c-.4.6-1.1,1-1.9,1s-1.4-.3-1.9-1c-.4-.6-.6-1.6-.6-2.8s.2-2.2.6-2.8c.4-.6,1.1-1,1.9-1Z"/>
        </g>
      </g>
    </g>
    <g id="xtick_8">
      <g id="line2d_8">
        <path id="m4207d6e8697" data-name="m4207d6e869" class="st9" d="M582.8,588.4v3.5"/>
      </g>
      <g id="text_8">
        <g>
          <path id="DejaVuSans-313" data-name="DejaVuSans-31" d="M577.6,602.1h1.6v-5.6l-1.8.4v-.9l1.7-.4h1v6.5h1.6v.8h-4.2v-.8Z"/>
          <path id="DejaVuSans-353" data-name="DejaVuSans-35" d="M583.8,595.7h3.9v.8h-3v1.8c.1,0,.3,0,.4-.1.1,0,.3,0,.4,0,.8,0,1.5.2,1.9.7.5.4.7,1,.7,1.8s-.2,1.4-.7,1.8c-.5.4-1.2.7-2.1.7s-.6,0-.9,0c-.3,0-.6-.1-1-.2v-1c.3.2.6.3.9.4s.6.1,1,.1c.6,0,1-.1,1.3-.4.3-.3.5-.7.5-1.2s-.2-.9-.5-1.2c-.3-.3-.8-.4-1.3-.4s-.5,0-.8,0c-.3,0-.5.1-.8.3v-3.7Z"/>
        </g>
      </g>
    </g>
    <g id="text_9">
      <g>
        <path id="DejaVuSans-78" d="M332.4,611.2l-2,2.7,2.1,2.8h-1.1l-1.6-2.1-1.6,2.1h-1.1l2.1-2.9-1.9-2.6h1.1l1.5,1.9,1.5-1.9h1.1Z"/>
        <path id="DejaVuSans-20" d="M332.8,616.7"/>
        <path id="DejaVuSans-28" d="M339.1,609.1c-.4.7-.8,1.5-1,2.2-.2.7-.3,1.5-.3,2.2s.1,1.5.3,2.2.5,1.5,1,2.2h-.8c-.5-.8-.9-1.5-1.1-2.3-.2-.7-.4-1.5-.4-2.2s.1-1.5.4-2.2c.2-.7.6-1.5,1.1-2.3h.8Z"/>
        <path id="DejaVuSans-6d" d="M345.1,612.2c.2-.4.5-.7.8-.9s.7-.3,1.1-.3,1,.2,1.3.6c.3.4.5,1,.5,1.7v3.3h-.9v-3.3c0-.5,0-.9-.3-1.2-.2-.3-.5-.4-.8-.4s-.8.2-1.1.5c-.3.3-.4.7-.4,1.3v3.1h-.9v-3.3c0-.5,0-.9-.3-1.2s-.5-.4-.9-.4-.8.2-1.1.5c-.3.3-.4.7-.4,1.3v3.1h-.9v-5.5h.9v.9c.2-.3.5-.6.7-.7s.6-.2,1-.2.7.1,1,.3c.3.2.5.5.6.9Z"/>
        <path id="DejaVuSans-6d1" data-name="DejaVuSans-6d" d="M354.9,612.2c.2-.4.5-.7.8-.9s.7-.3,1.1-.3,1,.2,1.3.6c.3.4.5,1,.5,1.7v3.3h-.9v-3.3c0-.5,0-.9-.3-1.2-.2-.3-.5-.4-.8-.4s-.8.2-1.1.5c-.3.3-.4.7-.4,1.3v3.1h-.9v-3.3c0-.5,0-.9-.3-1.2s-.5-.4-.9-.4-.8.2-1.1.5c-.3.3-.4.7-.4,1.3v3.1h-.9v-5.5h.9v.9c.2-.3.5-.6.7-.7s.6-.2,1-.2.7.1,1,.3c.3.2.5.5.6.9Z"/>
        <path id="DejaVuSans-29" d="M360.2,609.1h.8c.5.8.9,1.5,1.1,2.3.2.7.4,1.5.4,2.2s-.1,1.5-.4,2.2c-.2.7-.6,1.5-1.1,2.3h-.8c.4-.7.8-1.5,1-2.2.2-.7.3-1.5.3-2.2s-.1-1.5-.3-2.2c-.2-.7-.5-1.5-1-2.2Z"/>
      </g>
    </g>
  </g>
  <g id="matplotlib.axis_2">
    <g id="ytick_1">
      <g id="line2d_9">
        <path id="mebfeb4a085" class="st9" d="M53,546.1h-3.5"/>
      </g>
      <g id="text_10">
        <g>
          <path id="DejaVuSans-22124" data-name="DejaVuSans-2212" d="M26,546.4h6.3v.8h-6.3v-.8Z"/>
          <path id="DejaVuSans-314" data-name="DejaVuSans-31" d="M34.5,549.1h1.6v-5.6l-1.8.4v-.9l1.7-.4h1v6.5h1.6v.8h-4.2v-.8Z"/>
          <path id="DejaVuSans-354" data-name="DejaVuSans-35" d="M40.7,542.7h3.9v.8h-3v1.8c.1,0,.3,0,.4-.1.1,0,.3,0,.4,0,.8,0,1.5.2,1.9.7.5.4.7,1,.7,1.8s-.2,1.4-.7,1.8c-.5.4-1.2.7-2.1.7s-.6,0-.9,0c-.3,0-.6-.1-1-.2v-1c.3.2.6.3.9.4s.6.1,1,.1c.6,0,1-.1,1.3-.4.3-.3.5-.7.5-1.2s-.2-.9-.5-1.2c-.3-.3-.8-.4-1.3-.4s-.5,0-.8,0c-.3,0-.5.1-.8.3v-3.7Z"/>
        </g>
      </g>
    </g>
    <g id="ytick_2">
      <g id="line2d_10">
        <path id="mebfeb4a0851" data-name="mebfeb4a085" class="st9" d="M53,479.8h-3.5"/>
      </g>
      <g id="text_11">
        <g>
          <path id="DejaVuSans-22125" data-name="DejaVuSans-2212" d="M26,480h6.3v.8h-6.3v-.8Z"/>
          <path id="DejaVuSans-315" data-name="DejaVuSans-31" d="M34.5,482.7h1.6v-5.6l-1.8.4v-.9l1.7-.4h1v6.5h1.6v.8h-4.2v-.8Z"/>
          <path id="DejaVuSans-304" data-name="DejaVuSans-30" d="M42.8,476.9c-.5,0-.9.3-1.1.8-.3.5-.4,1.3-.4,2.3s.1,1.7.4,2.2c.3.5.6.8,1.1.8s.9-.3,1.2-.8c.3-.5.4-1.2.4-2.2s-.1-1.8-.4-2.3c-.3-.5-.6-.8-1.2-.8ZM42.8,476.1c.8,0,1.4.3,1.9,1,.4.6.6,1.6.6,2.8s-.2,2.2-.6,2.8c-.4.6-1.1,1-1.9,1s-1.4-.3-1.9-1c-.4-.6-.6-1.6-.6-2.8s.2-2.2.6-2.8c.4-.6,1.1-1,1.9-1Z"/>
        </g>
      </g>
    </g>
    <g id="ytick_3">
      <g id="line2d_11">
        <path id="mebfeb4a0852" data-name="mebfeb4a085" class="st9" d="M53,413.4h-3.5"/>
      </g>
      <g id="text_12">
        <g>
          <path id="DejaVuSans-22126" data-name="DejaVuSans-2212" d="M32.3,413.6h6.3v.8h-6.3v-.8Z"/>
          <path id="DejaVuSans-355" data-name="DejaVuSans-35" d="M40.7,409.9h3.9v.8h-3v1.8c.1,0,.3,0,.4-.1.1,0,.3,0,.4,0,.8,0,1.5.2,1.9.7.5.4.7,1,.7,1.8s-.2,1.4-.7,1.8c-.5.4-1.2.7-2.1.7s-.6,0-.9,0c-.3,0-.6-.1-1-.2v-1c.3.2.6.3.9.4s.6.1,1,.1c.6,0,1-.1,1.3-.4.3-.3.5-.7.5-1.2s-.2-.9-.5-1.2c-.3-.3-.8-.4-1.3-.4s-.5,0-.8,0c-.3,0-.5.1-.8.3v-3.7Z"/>
        </g>
      </g>
    </g>
    <g id="ytick_4">
      <g id="line2d_12">
        <path id="mebfeb4a0853" data-name="mebfeb4a085" class="st9" d="M53,347h-3.5"/>
      </g>
      <g id="text_13">
        <path id="DejaVuSans-305" data-name="DejaVuSans-30" d="M42.8,344.2c-.5,0-.9.3-1.1.8-.3.5-.4,1.3-.4,2.3s.1,1.7.4,2.2c.3.5.6.8,1.1.8s.9-.3,1.2-.8c.3-.5.4-1.2.4-2.2s-.1-1.8-.4-2.3c-.3-.5-.6-.8-1.2-.8ZM42.8,343.4c.8,0,1.4.3,1.9,1,.4.6.6,1.6.6,2.8s-.2,2.2-.6,2.8c-.4.6-1.1,1-1.9,1s-1.4-.3-1.9-1c-.4-.6-.6-1.6-.6-2.8s.2-2.2.6-2.8c.4-.6,1.1-1,1.9-1Z"/>
      </g>
    </g>
    <g id="ytick_5">
      <g id="line2d_13">
        <path id="mebfeb4a0854" data-name="mebfeb4a085" class="st9" d="M53,280.6h-3.5"/>
      </g>
      <g id="text_14">
        <path id="DejaVuSans-356" data-name="DejaVuSans-35" d="M40.7,277.1h3.9v.8h-3v1.8c.1,0,.3,0,.4-.1.1,0,.3,0,.4,0,.8,0,1.5.2,1.9.7.5.4.7,1,.7,1.8s-.2,1.4-.7,1.8c-.5.4-1.2.7-2.1.7s-.6,0-.9,0c-.3,0-.6-.1-1-.2v-1c.3.2.6.3.9.4s.6.1,1,.1c.6,0,1-.1,1.3-.4.3-.3.5-.7.5-1.2s-.2-.9-.5-1.2c-.3-.3-.8-.4-1.3-.4s-.5,0-.8,0c-.3,0-.5.1-.8.3v-3.7Z"/>
      </g>
    </g>
    <g id="ytick_6">
      <g id="line2d_14">
        <path id="mebfeb4a0855" data-name="mebfeb4a085" class="st9" d="M53,214.2h-3.5"/>
      </g>
      <g id="text_15">
        <g>
          <path id="DejaVuSans-316" data-name="DejaVuSans-31" d="M34.5,217.2h1.6v-5.6l-1.8.4v-.9l1.7-.4h1v6.5h1.6v.8h-4.2v-.8Z"/>
          <path id="DejaVuSans-306" data-name="DejaVuSans-30" d="M42.8,211.4c-.5,0-.9.3-1.1.8-.3.5-.4,1.3-.4,2.3s.1,1.7.4,2.2c.3.5.6.8,1.1.8s.9-.3,1.2-.8c.3-.5.4-1.2.4-2.2s-.1-1.8-.4-2.3c-.3-.5-.6-.8-1.2-.8ZM42.8,210.6c.8,0,1.4.3,1.9,1,.4.6.6,1.6.6,2.8s-.2,2.2-.6,2.8c-.4.6-1.1,1-1.9,1s-1.4-.3-1.9-1c-.4-.6-.6-1.6-.6-2.8s.2-2.2.6-2.8c.4-.6,1.1-1,1.9-1Z"/>
        </g>
      </g>
    </g>
    <g id="ytick_7">
      <g id="line2d_15">
        <path id="mebfeb4a0856" data-name="mebfeb4a085" class="st9" d="M53,147.8h-3.5"/>
      </g>
      <g id="text_16">
        <g>
          <path id="DejaVuSans-317" data-name="DejaVuSans-31" d="M34.5,150.8h1.6v-5.6l-1.8.4v-.9l1.7-.4h1v6.5h1.6v.8h-4.2v-.8Z"/>
          <path id="DejaVuSans-357" data-name="DejaVuSans-35" d="M40.7,144.4h3.9v.8h-3v1.8c.1,0,.3,0,.4-.1.1,0,.3,0,.4,0,.8,0,1.5.2,1.9.7.5.4.7,1,.7,1.8s-.2,1.4-.7,1.8c-.5.4-1.2.7-2.1.7s-.6,0-.9,0c-.3,0-.6-.1-1-.2v-1c.3.2.6.3.9.4s.6.1,1,.1c.6,0,1-.1,1.3-.4.3-.3.5-.7.5-1.2s-.2-.9-.5-1.2c-.3-.3-.8-.4-1.3-.4s-.5,0-.8,0c-.3,0-.5.1-.8.3v-3.7Z"/>
        </g>
      </g>
    </g>
    <g id="ytick_8">
      <g id="line2d_16">
        <path id="mebfeb4a0857" data-name="mebfeb4a085" class="st9" d="M53,81.5h-3.5"/>
      </g>
      <g id="text_17">
        <g>
          <path id="DejaVuSans-321" data-name="DejaVuSans-32" d="M35.2,84.4h3.4v.8h-4.6v-.8c.4-.4.9-.9,1.5-1.6.6-.7,1.1-1.1,1.2-1.3.3-.4.5-.7.7-.9.1-.2.2-.5.2-.7,0-.4-.1-.7-.4-.9-.3-.2-.6-.4-1.1-.4s-.6,0-1,.2c-.3.1-.7.3-1.1.5v-1c.4-.2.8-.3,1.1-.4.3,0,.7-.1.9-.1.8,0,1.4.2,1.8.6.4.4.7.9.7,1.5s0,.6-.2.9c-.1.3-.3.6-.6.9,0,0-.3.4-.8.8-.4.5-1.1,1.1-1.8,1.9Z"/>
          <path id="DejaVuSans-307" data-name="DejaVuSans-30" d="M42.8,78.6c-.5,0-.9.3-1.1.8-.3.5-.4,1.3-.4,2.3s.1,1.7.4,2.2c.3.5.6.8,1.1.8s.9-.3,1.2-.8c.3-.5.4-1.2.4-2.2s-.1-1.8-.4-2.3c-.3-.5-.6-.8-1.2-.8ZM42.8,77.8c.8,0,1.4.3,1.9,1,.4.6.6,1.6.6,2.8s-.2,2.2-.6,2.8c-.4.6-1.1,1-1.9,1s-1.4-.3-1.9-1c-.4-.6-.6-1.6-.6-2.8s.2-2.2.6-2.8c.4-.6,1.1-1,1.9-1Z"/>
        </g>
      </g>
    </g>
    <g id="text_18">
      <g>
        <path id="DejaVuSans-79" d="M19.4,331.4c.7.3,1.1.5,1.3.7.2.2.3.6.3,1v.7h-.8v-.5c0-.2,0-.4-.2-.6-.1-.1-.4-.3-.8-.5l-.4-.2-5.4,2.2v-1l4.3-1.7-4.3-1.7v-1l6,2.4Z"/>
        <path id="DejaVuSans-201" data-name="DejaVuSans-20" d="M18.8,328.7"/>
        <path id="DejaVuSans-281" data-name="DejaVuSans-28" d="M11.3,322.5c.7.4,1.5.8,2.2,1,.7.2,1.5.3,2.2.3s1.5-.1,2.2-.3,1.5-.5,2.2-1v.8c-.8.5-1.5.9-2.3,1.1-.7.2-1.5.4-2.2.4s-1.5-.1-2.2-.4c-.7-.2-1.5-.6-2.3-1.1v-.8Z"/>
        <path id="DejaVuSans-6d2" data-name="DejaVuSans-6d" d="M14.4,316.5c-.4-.2-.7-.5-.9-.8s-.3-.7-.3-1.1.2-1,.6-1.3c.4-.3,1-.5,1.7-.5h3.3v.9h-3.3c-.5,0-.9,0-1.2.3-.3.2-.4.5-.4.8s.2.8.5,1.1c.3.3.7.4,1.3.4h3.1v.9h-3.3c-.5,0-.9,0-1.2.3s-.4.5-.4.9.2.8.5,1.1c.3.3.7.4,1.3.4h3.1v.9h-5.5v-.9h.9c-.3-.2-.6-.5-.7-.7s-.2-.6-.2-1,.1-.7.3-1c.2-.3.5-.5.9-.6Z"/>
        <path id="DejaVuSans-6d3" data-name="DejaVuSans-6d" d="M14.4,306.7c-.4-.2-.7-.5-.9-.8s-.3-.7-.3-1.1.2-1,.6-1.3c.4-.3,1-.5,1.7-.5h3.3v.9h-3.3c-.5,0-.9,0-1.2.3-.3.2-.4.5-.4.8s.2.8.5,1.1c.3.3.7.4,1.3.4h3.1v.9h-3.3c-.5,0-.9,0-1.2.3s-.4.5-.4.9.2.8.5,1.1c.3.3.7.4,1.3.4h3.1v.9h-5.5v-.9h.9c-.3-.2-.6-.5-.7-.7s-.2-.6-.2-1,.1-.7.3-1c.2-.3.5-.5.9-.6Z"/>
        <path id="DejaVuSans-291" data-name="DejaVuSans-29" d="M11.3,301.4v-.8c.8-.5,1.5-.9,2.3-1.1.7-.2,1.5-.4,2.2-.4s1.5.1,2.2.4c.7.2,1.5.6,2.3,1.1v.8c-.7-.4-1.5-.8-2.2-1-.7-.2-1.5-.3-2.2-.3s-1.5.1-2.2.3c-.7.2-1.5.5-2.2,1Z"/>
      </g>
    </g>
  </g>
  <g id="patch_22">
    <path class="st2" d="M53,588.4V44.5"/>
  </g>
  <g id="patch_23">
    <path class="st2" d="M637.2,588.4V44.5"/>
  </g>
  <g id="patch_24">
    <path class="st2" d="M53,588.4h584.2"/>
  </g>
  <g id="patch_25">
    <path class="st2" d="M53,44.5h584.2"/>
  </g>
  <g id="text_19">
    <g>
      <path id="DejaVuSans-Bold-31" d="M234.3,121.5h1.3v-3.8l-1.4.3v-1l1.4-.3h1.4v4.8h1.3v1h-4.1v-1Z"/>
      <path id="DejaVuSans-Bold-32" d="M241.2,121.5h2.6v1.1h-4.2v-1.1l2.1-1.9c.2-.2.3-.3.4-.5s.1-.3.1-.5c0-.3,0-.5-.3-.7s-.4-.2-.7-.2-.5,0-.8.1c-.3,0-.6.2-.9.4v-1.3c.3-.1.7-.2,1-.3.3,0,.7,0,1,0,.7,0,1.2.2,1.6.5.4.3.6.7.6,1.3s0,.6-.2.9c-.2.3-.5.6-1,1.1l-1.2,1.1Z"/>
    </g>
  </g>
  <g id="text_20">
    <g>
      <path id="DejaVuSans-Bold-311" data-name="DejaVuSans-Bold-31" d="M340.5,121.5h1.3v-3.8l-1.4.3v-1l1.4-.3h1.4v4.8h1.3v1h-4.1v-1Z"/>
      <path id="DejaVuSans-Bold-36" d="M348,119.7c-.3,0-.5,0-.6.3-.1.2-.2.4-.2.8s0,.6.2.8c.1.2.3.3.6.3s.5,0,.6-.3c.1-.2.2-.4.2-.8s0-.6-.2-.8c-.1-.2-.3-.3-.6-.3ZM349.9,116.9v1.1c-.2-.1-.5-.2-.7-.3-.2,0-.4,0-.6,0-.4,0-.8.1-1,.4-.2.2-.4.6-.4,1.1.2-.1.4-.2.6-.3.2,0,.4,0,.7,0,.6,0,1.1.2,1.4.5.4.3.5.8.5,1.4s-.2,1.1-.6,1.5c-.4.4-1,.6-1.6.6s-1.3-.3-1.8-.8c-.4-.5-.6-1.2-.6-2.2s.2-1.7.7-2.3c.5-.6,1.2-.8,2-.8s.5,0,.8,0,.5.1.7.2Z"/>
    </g>
  </g>
  <g id="text_21">
    <g>
      <path id="DejaVuSans-Bold-312" data-name="DejaVuSans-Bold-31" d="M446.7,121.5h1.3v-3.8l-1.4.3v-1l1.4-.3h1.4v4.8h1.3v1h-4.1v-1Z"/>
      <path id="DejaVuSans-Bold-39" d="M452.1,122.5v-1.1c.2.1.5.2.7.3.2,0,.4,0,.6,0,.4,0,.8-.1,1-.4.2-.2.4-.6.4-1.1-.2.1-.4.2-.6.3s-.4,0-.7,0c-.6,0-1.1-.2-1.4-.5-.4-.3-.5-.8-.5-1.4s.2-1.1.6-1.5,1-.6,1.6-.6,1.3.3,1.8.8c.4.5.6,1.2.6,2.2s-.2,1.7-.7,2.3c-.5.6-1.2.8-2,.8s-.5,0-.8,0c-.2,0-.5-.1-.7-.2ZM454,119.7c.3,0,.5,0,.6-.3.1-.2.2-.4.2-.8s0-.6-.2-.8c-.1-.2-.3-.3-.6-.3s-.5,0-.6.3c-.1.2-.2.4-.2.8s0,.6.2.8c.1.2.3.3.6.3Z"/>
    </g>
  </g>
  <g id="text_22">
    <path id="DejaVuSans-Bold-37" d="M183.5,209.7h4.4v.8l-2.3,5h-1.5l2.2-4.7h-2.8v-1.1Z"/>
  </g>
  <g id="text_23">
    <g>
      <path id="DejaVuSans-Bold-313" data-name="DejaVuSans-Bold-31" d="M287.4,214.5h1.3v-3.8l-1.4.3v-1l1.4-.3h1.4v4.8h1.3v1h-4.1v-1Z"/>
      <path id="DejaVuSans-Bold-314" data-name="DejaVuSans-Bold-31" d="M292.9,214.5h1.3v-3.8l-1.4.3v-1l1.4-.3h1.4v4.8h1.3v1h-4.1v-1Z"/>
    </g>
  </g>
  <g id="text_24">
    <g>
      <path id="DejaVuSans-Bold-315" data-name="DejaVuSans-Bold-31" d="M393.6,214.5h1.3v-3.8l-1.4.3v-1l1.4-.3h1.4v4.8h1.3v1h-4.1v-1Z"/>
      <path id="DejaVuSans-Bold-35" d="M399.1,209.7h3.7v1.1h-2.5v.9c.1,0,.2,0,.3,0,.1,0,.2,0,.4,0,.7,0,1.3.2,1.7.5s.6.9.6,1.5-.2,1.1-.6,1.5c-.4.4-1,.5-1.8.5s-.7,0-1,0c-.3,0-.6-.2-1-.3v-1.2c.3.2.6.3.9.4.3,0,.6.1.8.1.4,0,.7,0,.9-.3.2-.2.3-.4.3-.7s-.1-.5-.3-.7c-.2-.2-.5-.3-.9-.3s-.4,0-.7,0c-.2,0-.5.1-.8.3v-3.3Z"/>
    </g>
  </g>
  <g id="text_25">
    <g>
      <path id="DejaVuSans-Bold-316" data-name="DejaVuSans-Bold-31" d="M499.8,214.5h1.3v-3.8l-1.4.3v-1l1.4-.3h1.4v4.8h1.3v1h-4.1v-1Z"/>
      <path id="DejaVuSans-Bold-38" d="M507.2,212.9c-.3,0-.5,0-.6.2-.2.2-.2.4-.2.7s0,.5.2.7c.2.2.4.2.6.2s.5,0,.6-.2c.1-.2.2-.4.2-.7s0-.5-.2-.7-.4-.2-.6-.2ZM506.1,212.4c-.4-.1-.6-.3-.8-.5-.2-.2-.3-.5-.3-.8,0-.5.2-.9.5-1.1.4-.3.9-.4,1.6-.4s1.2.1,1.6.4c.4.3.6.6.6,1.1s0,.6-.3.8c-.2.2-.4.4-.8.5.4.1.7.3.9.5.2.2.3.6.3.9,0,.6-.2,1-.6,1.3-.4.3-1,.4-1.7.4s-1.3-.1-1.7-.4c-.4-.3-.6-.7-.6-1.3s.1-.7.3-.9c.2-.2.5-.4.9-.5ZM506.5,211.3c0,.2,0,.4.2.5s.3.2.6.2.4,0,.5-.2c.1-.1.2-.3.2-.5s0-.4-.2-.5c-.1-.1-.3-.2-.5-.2s-.4,0-.6.2-.2.3-.2.5Z"/>
    </g>
  </g>
  <g id="text_26">
    <path id="DejaVuSans-Bold-33" d="M133.6,305.3c.4.1.7.3.9.5.2.3.3.6.3,1,0,.6-.2,1-.7,1.3-.4.3-1.1.5-1.9.5s-.6,0-.9,0c-.3,0-.6-.1-.9-.2v-1.2c.3.1.6.2.8.3.3,0,.6.1.8.1.4,0,.7,0,.9-.2.2-.1.3-.3.3-.6s-.1-.5-.3-.6-.5-.2-1-.2h-.6v-1h.6c.4,0,.7,0,.8-.2.2-.1.3-.3.3-.5s0-.4-.3-.5c-.2-.1-.4-.2-.8-.2s-.5,0-.7,0c-.2,0-.5.1-.7.2v-1.1c.3,0,.6-.1.9-.2s.6,0,.9,0c.8,0,1.3.1,1.7.4.4.2.6.6.6,1.1s0,.6-.3.8c-.2.2-.4.4-.8.5Z"/>
  </g>
  <g id="text_27">
    <path id="DejaVuSans-Bold-361" data-name="DejaVuSans-Bold-36" d="M239,305.6c-.3,0-.5,0-.6.3-.1.2-.2.4-.2.8s0,.6.2.8c.1.2.3.3.6.3s.5,0,.6-.3c.1-.2.2-.4.2-.8s0-.6-.2-.8c-.1-.2-.3-.3-.6-.3ZM240.9,302.8v1.1c-.2-.1-.5-.2-.7-.3-.2,0-.4,0-.6,0-.4,0-.8.1-1,.4-.2.2-.4.6-.4,1.1.2-.1.4-.2.6-.3.2,0,.4,0,.7,0,.6,0,1.1.2,1.4.5.4.3.5.8.5,1.4s-.2,1.1-.6,1.5c-.4.4-1,.6-1.6.6s-1.3-.3-1.8-.8c-.4-.5-.6-1.2-.6-2.2s.2-1.7.7-2.3c.5-.6,1.2-.8,2-.8s.5,0,.8,0,.5.1.7.2Z"/>
  </g>
  <g id="text_28">
    <g>
      <path id="DejaVuSans-Bold-317" data-name="DejaVuSans-Bold-31" d="M340.5,307.4h1.3v-3.8l-1.4.3v-1l1.4-.3h1.4v4.8h1.3v1h-4.1v-1Z"/>
      <path id="DejaVuSans-Bold-30" d="M348.8,305.5c0-.7,0-1.2-.2-1.5-.1-.3-.4-.4-.7-.4s-.6.1-.7.4c-.1.3-.2.8-.2,1.5s0,1.3.2,1.6c.1.3.4.5.7.5s.5-.2.7-.5c.1-.3.2-.8.2-1.6ZM350.3,305.6c0,1-.2,1.7-.6,2.2s-1,.8-1.8.8-1.4-.3-1.8-.8c-.4-.5-.6-1.3-.6-2.2s.2-1.7.6-2.2c.4-.5,1-.8,1.8-.8s1.4.3,1.8.8c.4.5.6,1.3.6,2.2Z"/>
    </g>
  </g>
  <g id="text_29">
    <g>
      <path id="DejaVuSans-Bold-318" data-name="DejaVuSans-Bold-31" d="M446.7,307.4h1.3v-3.8l-1.4.3v-1l1.4-.3h1.4v4.8h1.3v1h-4.1v-1Z"/>
      <path id="DejaVuSans-Bold-34" d="M454.3,303.9l-1.6,2.4h1.6v-2.4ZM454,302.6h1.7v3.7h.8v1.1h-.8v1.1h-1.4v-1.1h-2.6v-1.3l2.3-3.5Z"/>
    </g>
  </g>
  <g id="text_30">
    <g>
      <path id="DejaVuSans-Bold-319" data-name="DejaVuSans-Bold-31" d="M552.9,307.4h1.3v-3.8l-1.4.3v-1l1.4-.3h1.4v4.8h1.3v1h-4.1v-1Z"/>
      <path id="DejaVuSans-Bold-371" data-name="DejaVuSans-Bold-37" d="M558.1,302.6h4.4v.8l-2.3,5h-1.5l2.2-4.7h-2.8v-1.1Z"/>
    </g>
  </g>
  <g id="text_31">
    <path id="DejaVuSans-Bold-321" data-name="DejaVuSans-Bold-32" d="M185.3,400.3h2.6v1.1h-4.2v-1.1l2.1-1.9c.2-.2.3-.3.4-.5s.1-.3.1-.5c0-.3,0-.5-.3-.7s-.4-.2-.7-.2-.5,0-.8.1c-.3,0-.6.2-.9.4v-1.3c.3-.1.7-.2,1-.3.3,0,.7,0,1,0,.7,0,1.2.2,1.6.5.4.3.6.7.6,1.3s0,.6-.2.9c-.2.3-.5.6-1,1.1l-1.2,1.1Z"/>
  </g>
  <g id="text_32">
    <path id="DejaVuSans-Bold-351" data-name="DejaVuSans-Bold-35" d="M290.1,395.6h3.7v1.1h-2.5v.9c.1,0,.2,0,.3,0,.1,0,.2,0,.4,0,.7,0,1.3.2,1.7.5s.6.9.6,1.5-.2,1.1-.6,1.5c-.4.4-1,.5-1.8.5s-.7,0-1,0c-.3,0-.6-.2-1-.3v-1.2c.3.2.6.3.9.4.3,0,.6.1.8.1.4,0,.7,0,.9-.3.2-.2.3-.4.3-.7s-.1-.5-.3-.7c-.2-.2-.5-.3-.9-.3s-.4,0-.7,0c-.2,0-.5.1-.8.3v-3.3Z"/>
  </g>
  <g id="text_33">
    <path id="DejaVuSans-Bold-391" data-name="DejaVuSans-Bold-39" d="M396.2,401.3v-1.1c.2.1.5.2.7.3.2,0,.4,0,.6,0,.4,0,.8-.1,1-.4.2-.2.4-.6.4-1.1-.2.1-.4.2-.6.3s-.4,0-.7,0c-.6,0-1.1-.2-1.4-.5-.4-.3-.5-.8-.5-1.4s.2-1.1.6-1.5,1-.6,1.6-.6,1.3.3,1.8.8c.4.5.6,1.2.6,2.2s-.2,1.7-.7,2.3c-.5.6-1.2.8-2,.8s-.5,0-.8,0c-.2,0-.5-.1-.7-.2ZM398.1,398.5c.3,0,.5,0,.6-.3.1-.2.2-.4.2-.8s0-.6-.2-.8c-.1-.2-.3-.3-.6-.3s-.5,0-.6.3c-.1.2-.2.4-.2.8s0,.6.2.8c.1.2.3.3.6.3Z"/>
  </g>
  <g id="text_34">
    <g>
      <path id="DejaVuSans-Bold-3110" data-name="DejaVuSans-Bold-31" d="M499.8,400.4h1.3v-3.8l-1.4.3v-1l1.4-.3h1.4v4.8h1.3v1h-4.1v-1Z"/>
      <path id="DejaVuSans-Bold-331" data-name="DejaVuSans-Bold-33" d="M508.2,398.3c.4.1.7.3.9.5.2.3.3.6.3,1,0,.6-.2,1-.7,1.3-.4.3-1.1.5-1.9.5s-.6,0-.9,0c-.3,0-.6-.1-.9-.2v-1.2c.3.1.6.2.8.3.3,0,.6.1.8.1.4,0,.7,0,.9-.2.2-.1.3-.3.3-.6s-.1-.5-.3-.6-.5-.2-1-.2h-.6v-1h.6c.4,0,.7,0,.8-.2.2-.1.3-.3.3-.5s0-.4-.3-.5c-.2-.1-.4-.2-.8-.2s-.5,0-.7,0c-.2,0-.5.1-.7.2v-1.1c.3,0,.6-.1.9-.2s.6,0,.9,0c.8,0,1.3.1,1.7.4.4.2.6.6.6,1.1s0,.6-.3.8c-.2.2-.4.4-.8.5Z"/>
    </g>
  </g>
  <g id="text_35">
    <path id="DejaVuSans-Bold-3111" data-name="DejaVuSans-Bold-31" d="M237.1,493.3h1.3v-3.8l-1.4.3v-1l1.4-.3h1.4v4.8h1.3v1h-4.1v-1Z"/>
  </g>
  <g id="text_36">
    <path id="DejaVuSans-Bold-341" data-name="DejaVuSans-Bold-34" d="M345.3,489.7l-1.6,2.4h1.6v-2.4ZM345,488.5h1.7v3.7h.8v1.1h-.8v1.1h-1.4v-1.1h-2.6v-1.3l2.3-3.5Z"/>
  </g>
  <g id="text_37">
    <path id="DejaVuSans-Bold-381" data-name="DejaVuSans-Bold-38" d="M451.3,491.7c-.3,0-.5,0-.6.2-.2.2-.2.4-.2.7s0,.5.2.7c.2.2.4.2.6.2s.5,0,.6-.2c.1-.2.2-.4.2-.7s0-.5-.2-.7-.4-.2-.6-.2ZM450.2,491.2c-.4-.1-.6-.3-.8-.5-.2-.2-.3-.5-.3-.8,0-.5.2-.9.5-1.1.4-.3.9-.4,1.6-.4s1.2.1,1.6.4c.4.3.6.6.6,1.1s0,.6-.3.8c-.2.2-.4.4-.8.5.4.1.7.3.9.5.2.2.3.6.3.9,0,.6-.2,1-.6,1.3-.4.3-1,.4-1.7.4s-1.3-.1-1.7-.4c-.4-.3-.6-.7-.6-1.3s.1-.7.3-.9c.2-.2.5-.4.9-.5ZM450.6,490.1c0,.2,0,.4.2.5s.3.2.6.2.4,0,.5-.2c.1-.1.2-.3.2-.5s0-.4-.2-.5c-.1-.1-.3-.2-.5-.2s-.4,0-.6.2-.2.3-.2.5Z"/>
  </g>
  <g id="text_38">
    <g>
      <path id="DejaVuSans-Bold-3112" data-name="DejaVuSans-Bold-31" class="st11" d="M210.4,161.4h1.3v-3.8l-1.4.3v-1l1.4-.3h1.4v4.8h1.3v1h-4.1v-1Z"/>
      <path id="DejaVuSans-Bold-322" data-name="DejaVuSans-Bold-32" class="st11" d="M217.3,161.3h2.6v1.1h-4.2v-1.1l2.1-1.9c.2-.2.3-.3.4-.5s.1-.3.1-.5c0-.3,0-.5-.3-.7s-.4-.2-.7-.2-.5,0-.8.1c-.3,0-.6.2-.9.4v-1.3c.3-.1.7-.2,1-.3.3,0,.7,0,1,0,.7,0,1.2.2,1.6.5.4.3.6.7.6,1.3s0,.6-.2.9c-.2.3-.5.6-1,1.1l-1.2,1.1Z"/>
    </g>
  </g>
  <g id="text_39">
    <g>
      <path id="DejaVuSans-Bold-3113" data-name="DejaVuSans-Bold-31" class="st11" d="M312.6,145.5h1.3v-3.8l-1.4.3v-1l1.4-.3h1.4v4.8h1.3v1h-4.1v-1Z"/>
      <path id="DejaVuSans-Bold-362" data-name="DejaVuSans-Bold-36" class="st11" d="M320.1,143.7c-.3,0-.5,0-.6.3-.1.2-.2.4-.2.8s0,.6.2.8c.1.2.3.3.6.3s.5,0,.6-.3c.1-.2.2-.4.2-.8s0-.6-.2-.8c-.1-.2-.3-.3-.6-.3ZM322,140.9v1.1c-.2-.1-.5-.2-.7-.3-.2,0-.4,0-.6,0-.4,0-.8.1-1,.4-.2.2-.4.6-.4,1.1.2-.1.4-.2.6-.3.2,0,.4,0,.7,0,.6,0,1.1.2,1.4.5.4.3.5.8.5,1.4s-.2,1.1-.6,1.5c-.4.4-1,.6-1.6.6s-1.3-.3-1.8-.8c-.4-.5-.6-1.2-.6-2.2s.2-1.7.7-2.3c.5-.6,1.2-.8,2-.8s.5,0,.8,0,.5.1.7.2Z"/>
    </g>
  </g>
  <g id="text_40">
    <g>
      <path id="DejaVuSans-Bold-3114" data-name="DejaVuSans-Bold-31" class="st11" d="M421.5,132.3h1.3v-3.8l-1.4.3v-1l1.4-.3h1.4v4.8h1.3v1h-4.1v-1Z"/>
      <path id="DejaVuSans-Bold-392" data-name="DejaVuSans-Bold-39" class="st11" d="M426.9,133.2v-1.1c.2.1.5.2.7.3.2,0,.4,0,.6,0,.4,0,.8-.1,1-.4.2-.2.4-.6.4-1.1-.2.1-.4.2-.6.3s-.4,0-.7,0c-.6,0-1.1-.2-1.4-.5-.4-.3-.5-.8-.5-1.4s.2-1.1.6-1.5,1-.6,1.6-.6,1.3.3,1.8.8c.4.5.6,1.2.6,2.2s-.2,1.7-.7,2.3c-.5.6-1.2.8-2,.8s-.5,0-.8,0c-.2,0-.5-.1-.7-.2ZM428.8,130.4c.3,0,.5,0,.6-.3.1-.2.2-.4.2-.8s0-.6-.2-.8c-.1-.2-.3-.3-.6-.3s-.5,0-.6.3c-.1.2-.2.4-.2.8s0,.6.2.8c.1.2.3.3.6.3Z"/>
    </g>
  </g>
  <g id="text_41">
    <path id="DejaVuSans-Bold-372" data-name="DejaVuSans-Bold-37" class="st11" d="M170.3,257.6h4.4v.8l-2.3,5h-1.5l2.2-4.7h-2.8v-1.1Z"/>
  </g>
  <g id="text_42">
    <g>
      <path id="DejaVuSans-Bold-3115" data-name="DejaVuSans-Bold-31" class="st11" d="M275.4,246.4h1.3v-3.8l-1.4.3v-1l1.4-.3h1.4v4.8h1.3v1h-4.1v-1Z"/>
      <path id="DejaVuSans-Bold-3116" data-name="DejaVuSans-Bold-31" class="st11" d="M281,246.4h1.3v-3.8l-1.4.3v-1l1.4-.3h1.4v4.8h1.3v1h-4.1v-1Z"/>
    </g>
  </g>
  <g id="text_43">
    <g>
      <path id="DejaVuSans-Bold-3117" data-name="DejaVuSans-Bold-31" class="st11" d="M379,231.8h1.3v-3.8l-1.4.3v-1l1.4-.3h1.4v4.8h1.3v1h-4.1v-1Z"/>
      <path id="DejaVuSans-Bold-352" data-name="DejaVuSans-Bold-35" class="st11" d="M384.5,227h3.7v1.1h-2.5v.9c.1,0,.2,0,.3,0,.1,0,.2,0,.4,0,.7,0,1.3.2,1.7.5s.6.9.6,1.5-.2,1.1-.6,1.5c-.4.4-1,.5-1.8.5s-.7,0-1,0c-.3,0-.6-.2-1-.3v-1.2c.3.2.6.3.9.4.3,0,.6.1.8.1.4,0,.7,0,.9-.3.2-.2.3-.4.3-.7s-.1-.5-.3-.7c-.2-.2-.5-.3-.9-.3s-.4,0-.7,0c-.2,0-.5.1-.8.3v-3.3Z"/>
    </g>
  </g>
  <g id="text_44">
    <g>
      <path id="DejaVuSans-Bold-3118" data-name="DejaVuSans-Bold-31" class="st11" d="M486.5,211.9h1.3v-3.8l-1.4.3v-1l1.4-.3h1.4v4.8h1.3v1h-4.1v-1Z"/>
      <path id="DejaVuSans-Bold-382" data-name="DejaVuSans-Bold-38" class="st11" d="M493.9,210.3c-.3,0-.5,0-.6.2-.2.2-.2.4-.2.7s0,.5.2.7c.2.2.4.2.6.2s.5,0,.6-.2c.1-.2.2-.4.2-.7s0-.5-.2-.7-.4-.2-.6-.2ZM492.8,209.8c-.4-.1-.6-.3-.8-.5-.2-.2-.3-.5-.3-.8,0-.5.2-.9.5-1.1.4-.3.9-.4,1.6-.4s1.2.1,1.6.4c.4.3.6.6.6,1.1s0,.6-.3.8c-.2.2-.4.4-.8.5.4.1.7.3.9.5.2.2.3.6.3.9,0,.6-.2,1-.6,1.3-.4.3-1,.4-1.7.4s-1.3-.1-1.7-.4c-.4-.3-.6-.7-.6-1.3s.1-.7.3-.9c.2-.2.5-.4.9-.5ZM493.2,208.7c0,.2,0,.4.2.5s.3.2.6.2.4,0,.5-.2c.1-.1.2-.3.2-.5s0-.4-.2-.5c-.1-.1-.3-.2-.5-.2s-.4,0-.6.2-.2.3-.2.5Z"/>
    </g>
  </g>
  <g id="text_45">
    <path id="DejaVuSans-Bold-332" data-name="DejaVuSans-Bold-33" class="st11" d="M138.9,354.5c.4.1.7.3.9.5.2.3.3.6.3,1,0,.6-.2,1-.7,1.3-.4.3-1.1.5-1.9.5s-.6,0-.9,0c-.3,0-.6-.1-.9-.2v-1.2c.3.1.6.2.8.3.3,0,.6.1.8.1.4,0,.7,0,.9-.2.2-.1.3-.3.3-.6s-.1-.5-.3-.6-.5-.2-1-.2h-.6v-1h.6c.4,0,.7,0,.8-.2.2-.1.3-.3.3-.5s0-.4-.3-.5c-.2-.1-.4-.2-.8-.2s-.5,0-.7,0c-.2,0-.5.1-.7.2v-1.1c.3,0,.6-.1.9-.2s.6,0,.9,0c.8,0,1.3.1,1.7.4.4.2.6.6.6,1.1s0,.6-.3.8c-.2.2-.4.4-.8.5Z"/>
  </g>
  <g id="text_46">
    <path id="DejaVuSans-Bold-363" data-name="DejaVuSans-Bold-36" class="st11" d="M241.7,341.5c-.3,0-.5,0-.6.3-.1.2-.2.4-.2.8s0,.6.2.8c.1.2.3.3.6.3s.5,0,.6-.3c.1-.2.2-.4.2-.8s0-.6-.2-.8c-.1-.2-.3-.3-.6-.3ZM243.5,338.7v1.1c-.2-.1-.5-.2-.7-.3-.2,0-.4,0-.6,0-.4,0-.8.1-1,.4-.2.2-.4.6-.4,1.1.2-.1.4-.2.6-.3.2,0,.4,0,.7,0,.6,0,1.1.2,1.4.5.4.3.5.8.5,1.4s-.2,1.1-.6,1.5c-.4.4-1,.6-1.6.6s-1.3-.3-1.8-.8c-.4-.5-.6-1.2-.6-2.2s.2-1.7.7-2.3c.5-.6,1.2-.8,2-.8s.5,0,.8,0,.5.1.7.2Z"/>
  </g>
  <g id="text_47">
    <g>
      <path id="DejaVuSans-Bold-3119" data-name="DejaVuSans-Bold-31" class="st11" d="M340.5,327.4h1.3v-3.8l-1.4.3v-1l1.4-.3h1.4v4.8h1.3v1h-4.1v-1Z"/>
      <path id="DejaVuSans-Bold-301" data-name="DejaVuSans-Bold-30" class="st11" d="M348.8,325.5c0-.7,0-1.2-.2-1.5-.1-.3-.4-.4-.7-.4s-.6.1-.7.4c-.1.3-.2.8-.2,1.5s0,1.3.2,1.6c.1.3.4.5.7.5s.5-.2.7-.5c.1-.3.2-.8.2-1.6ZM350.3,325.6c0,1-.2,1.7-.6,2.2s-1,.8-1.8.8-1.4-.3-1.8-.8c-.4-.5-.6-1.3-.6-2.2s.2-1.7.6-2.2c.4-.5,1-.8,1.8-.8s1.4.3,1.8.8c.4.5.6,1.3.6,2.2Z"/>
    </g>
  </g>
  <g id="text_48">
    <g>
      <path id="DejaVuSans-Bold-3120" data-name="DejaVuSans-Bold-31" class="st11" d="M444,312.8h1.3v-3.8l-1.4.3v-1l1.4-.3h1.4v4.8h1.3v1h-4.1v-1Z"/>
      <path id="DejaVuSans-Bold-342" data-name="DejaVuSans-Bold-34" class="st11" d="M451.6,309.3l-1.6,2.4h1.6v-2.4ZM451.4,308h1.7v3.7h.8v1.1h-.8v1.1h-1.4v-1.1h-2.6v-1.3l2.3-3.5Z"/>
    </g>
  </g>
  <g id="text_49">
    <g>
      <path id="DejaVuSans-Bold-3121" data-name="DejaVuSans-Bold-31" class="st11" d="M552.9,296.9h1.3v-3.8l-1.4.3v-1l1.4-.3h1.4v4.8h1.3v1h-4.1v-1Z"/>
      <path id="DejaVuSans-Bold-373" data-name="DejaVuSans-Bold-37" class="st11" d="M558.1,292.1h4.4v.8l-2.3,5h-1.5l2.2-4.7h-2.8v-1.1Z"/>
    </g>
  </g>
  <g id="text_50">
    <path id="DejaVuSans-Bold-323" data-name="DejaVuSans-Bold-32" class="st11" d="M193.3,445.5h2.6v1.1h-4.2v-1.1l2.1-1.9c.2-.2.3-.3.4-.5s.1-.3.1-.5c0-.3,0-.5-.3-.7s-.4-.2-.7-.2-.5,0-.8.1c-.3,0-.6.2-.9.4v-1.3c.3-.1.7-.2,1-.3.3,0,.7,0,1,0,.7,0,1.2.2,1.6.5.4.3.6.7.6,1.3s0,.6-.2.9c-.2.3-.5.6-1,1.1l-1.2,1.1Z"/>
  </g>
  <g id="text_51">
    <path id="DejaVuSans-Bold-353" data-name="DejaVuSans-Bold-35" class="st11" d="M302,424.9h3.7v1.1h-2.5v.9c.1,0,.2,0,.3,0,.1,0,.2,0,.4,0,.7,0,1.3.2,1.7.5s.6.9.6,1.5-.2,1.1-.6,1.5c-.4.4-1,.5-1.8.5s-.7,0-1,0c-.3,0-.6-.2-1-.3v-1.2c.3.2.6.3.9.4.3,0,.6.1.8.1.4,0,.7,0,.9-.3.2-.2.3-.4.3-.7s-.1-.5-.3-.7c-.2-.2-.5-.3-.9-.3s-.4,0-.7,0c-.2,0-.5.1-.8.3v-3.3Z"/>
  </g>
  <g id="text_52">
    <path id="DejaVuSans-Bold-393" data-name="DejaVuSans-Bold-39" class="st11" d="M405.5,414.6v-1.1c.2.1.5.2.7.3.2,0,.4,0,.6,0,.4,0,.8-.1,1-.4.2-.2.4-.6.4-1.1-.2.1-.4.2-.6.3s-.4,0-.7,0c-.6,0-1.1-.2-1.4-.5-.4-.3-.5-.8-.5-1.4s.2-1.1.6-1.5,1-.6,1.6-.6,1.3.3,1.8.8c.4.5.6,1.2.6,2.2s-.2,1.7-.7,2.3c-.5.6-1.2.8-2,.8s-.5,0-.8,0c-.2,0-.5-.1-.7-.2ZM407.4,411.8c.3,0,.5,0,.6-.3.1-.2.2-.4.2-.8s0-.6-.2-.8c-.1-.2-.3-.3-.6-.3s-.5,0-.6.3c-.1.2-.2.4-.2.8s0,.6.2.8c.1.2.3.3.6.3Z"/>
  </g>
  <g id="text_53">
    <g>
      <path id="DejaVuSans-Bold-3122" data-name="DejaVuSans-Bold-31" class="st11" d="M507.8,399.1h1.3v-3.8l-1.4.3v-1l1.4-.3h1.4v4.8h1.3v1h-4.1v-1Z"/>
      <path id="DejaVuSans-Bold-333" data-name="DejaVuSans-Bold-33" class="st11" d="M516.1,397c.4.1.7.3.9.5.2.3.3.6.3,1,0,.6-.2,1-.7,1.3-.4.3-1.1.5-1.9.5s-.6,0-.9,0c-.3,0-.6-.1-.9-.2v-1.2c.3.1.6.2.8.3.3,0,.6.1.8.1.4,0,.7,0,.9-.2.2-.1.3-.3.3-.6s-.1-.5-.3-.6-.5-.2-1-.2h-.6v-1h.6c.4,0,.7,0,.8-.2.2-.1.3-.3.3-.5s0-.4-.3-.5c-.2-.1-.4-.2-.8-.2s-.5,0-.7,0c-.2,0-.5.1-.7.2v-1.1c.3,0,.6-.1.9-.2s.6,0,.9,0c.8,0,1.3.1,1.7.4.4.2.6.6.6,1.1s0,.6-.3.8c-.2.2-.4.4-.8.5Z"/>
    </g>
  </g>
  <g id="text_54">
    <path id="DejaVuSans-Bold-3123" data-name="DejaVuSans-Bold-31" class="st11" d="M255.6,531.9h1.3v-3.8l-1.4.3v-1l1.4-.3h1.4v4.8h1.3v1h-4.1v-1Z"/>
  </g>
  <g id="text_55">
    <path id="DejaVuSans-Bold-343" data-name="DejaVuSans-Bold-34" class="st11" d="M363.9,509.7l-1.6,2.4h1.6v-2.4ZM363.6,508.5h1.7v3.7h.8v1.1h-.8v1.1h-1.4v-1.1h-2.6v-1.3l2.3-3.5Z"/>
  </g>
  <g id="text_56">
    <path id="DejaVuSans-Bold-383" data-name="DejaVuSans-Bold-38" class="st11" d="M475.2,502.4c-.3,0-.5,0-.6.2-.2.2-.2.4-.2.7s0,.5.2.7c.2.2.4.2.6.2s.5,0,.6-.2c.1-.2.2-.4.2-.7s0-.5-.2-.7-.4-.2-.6-.2ZM474.1,501.9c-.4-.1-.6-.3-.8-.5-.2-.2-.3-.5-.3-.8,0-.5.2-.9.5-1.1.4-.3.9-.4,1.6-.4s1.2.1,1.6.4c.4.3.6.6.6,1.1s0,.6-.3.8c-.2.2-.4.4-.8.5.4.1.7.3.9.5.2.2.3.6.3.9,0,.6-.2,1-.6,1.3-.4.3-1,.4-1.7.4s-1.3-.1-1.7-.4c-.4-.3-.6-.7-.6-1.3s.1-.7.3-.9c.2-.2.5-.4.9-.5ZM474.5,500.8c0,.2,0,.4.2.5s.3.2.6.2.4,0,.5-.2c.1-.1.2-.3.2-.5s0-.4-.2-.5c-.1-.1-.3-.2-.5-.2s-.4,0-.6.2-.2.3-.2.5Z"/>
  </g>
  <g id="text_57">
    <g>
      <path id="DejaVuSans-Bold-41" d="M190.5,36.8h-3.8l-.6,1.7h-2.5l3.5-9.5h2.9l3.5,9.5h-2.5l-.6-1.7ZM187.3,35.1h2.6l-1.3-3.8-1.3,3.8Z"/>
      <path id="DejaVuSans-Bold-6c" d="M194.7,28.7h2.3v9.9h-2.3v-9.9Z"/>
      <path id="DejaVuSans-Bold-6c1" data-name="DejaVuSans-Bold-6c" d="M199.1,28.7h2.3v9.9h-2.3v-9.9Z"/>
      <path id="DejaVuSans-Bold-20" d="M202.5,38.5"/>
      <path id="DejaVuSans-Bold-63" d="M213.9,31.7v1.9c-.3-.2-.6-.4-.9-.5s-.6-.2-1-.2c-.6,0-1.1.2-1.5.6s-.5.9-.5,1.6.2,1.2.5,1.6c.4.4.8.6,1.5.6s.7,0,1-.2c.3-.1.6-.3.9-.5v1.9c-.4.1-.7.2-1.1.3-.4,0-.7,0-1.1,0-1.3,0-2.3-.3-3-1-.7-.7-1.1-1.6-1.1-2.7s.4-2.1,1.1-2.7c.7-.7,1.7-1,3-1s.7,0,1.1,0,.7.2,1.1.3Z"/>
      <path id="DejaVuSans-Bold-61" d="M219,35.3c-.5,0-.8,0-1.1.2-.2.2-.4.4-.4.7s0,.5.3.7c.2.2.5.2.8.2s.8-.2,1.1-.5c.3-.3.4-.7.4-1.2v-.3h-1.2ZM222.5,34.5v4.1h-2.3v-1.1c-.3.4-.6.7-1,.9-.4.2-.8.3-1.4.3s-1.3-.2-1.8-.6c-.5-.4-.7-1-.7-1.7s.3-1.4.9-1.8c.6-.4,1.5-.6,2.7-.6h1.3v-.2c0-.4-.1-.6-.4-.8-.3-.2-.7-.3-1.3-.3s-.9,0-1.4.1c-.4,0-.8.2-1.2.4v-1.7c.5-.1,1-.2,1.5-.3.5,0,1,0,1.5,0,1.3,0,2.2.3,2.8.8.6.5.9,1.3.9,2.5Z"/>
      <path id="DejaVuSans-Bold-6c2" data-name="DejaVuSans-Bold-6c" d="M224.6,28.7h2.3v9.9h-2.3v-9.9Z"/>
      <path id="DejaVuSans-Bold-69" d="M229.1,31.4h2.3v7.1h-2.3v-7.1ZM229.1,28.7h2.3v1.9h-2.3v-1.9Z"/>
      <path id="DejaVuSans-Bold-62" d="M237.3,37.1c.5,0,.9-.2,1.1-.5.3-.4.4-.9.4-1.5s-.1-1.2-.4-1.5c-.3-.4-.6-.5-1.1-.5s-.9.2-1.1.5c-.3.4-.4.9-.4,1.5s.1,1.2.4,1.5c.3.4.6.5,1.1.5ZM235.8,32.5c.3-.4.7-.7,1-.9.4-.2.8-.3,1.3-.3.9,0,1.6.3,2.2,1,.6.7.8,1.6.8,2.7s-.3,2-.8,2.7c-.6.7-1.3,1-2.2,1s-.9,0-1.3-.3c-.4-.2-.7-.5-1-.9v1h-2.3v-9.9h2.3v3.8Z"/>
      <path id="DejaVuSans-Bold-72" d="M248.1,33.4c-.2,0-.4-.2-.6-.2-.2,0-.4,0-.6,0-.6,0-1,.2-1.3.6-.3.4-.5.9-.5,1.6v3.3h-2.3v-7.1h2.3v1.2c.3-.5.6-.8,1-1,.4-.2.8-.3,1.4-.3s.2,0,.2,0c0,0,.2,0,.4,0v2.1Z"/>
      <path id="DejaVuSans-Bold-611" data-name="DejaVuSans-Bold-61" d="M252.4,35.3c-.5,0-.8,0-1.1.2-.2.2-.4.4-.4.7s0,.5.3.7c.2.2.5.2.8.2s.8-.2,1.1-.5c.3-.3.4-.7.4-1.2v-.3h-1.2ZM255.9,34.5v4.1h-2.3v-1.1c-.3.4-.6.7-1,.9-.4.2-.8.3-1.4.3s-1.3-.2-1.8-.6c-.5-.4-.7-1-.7-1.7s.3-1.4.9-1.8c.6-.4,1.5-.6,2.7-.6h1.3v-.2c0-.4-.1-.6-.4-.8-.3-.2-.7-.3-1.3-.3s-.9,0-1.4.1c-.4,0-.8.2-1.2.4v-1.7c.5-.1,1-.2,1.5-.3.5,0,1,0,1.5,0,1.3,0,2.2.3,2.8.8.6.5.9,1.3.9,2.5Z"/>
      <path id="DejaVuSans-Bold-74" d="M260.5,29.4v2h2.3v1.6h-2.3v3c0,.3,0,.6.2.7s.4.2.8.2h1.2v1.6h-1.9c-.9,0-1.5-.2-1.9-.6-.4-.4-.6-1-.6-1.9v-3h-1.1v-1.6h1.1v-2h2.3Z"/>
      <path id="DejaVuSans-Bold-691" data-name="DejaVuSans-Bold-69" d="M264.2,31.4h2.3v7.1h-2.3v-7.1ZM264.2,28.7h2.3v1.9h-2.3v-1.9Z"/>
      <path id="DejaVuSans-Bold-6f" d="M272.1,32.9c-.5,0-.9.2-1.2.5s-.4.9-.4,1.6.1,1.2.4,1.6c.3.4.6.5,1.2.5s.9-.2,1.1-.5c.3-.4.4-.9.4-1.6s-.1-1.2-.4-1.6c-.3-.4-.6-.5-1.1-.5ZM272.1,31.3c1.2,0,2.2.3,2.9,1,.7.7,1,1.6,1,2.7s-.3,2.1-1,2.7c-.7.7-1.6,1-2.9,1s-2.2-.3-2.9-1c-.7-.7-1-1.6-1-2.7s.3-2.1,1-2.7c.7-.7,1.7-1,2.9-1Z"/>
      <path id="DejaVuSans-Bold-6e" d="M284.8,34.2v4.3h-2.3v-3.3c0-.6,0-1,0-1.3s0-.4-.1-.5c0-.1-.2-.3-.4-.3-.2,0-.3-.1-.5-.1-.5,0-.8.2-1.1.6-.3.4-.4.9-.4,1.5v3.5h-2.3v-7.1h2.3v1c.3-.4.7-.7,1.1-.9.4-.2.8-.3,1.3-.3.8,0,1.4.3,1.9.8.4.5.6,1.2.6,2.2Z"/>
      <path id="DejaVuSans-Bold-201" data-name="DejaVuSans-Bold-20" d="M285.8,38.5"/>
      <path id="DejaVuSans-Bold-70" d="M293.7,37.5v3.7h-2.3v-9.8h2.3v1c.3-.4.7-.7,1-.9.4-.2.8-.3,1.3-.3.9,0,1.6.3,2.2,1,.6.7.8,1.6.8,2.7s-.3,2-.8,2.7c-.6.7-1.3,1-2.2,1s-.9,0-1.3-.3c-.4-.2-.7-.5-1-.9ZM295.2,32.9c-.5,0-.9.2-1.1.5-.3.4-.4.9-.4,1.5s.1,1.2.4,1.5c.3.4.6.5,1.1.5s.9-.2,1.1-.5c.3-.4.4-.9.4-1.5s-.1-1.2-.4-1.5c-.3-.4-.6-.5-1.1-.5Z"/>
      <path id="DejaVuSans-Bold-6f1" data-name="DejaVuSans-Bold-6f" d="M304.1,32.9c-.5,0-.9.2-1.2.5s-.4.9-.4,1.6.1,1.2.4,1.6c.3.4.6.5,1.2.5s.9-.2,1.1-.5c.3-.4.4-.9.4-1.6s-.1-1.2-.4-1.6c-.3-.4-.6-.5-1.1-.5ZM304.1,31.3c1.2,0,2.2.3,2.9,1,.7.7,1,1.6,1,2.7s-.3,2.1-1,2.7c-.7.7-1.6,1-2.9,1s-2.2-.3-2.9-1c-.7-.7-1-1.6-1-2.7s.3-2.1,1-2.7c.7-.7,1.7-1,2.9-1Z"/>
      <path id="DejaVuSans-Bold-692" data-name="DejaVuSans-Bold-69" d="M309.6,31.4h2.3v7.1h-2.3v-7.1ZM309.6,28.7h2.3v1.9h-2.3v-1.9Z"/>
      <path id="DejaVuSans-Bold-6e1" data-name="DejaVuSans-Bold-6e" d="M321.2,34.2v4.3h-2.3v-3.3c0-.6,0-1,0-1.3s0-.4-.1-.5c0-.1-.2-.3-.4-.3-.2,0-.3-.1-.5-.1-.5,0-.8.2-1.1.6-.3.4-.4.9-.4,1.5v3.5h-2.3v-7.1h2.3v1c.3-.4.7-.7,1.1-.9.4-.2.8-.3,1.3-.3.8,0,1.4.3,1.9.8.4.5.6,1.2.6,2.2Z"/>
      <path id="DejaVuSans-Bold-741" data-name="DejaVuSans-Bold-74" d="M325.8,29.4v2h2.3v1.6h-2.3v3c0,.3,0,.6.2.7s.4.2.8.2h1.2v1.6h-1.9c-.9,0-1.5-.2-1.9-.6-.4-.4-.6-1-.6-1.9v-3h-1.1v-1.6h1.1v-2h2.3Z"/>
      <path id="DejaVuSans-Bold-73" d="M335.1,31.7v1.7c-.5-.2-1-.4-1.4-.5-.5-.1-.9-.2-1.3-.2s-.8,0-1,.2c-.2.1-.3.3-.3.5s0,.3.2.4c.2,0,.4.2.9.2h.4c1.2.2,1.9.4,2.3.8.4.3.6.9.6,1.6s-.3,1.3-.8,1.7c-.6.4-1.4.6-2.5.6s-1,0-1.5-.1c-.5,0-1-.2-1.5-.3v-1.7c.5.2.9.4,1.4.5.5.1,1,.2,1.5.2s.8,0,1-.2c.2-.1.3-.3.3-.5s0-.4-.2-.5-.5-.2-.9-.2h-.4c-1-.2-1.7-.4-2.1-.8s-.6-.9-.6-1.6.3-1.3.8-1.7c.5-.4,1.3-.5,2.4-.5s.9,0,1.3,0c.5,0,1,.2,1.5.3Z"/>
      <path id="DejaVuSans-Bold-202" data-name="DejaVuSans-Bold-20" d="M336.2,38.5"/>
      <path id="DejaVuSans-Bold-28" d="M345.6,40.3h-1.9c-.6-1-1.1-2-1.4-3-.3-.9-.5-1.9-.5-2.8s.2-1.9.5-2.8c.3-1,.8-1.9,1.4-3h1.9c-.5,1-.9,2-1.2,2.9s-.4,1.9-.4,2.8.1,1.9.4,2.8c.3,1,.7,1.9,1.2,3Z"/>
      <path id="DejaVuSans-Bold-742" data-name="DejaVuSans-Bold-74" d="M350.2,29.4v2h2.3v1.6h-2.3v3c0,.3,0,.6.2.7s.4.2.8.2h1.2v1.6h-1.9c-.9,0-1.5-.2-1.9-.6-.4-.4-.6-1-.6-1.9v-3h-1.1v-1.6h1.1v-2h2.3Z"/>
      <path id="DejaVuSans-Bold-721" data-name="DejaVuSans-Bold-72" d="M359.3,33.4c-.2,0-.4-.2-.6-.2-.2,0-.4,0-.6,0-.6,0-1,.2-1.3.6-.3.4-.5.9-.5,1.6v3.3h-2.3v-7.1h2.3v1.2c.3-.5.6-.8,1-1,.4-.2.8-.3,1.4-.3s.2,0,.2,0c0,0,.2,0,.4,0v2.1Z"/>
      <path id="DejaVuSans-Bold-612" data-name="DejaVuSans-Bold-61" d="M363.6,35.3c-.5,0-.8,0-1.1.2-.2.2-.4.4-.4.7s0,.5.3.7c.2.2.5.2.8.2s.8-.2,1.1-.5c.3-.3.4-.7.4-1.2v-.3h-1.2ZM367,34.5v4.1h-2.3v-1.1c-.3.4-.6.7-1,.9-.4.2-.8.3-1.4.3s-1.3-.2-1.8-.6c-.5-.4-.7-1-.7-1.7s.3-1.4.9-1.8c.6-.4,1.5-.6,2.7-.6h1.3v-.2c0-.4-.1-.6-.4-.8-.3-.2-.7-.3-1.3-.3s-.9,0-1.4.1c-.4,0-.8.2-1.2.4v-1.7c.5-.1,1-.2,1.5-.3.5,0,1,0,1.5,0,1.3,0,2.2.3,2.8.8.6.5.9,1.3.9,2.5Z"/>
      <path id="DejaVuSans-Bold-6e2" data-name="DejaVuSans-Bold-6e" d="M376.3,34.2v4.3h-2.3v-3.3c0-.6,0-1,0-1.3s0-.4-.1-.5c0-.1-.2-.3-.4-.3-.2,0-.3-.1-.5-.1-.5,0-.8.2-1.1.6-.3.4-.4.9-.4,1.5v3.5h-2.3v-7.1h2.3v1c.3-.4.7-.7,1.1-.9.4-.2.8-.3,1.3-.3.8,0,1.4.3,1.9.8.4.5.6,1.2.6,2.2Z"/>
      <path id="DejaVuSans-Bold-731" data-name="DejaVuSans-Bold-73" d="M384,31.7v1.7c-.5-.2-1-.4-1.4-.5-.5-.1-.9-.2-1.3-.2s-.8,0-1,.2c-.2.1-.3.3-.3.5s0,.3.2.4c.2,0,.4.2.9.2h.4c1.2.2,1.9.4,2.3.8.4.3.6.9.6,1.6s-.3,1.3-.8,1.7c-.6.4-1.4.6-2.5.6s-1,0-1.5-.1c-.5,0-1-.2-1.5-.3v-1.7c.5.2.9.4,1.4.5.5.1,1,.2,1.5.2s.8,0,1-.2c.2-.1.3-.3.3-.5s0-.4-.2-.5-.5-.2-.9-.2h-.4c-1-.2-1.7-.4-2.1-.8s-.6-.9-.6-1.6.3-1.3.8-1.7c.5-.4,1.3-.5,2.4-.5s.9,0,1.3,0c.5,0,1,.2,1.5.3Z"/>
      <path id="DejaVuSans-Bold-6c3" data-name="DejaVuSans-Bold-6c" d="M386.1,28.7h2.3v9.9h-2.3v-9.9Z"/>
      <path id="DejaVuSans-Bold-613" data-name="DejaVuSans-Bold-61" d="M393.8,35.3c-.5,0-.8,0-1.1.2-.2.2-.4.4-.4.7s0,.5.3.7c.2.2.5.2.8.2s.8-.2,1.1-.5c.3-.3.4-.7.4-1.2v-.3h-1.2ZM397.3,34.5v4.1h-2.3v-1.1c-.3.4-.6.7-1,.9-.4.2-.8.3-1.4.3s-1.3-.2-1.8-.6c-.5-.4-.7-1-.7-1.7s.3-1.4.9-1.8c.6-.4,1.5-.6,2.7-.6h1.3v-.2c0-.4-.1-.6-.4-.8-.3-.2-.7-.3-1.3-.3s-.9,0-1.4.1c-.4,0-.8.2-1.2.4v-1.7c.5-.1,1-.2,1.5-.3.5,0,1,0,1.5,0,1.3,0,2.2.3,2.8.8.6.5.9,1.3.9,2.5Z"/>
      <path id="DejaVuSans-Bold-743" data-name="DejaVuSans-Bold-74" d="M401.9,29.4v2h2.3v1.6h-2.3v3c0,.3,0,.6.2.7s.4.2.8.2h1.2v1.6h-1.9c-.9,0-1.5-.2-1.9-.6-.4-.4-.6-1-.6-1.9v-3h-1.1v-1.6h1.1v-2h2.3Z"/>
      <path id="DejaVuSans-Bold-65" d="M412.7,35v.6h-5.3c0,.5.2.9.6,1.2s.8.4,1.4.4,1,0,1.5-.2c.5-.1,1-.4,1.5-.6v1.8c-.5.2-1.1.4-1.6.5-.5.1-1.1.2-1.6.2-1.3,0-2.3-.3-3-1-.7-.7-1.1-1.6-1.1-2.8s.4-2.1,1.1-2.7c.7-.7,1.7-1,2.9-1s2,.3,2.7,1c.7.7,1,1.6,1,2.7ZM410.3,34.2c0-.4-.1-.8-.4-1-.3-.3-.6-.4-1-.4s-.8.1-1.1.4-.4.6-.5,1.1h3Z"/>
      <path id="DejaVuSans-Bold-64" d="M419.2,32.5v-3.8h2.3v9.9h-2.3v-1c-.3.4-.7.7-1,.9-.4.2-.8.3-1.3.3-.9,0-1.6-.3-2.2-1-.6-.7-.8-1.6-.8-2.7s.3-2,.8-2.7c.6-.7,1.3-1,2.2-1s.9,0,1.3.3.7.5,1,.9ZM417.7,37.1c.5,0,.9-.2,1.1-.5.3-.4.4-.9.4-1.5s-.1-1.2-.4-1.5c-.3-.4-.6-.5-1.1-.5s-.9.2-1.1.5c-.3.4-.4.9-.4,1.5s.1,1.2.4,1.5c.3.4.6.5,1.1.5Z"/>
      <path id="DejaVuSans-Bold-29" d="M423.7,40.3c.5-1,.9-2,1.2-3,.3-1,.4-1.9.4-2.8s-.1-1.9-.4-2.8c-.3-1-.7-1.9-1.2-2.9h1.9c.6,1,1.1,2,1.4,3,.3.9.5,1.9.5,2.8s-.2,1.9-.5,2.8c-.3.9-.8,1.9-1.4,3h-1.9Z"/>
      <path id="DejaVuSans-Bold-203" data-name="DejaVuSans-Bold-20" d="M428.6,38.5"/>
      <path id="DejaVuSans-Bold-204" data-name="DejaVuSans-Bold-20" d="M433.1,38.5"/>
      <path id="DejaVuSans-Bold-281" data-name="DejaVuSans-Bold-28" d="M442.5,40.3h-1.9c-.6-1-1.1-2-1.4-3-.3-.9-.5-1.9-.5-2.8s.2-1.9.5-2.8c.3-1,.8-1.9,1.4-3h1.9c-.5,1-.9,2-1.2,2.9s-.4,1.9-.4,2.8.1,1.9.4,2.8c.3,1,.7,1.9,1.2,3Z"/>
      <path id="DejaVuSans-Bold-384" data-name="DejaVuSans-Bold-38" d="M448.1,34.3c-.5,0-.8.1-1.1.4-.2.2-.4.6-.4,1.1s.1.8.4,1.1c.2.2.6.4,1.1.4s.8-.1,1-.4c.2-.2.4-.6.4-1.1s-.1-.8-.4-1.1-.6-.4-1-.4ZM446.3,33.5c-.6-.2-1-.4-1.3-.8-.3-.4-.4-.8-.4-1.3,0-.8.3-1.4.9-1.8.6-.4,1.5-.6,2.6-.6s2,.2,2.6.6c.6.4.9,1,.9,1.8s-.1,1-.4,1.3c-.3.4-.7.6-1.3.8.6.2,1.1.5,1.5.9.3.4.5.9.5,1.5,0,.9-.3,1.7-.9,2.1-.6.5-1.5.7-2.8.7s-2.2-.2-2.8-.7c-.6-.5-.9-1.2-.9-2.1s.2-1.1.5-1.5c.3-.4.8-.7,1.5-.9ZM446.9,31.6c0,.4.1.7.3.9s.5.3.9.3.7-.1.9-.3c.2-.2.3-.5.3-.9s-.1-.7-.3-.9c-.2-.2-.5-.3-.9-.3s-.7.1-.9.3-.3.5-.3.9Z"/>
      <path id="DejaVuSans-Bold-354" data-name="DejaVuSans-Bold-35" d="M454,29.1h6.1v1.8h-4.1v1.5c.2,0,.4,0,.6-.1.2,0,.4,0,.6,0,1.2,0,2.1.3,2.7.9s1,1.4,1,2.4-.4,1.8-1.1,2.4c-.7.6-1.7.9-2.9.9s-1.1,0-1.6-.2c-.5-.1-1.1-.3-1.6-.5v-1.9c.5.3,1,.5,1.5.7.5.1.9.2,1.3.2.6,0,1.1-.1,1.4-.4.3-.3.5-.7.5-1.2s-.2-.9-.5-1.2c-.3-.3-.8-.4-1.4-.4s-.7,0-1.1.1c-.4,0-.8.2-1.3.4v-5.3Z"/>
      <path id="DejaVuSans-Bold-205" data-name="DejaVuSans-Bold-20" d="M461.6,38.5"/>
      <path id="DejaVuSans-Bold-744" data-name="DejaVuSans-Bold-74" d="M469.7,29.4v2h2.3v1.6h-2.3v3c0,.3,0,.6.2.7s.4.2.8.2h1.2v1.6h-1.9c-.9,0-1.5-.2-1.9-.6-.4-.4-.6-1-.6-1.9v-3h-1.1v-1.6h1.1v-2h2.3Z"/>
      <path id="DejaVuSans-Bold-6f2" data-name="DejaVuSans-Bold-6f" d="M476.9,32.9c-.5,0-.9.2-1.2.5s-.4.9-.4,1.6.1,1.2.4,1.6c.3.4.6.5,1.2.5s.9-.2,1.1-.5c.3-.4.4-.9.4-1.6s-.1-1.2-.4-1.6c-.3-.4-.6-.5-1.1-.5ZM476.9,31.3c1.2,0,2.2.3,2.9,1,.7.7,1,1.6,1,2.7s-.3,2.1-1,2.7c-.7.7-1.6,1-2.9,1s-2.2-.3-2.9-1c-.7-.7-1-1.6-1-2.7s.3-2.1,1-2.7c.7-.7,1.7-1,2.9-1Z"/>
      <path id="DejaVuSans-Bold-745" data-name="DejaVuSans-Bold-74" d="M484.9,29.4v2h2.3v1.6h-2.3v3c0,.3,0,.6.2.7s.4.2.8.2h1.2v1.6h-1.9c-.9,0-1.5-.2-1.9-.6-.4-.4-.6-1-.6-1.9v-3h-1.1v-1.6h1.1v-2h2.3Z"/>
      <path id="DejaVuSans-Bold-614" data-name="DejaVuSans-Bold-61" d="M491.8,35.3c-.5,0-.8,0-1.1.2-.2.2-.4.4-.4.7s0,.5.3.7c.2.2.5.2.8.2s.8-.2,1.1-.5c.3-.3.4-.7.4-1.2v-.3h-1.2ZM495.3,34.5v4.1h-2.3v-1.1c-.3.4-.6.7-1,.9-.4.2-.8.3-1.4.3s-1.3-.2-1.8-.6c-.5-.4-.7-1-.7-1.7s.3-1.4.9-1.8c.6-.4,1.5-.6,2.7-.6h1.3v-.2c0-.4-.1-.6-.4-.8-.3-.2-.7-.3-1.3-.3s-.9,0-1.4.1c-.4,0-.8.2-1.2.4v-1.7c.5-.1,1-.2,1.5-.3.5,0,1,0,1.5,0,1.3,0,2.2.3,2.8.8.6.5.9,1.3.9,2.5Z"/>
      <path id="DejaVuSans-Bold-6c4" data-name="DejaVuSans-Bold-6c" d="M497.4,28.7h2.3v9.9h-2.3v-9.9Z"/>
      <path id="DejaVuSans-Bold-291" data-name="DejaVuSans-Bold-29" d="M501.8,40.3c.5-1,.9-2,1.2-3,.3-1,.4-1.9.4-2.8s-.1-1.9-.4-2.8c-.3-1-.7-1.9-1.2-2.9h1.9c.6,1,1.1,2,1.4,3,.3.9.5,1.9.5,2.8s-.2,1.9-.5,2.8c-.3.9-.8,1.9-1.4,3h-1.9Z"/>
    </g>
  </g>
  <g id="PathCollection_1">
    <g class="st13">
      <g>
        <path id="md95b5c89d3" class="st7" d="M292,134.3c1,0,1.9-.4,2.6-1.1.7-.7,1.1-1.6,1.1-2.6s-.4-1.9-1.1-2.6c-.7-.7-1.6-1.1-2.6-1.1s-1.9.4-2.6,1.1c-.7.7-1.1,1.6-1.1,2.6s.4,1.9,1.1,2.6c.7.7,1.6,1.1,2.6,1.1Z"/>
        <path id="md95b5c89d31" data-name="md95b5c89d3" class="st7" d="M398.2,134.3c1,0,1.9-.4,2.6-1.1.7-.7,1.1-1.6,1.1-2.6s-.4-1.9-1.1-2.6c-.7-.7-1.6-1.1-2.6-1.1s-1.9.4-2.6,1.1c-.7.7-1.1,1.6-1.1,2.6s.4,1.9,1.1,2.6c.7.7,1.6,1.1,2.6,1.1Z"/>
        <path id="md95b5c89d32" data-name="md95b5c89d3" class="st7" d="M238.9,227.2c1,0,1.9-.4,2.6-1.1.7-.7,1.1-1.6,1.1-2.6s-.4-1.9-1.1-2.6c-.7-.7-1.6-1.1-2.6-1.1s-1.9.4-2.6,1.1c-.7.7-1.1,1.6-1.1,2.6s.4,1.9,1.1,2.6c.7.7,1.6,1.1,2.6,1.1Z"/>
        <path id="md95b5c89d33" data-name="md95b5c89d3" class="st7" d="M345.1,227.2c1,0,1.9-.4,2.6-1.1.7-.7,1.1-1.6,1.1-2.6s-.4-1.9-1.1-2.6c-.7-.7-1.6-1.1-2.6-1.1s-1.9.4-2.6,1.1c-.7.7-1.1,1.6-1.1,2.6s.4,1.9,1.1,2.6c.7.7,1.6,1.1,2.6,1.1Z"/>
        <path id="md95b5c89d34" data-name="md95b5c89d3" class="st7" d="M451.3,227.2c1,0,1.9-.4,2.6-1.1.7-.7,1.1-1.6,1.1-2.6s-.4-1.9-1.1-2.6c-.7-.7-1.6-1.1-2.6-1.1s-1.9.4-2.6,1.1c-.7.7-1.1,1.6-1.1,2.6s.4,1.9,1.1,2.6c.7.7,1.6,1.1,2.6,1.1Z"/>
        <path id="md95b5c89d35" data-name="md95b5c89d3" class="st7" d="M185.8,320.2c1,0,1.9-.4,2.6-1.1.7-.7,1.1-1.6,1.1-2.6s-.4-1.9-1.1-2.6c-.7-.7-1.6-1.1-2.6-1.1s-1.9.4-2.6,1.1c-.7.7-1.1,1.6-1.1,2.6s.4,1.9,1.1,2.6c.7.7,1.6,1.1,2.6,1.1Z"/>
        <path id="md95b5c89d36" data-name="md95b5c89d3" class="st7" d="M292,320.2c1,0,1.9-.4,2.6-1.1.7-.7,1.1-1.6,1.1-2.6s-.4-1.9-1.1-2.6c-.7-.7-1.6-1.1-2.6-1.1s-1.9.4-2.6,1.1c-.7.7-1.1,1.6-1.1,2.6s.4,1.9,1.1,2.6c.7.7,1.6,1.1,2.6,1.1Z"/>
        <path id="md95b5c89d37" data-name="md95b5c89d3" class="st7" d="M398.2,320.2c1,0,1.9-.4,2.6-1.1.7-.7,1.1-1.6,1.1-2.6s-.4-1.9-1.1-2.6c-.7-.7-1.6-1.1-2.6-1.1s-1.9.4-2.6,1.1c-.7.7-1.1,1.6-1.1,2.6s.4,1.9,1.1,2.6c.7.7,1.6,1.1,2.6,1.1Z"/>
        <path id="md95b5c89d38" data-name="md95b5c89d3" class="st7" d="M504.4,320.2c1,0,1.9-.4,2.6-1.1.7-.7,1.1-1.6,1.1-2.6s-.4-1.9-1.1-2.6c-.7-.7-1.6-1.1-2.6-1.1s-1.9.4-2.6,1.1c-.7.7-1.1,1.6-1.1,2.6s.4,1.9,1.1,2.6c.7.7,1.6,1.1,2.6,1.1Z"/>
        <path id="md95b5c89d39" data-name="md95b5c89d3" class="st7" d="M238.9,413.1c1,0,1.9-.4,2.6-1.1.7-.7,1.1-1.6,1.1-2.6s-.4-1.9-1.1-2.6c-.7-.7-1.6-1.1-2.6-1.1s-1.9.4-2.6,1.1c-.7.7-1.1,1.6-1.1,2.6s.4,1.9,1.1,2.6c.7.7,1.6,1.1,2.6,1.1Z"/>
        <path id="md95b5c89d310" data-name="md95b5c89d3" class="st7" d="M345.1,413.1c1,0,1.9-.4,2.6-1.1.7-.7,1.1-1.6,1.1-2.6s-.4-1.9-1.1-2.6c-.7-.7-1.6-1.1-2.6-1.1s-1.9.4-2.6,1.1c-.7.7-1.1,1.6-1.1,2.6s.4,1.9,1.1,2.6c.7.7,1.6,1.1,2.6,1.1Z"/>
        <path id="md95b5c89d311" data-name="md95b5c89d3" class="st7" d="M451.3,413.1c1,0,1.9-.4,2.6-1.1.7-.7,1.1-1.6,1.1-2.6s-.4-1.9-1.1-2.6c-.7-.7-1.6-1.1-2.6-1.1s-1.9.4-2.6,1.1c-.7.7-1.1,1.6-1.1,2.6s.4,1.9,1.1,2.6c.7.7,1.6,1.1,2.6,1.1Z"/>
        <path id="md95b5c89d312" data-name="md95b5c89d3" class="st7" d="M292,506c1,0,1.9-.4,2.6-1.1.7-.7,1.1-1.6,1.1-2.6s-.4-1.9-1.1-2.6c-.7-.7-1.6-1.1-2.6-1.1s-1.9.4-2.6,1.1c-.7.7-1.1,1.6-1.1,2.6s.4,1.9,1.1,2.6c.7.7,1.6,1.1,2.6,1.1Z"/>
        <path id="md95b5c89d313" data-name="md95b5c89d3" class="st7" d="M398.2,506c1,0,1.9-.4,2.6-1.1.7-.7,1.1-1.6,1.1-2.6s-.4-1.9-1.1-2.6c-.7-.7-1.6-1.1-2.6-1.1s-1.9.4-2.6,1.1c-.7.7-1.1,1.6-1.1,2.6s.4,1.9,1.1,2.6c.7.7,1.6,1.1,2.6,1.1Z"/>
      </g>
    </g>
  </g>
  <g id="PathCollection_2">
    <g class="st22">
      <g>
        <path id="ma9e737f72f" class="st8" d="M212.3,180.8c1,0,1.9-.4,2.6-1.1.7-.7,1.1-1.6,1.1-2.6s-.4-1.9-1.1-2.6c-.7-.7-1.6-1.1-2.6-1.1s-1.9.4-2.6,1.1c-.7.7-1.1,1.6-1.1,2.6s.4,1.9,1.1,2.6c.7.7,1.6,1.1,2.6,1.1Z"/>
        <path id="ma9e737f72f1" data-name="ma9e737f72f" class="st8" d="M265.5,180.8c1,0,1.9-.4,2.6-1.1.7-.7,1.1-1.6,1.1-2.6s-.4-1.9-1.1-2.6c-.7-.7-1.6-1.1-2.6-1.1s-1.9.4-2.6,1.1c-.7.7-1.1,1.6-1.1,2.6s.4,1.9,1.1,2.6c.7.7,1.6,1.1,2.6,1.1Z"/>
        <path id="ma9e737f72f2" data-name="ma9e737f72f" class="st8" d="M318.6,180.8c1,0,1.9-.4,2.6-1.1.7-.7,1.1-1.6,1.1-2.6s-.4-1.9-1.1-2.6c-.7-.7-1.6-1.1-2.6-1.1s-1.9.4-2.6,1.1c-.7.7-1.1,1.6-1.1,2.6s.4,1.9,1.1,2.6c.7.7,1.6,1.1,2.6,1.1Z"/>
        <path id="ma9e737f72f3" data-name="ma9e737f72f" class="st8" d="M371.7,180.8c1,0,1.9-.4,2.6-1.1.7-.7,1.1-1.6,1.1-2.6s-.4-1.9-1.1-2.6c-.7-.7-1.6-1.1-2.6-1.1s-1.9.4-2.6,1.1c-.7.7-1.1,1.6-1.1,2.6s.4,1.9,1.1,2.6c.7.7,1.6,1.1,2.6,1.1Z"/>
        <path id="ma9e737f72f4" data-name="ma9e737f72f" class="st8" d="M424.8,180.8c1,0,1.9-.4,2.6-1.1.7-.7,1.1-1.6,1.1-2.6s-.4-1.9-1.1-2.6c-.7-.7-1.6-1.1-2.6-1.1s-1.9.4-2.6,1.1c-.7.7-1.1,1.6-1.1,2.6s.4,1.9,1.1,2.6c.7.7,1.6,1.1,2.6,1.1Z"/>
        <path id="ma9e737f72f5" data-name="ma9e737f72f" class="st8" d="M477.9,180.8c1,0,1.9-.4,2.6-1.1.7-.7,1.1-1.6,1.1-2.6s-.4-1.9-1.1-2.6c-.7-.7-1.6-1.1-2.6-1.1s-1.9.4-2.6,1.1c-.7.7-1.1,1.6-1.1,2.6s.4,1.9,1.1,2.6c.7.7,1.6,1.1,2.6,1.1Z"/>
        <path id="ma9e737f72f6" data-name="ma9e737f72f" class="st8" d="M159.2,273.7c1,0,1.9-.4,2.6-1.1.7-.7,1.1-1.6,1.1-2.6s-.4-1.9-1.1-2.6c-.7-.7-1.6-1.1-2.6-1.1s-1.9.4-2.6,1.1c-.7.7-1.1,1.6-1.1,2.6s.4,1.9,1.1,2.6c.7.7,1.6,1.1,2.6,1.1Z"/>
        <path id="ma9e737f72f7" data-name="ma9e737f72f" class="st8" d="M212.3,273.7c1,0,1.9-.4,2.6-1.1.7-.7,1.1-1.6,1.1-2.6s-.4-1.9-1.1-2.6c-.7-.7-1.6-1.1-2.6-1.1s-1.9.4-2.6,1.1c-.7.7-1.1,1.6-1.1,2.6s.4,1.9,1.1,2.6c.7.7,1.6,1.1,2.6,1.1Z"/>
        <path id="ma9e737f72f8" data-name="ma9e737f72f" class="st8" d="M265.5,273.7c1,0,1.9-.4,2.6-1.1.7-.7,1.1-1.6,1.1-2.6s-.4-1.9-1.1-2.6c-.7-.7-1.6-1.1-2.6-1.1s-1.9.4-2.6,1.1c-.7.7-1.1,1.6-1.1,2.6s.4,1.9,1.1,2.6c.7.7,1.6,1.1,2.6,1.1Z"/>
        <path id="ma9e737f72f9" data-name="ma9e737f72f" class="st8" d="M318.6,273.7c1,0,1.9-.4,2.6-1.1.7-.7,1.1-1.6,1.1-2.6s-.4-1.9-1.1-2.6c-.7-.7-1.6-1.1-2.6-1.1s-1.9.4-2.6,1.1c-.7.7-1.1,1.6-1.1,2.6s.4,1.9,1.1,2.6c.7.7,1.6,1.1,2.6,1.1Z"/>
        <path id="ma9e737f72f10" data-name="ma9e737f72f" class="st8" d="M371.7,273.7c1,0,1.9-.4,2.6-1.1.7-.7,1.1-1.6,1.1-2.6s-.4-1.9-1.1-2.6c-.7-.7-1.6-1.1-2.6-1.1s-1.9.4-2.6,1.1c-.7.7-1.1,1.6-1.1,2.6s.4,1.9,1.1,2.6c.7.7,1.6,1.1,2.6,1.1Z"/>
        <path id="ma9e737f72f11" data-name="ma9e737f72f" class="st8" d="M424.8,273.7c1,0,1.9-.4,2.6-1.1.7-.7,1.1-1.6,1.1-2.6s-.4-1.9-1.1-2.6c-.7-.7-1.6-1.1-2.6-1.1s-1.9.4-2.6,1.1c-.7.7-1.1,1.6-1.1,2.6s.4,1.9,1.1,2.6c.7.7,1.6,1.1,2.6,1.1Z"/>
        <path id="ma9e737f72f12" data-name="ma9e737f72f" class="st8" d="M477.9,273.7c1,0,1.9-.4,2.6-1.1.7-.7,1.1-1.6,1.1-2.6s-.4-1.9-1.1-2.6c-.7-.7-1.6-1.1-2.6-1.1s-1.9.4-2.6,1.1c-.7.7-1.1,1.6-1.1,2.6s.4,1.9,1.1,2.6c.7.7,1.6,1.1,2.6,1.1Z"/>
        <path id="ma9e737f72f13" data-name="ma9e737f72f" class="st8" d="M531,273.7c1,0,1.9-.4,2.6-1.1.7-.7,1.1-1.6,1.1-2.6s-.4-1.9-1.1-2.6c-.7-.7-1.6-1.1-2.6-1.1s-1.9.4-2.6,1.1c-.7.7-1.1,1.6-1.1,2.6s.4,1.9,1.1,2.6c.7.7,1.6,1.1,2.6,1.1Z"/>
        <path id="ma9e737f72f14" data-name="ma9e737f72f" class="st8" d="M159.2,366.6c1,0,1.9-.4,2.6-1.1.7-.7,1.1-1.6,1.1-2.6s-.4-1.9-1.1-2.6c-.7-.7-1.6-1.1-2.6-1.1s-1.9.4-2.6,1.1c-.7.7-1.1,1.6-1.1,2.6s.4,1.9,1.1,2.6c.7.7,1.6,1.1,2.6,1.1Z"/>
        <path id="ma9e737f72f15" data-name="ma9e737f72f" class="st8" d="M212.3,366.6c1,0,1.9-.4,2.6-1.1.7-.7,1.1-1.6,1.1-2.6s-.4-1.9-1.1-2.6c-.7-.7-1.6-1.1-2.6-1.1s-1.9.4-2.6,1.1c-.7.7-1.1,1.6-1.1,2.6s.4,1.9,1.1,2.6c.7.7,1.6,1.1,2.6,1.1Z"/>
        <path id="ma9e737f72f16" data-name="ma9e737f72f" class="st8" d="M265.5,366.6c1,0,1.9-.4,2.6-1.1.7-.7,1.1-1.6,1.1-2.6s-.4-1.9-1.1-2.6c-.7-.7-1.6-1.1-2.6-1.1s-1.9.4-2.6,1.1c-.7.7-1.1,1.6-1.1,2.6s.4,1.9,1.1,2.6c.7.7,1.6,1.1,2.6,1.1Z"/>
        <path id="ma9e737f72f17" data-name="ma9e737f72f" class="st8" d="M318.6,366.6c1,0,1.9-.4,2.6-1.1.7-.7,1.1-1.6,1.1-2.6s-.4-1.9-1.1-2.6c-.7-.7-1.6-1.1-2.6-1.1s-1.9.4-2.6,1.1c-.7.7-1.1,1.6-1.1,2.6s.4,1.9,1.1,2.6c.7.7,1.6,1.1,2.6,1.1Z"/>
        <path id="ma9e737f72f18" data-name="ma9e737f72f" class="st8" d="M371.7,366.6c1,0,1.9-.4,2.6-1.1.7-.7,1.1-1.6,1.1-2.6s-.4-1.9-1.1-2.6c-.7-.7-1.6-1.1-2.6-1.1s-1.9.4-2.6,1.1c-.7.7-1.1,1.6-1.1,2.6s.4,1.9,1.1,2.6c.7.7,1.6,1.1,2.6,1.1Z"/>
        <path id="ma9e737f72f19" data-name="ma9e737f72f" class="st8" d="M424.8,366.6c1,0,1.9-.4,2.6-1.1.7-.7,1.1-1.6,1.1-2.6s-.4-1.9-1.1-2.6c-.7-.7-1.6-1.1-2.6-1.1s-1.9.4-2.6,1.1c-.7.7-1.1,1.6-1.1,2.6s.4,1.9,1.1,2.6c.7.7,1.6,1.1,2.6,1.1Z"/>
        <path id="ma9e737f72f20" data-name="ma9e737f72f" class="st8" d="M477.9,366.6c1,0,1.9-.4,2.6-1.1.7-.7,1.1-1.6,1.1-2.6s-.4-1.9-1.1-2.6c-.7-.7-1.6-1.1-2.6-1.1s-1.9.4-2.6,1.1c-.7.7-1.1,1.6-1.1,2.6s.4,1.9,1.1,2.6c.7.7,1.6,1.1,2.6,1.1Z"/>
        <path id="ma9e737f72f21" data-name="ma9e737f72f" class="st8" d="M531,366.6c1,0,1.9-.4,2.6-1.1.7-.7,1.1-1.6,1.1-2.6s-.4-1.9-1.1-2.6c-.7-.7-1.6-1.1-2.6-1.1s-1.9.4-2.6,1.1c-.7.7-1.1,1.6-1.1,2.6s.4,1.9,1.1,2.6c.7.7,1.6,1.1,2.6,1.1Z"/>
        <path id="ma9e737f72f22" data-name="ma9e737f72f" class="st8" d="M212.3,459.6c1,0,1.9-.4,2.6-1.1.7-.7,1.1-1.6,1.1-2.6s-.4-1.9-1.1-2.6c-.7-.7-1.6-1.1-2.6-1.1s-1.9.4-2.6,1.1c-.7.7-1.1,1.6-1.1,2.6s.4,1.9,1.1,2.6c.7.7,1.6,1.1,2.6,1.1Z"/>
        <path id="ma9e737f72f23" data-name="ma9e737f72f" class="st8" d="M265.5,459.6c1,0,1.9-.4,2.6-1.1.7-.7,1.1-1.6,1.1-2.6s-.4-1.9-1.1-2.6c-.7-.7-1.6-1.1-2.6-1.1s-1.9.4-2.6,1.1c-.7.7-1.1,1.6-1.1,2.6s.4,1.9,1.1,2.6c.7.7,1.6,1.1,2.6,1.1Z"/>
        <path id="ma9e737f72f24" data-name="ma9e737f72f" class="st8" d="M318.6,459.6c1,0,1.9-.4,2.6-1.1.7-.7,1.1-1.6,1.1-2.6s-.4-1.9-1.1-2.6c-.7-.7-1.6-1.1-2.6-1.1s-1.9.4-2.6,1.1c-.7.7-1.1,1.6-1.1,2.6s.4,1.9,1.1,2.6c.7.7,1.6,1.1,2.6,1.1Z"/>
        <path id="ma9e737f72f25" data-name="ma9e737f72f" class="st8" d="M371.7,459.6c1,0,1.9-.4,2.6-1.1.7-.7,1.1-1.6,1.1-2.6s-.4-1.9-1.1-2.6c-.7-.7-1.6-1.1-2.6-1.1s-1.9.4-2.6,1.1c-.7.7-1.1,1.6-1.1,2.6s.4,1.9,1.1,2.6c.7.7,1.6,1.1,2.6,1.1Z"/>
        <path id="ma9e737f72f26" data-name="ma9e737f72f" class="st8" d="M424.8,459.6c1,0,1.9-.4,2.6-1.1.7-.7,1.1-1.6,1.1-2.6s-.4-1.9-1.1-2.6c-.7-.7-1.6-1.1-2.6-1.1s-1.9.4-2.6,1.1c-.7.7-1.1,1.6-1.1,2.6s.4,1.9,1.1,2.6c.7.7,1.6,1.1,2.6,1.1Z"/>
        <path id="ma9e737f72f27" data-name="ma9e737f72f" class="st8" d="M477.9,459.6c1,0,1.9-.4,2.6-1.1.7-.7,1.1-1.6,1.1-2.6s-.4-1.9-1.1-2.6c-.7-.7-1.6-1.1-2.6-1.1s-1.9.4-2.6,1.1c-.7.7-1.1,1.6-1.1,2.6s.4,1.9,1.1,2.6c.7.7,1.6,1.1,2.6,1.1Z"/>
      </g>
    </g>
  </g>
  <g id="PathCollection_3">
    <g class="st23">
      <g>
        <path id="m8fafbbc640" class="st6" d="M292,157.9l-3.7,7.4h7.4l-3.7-7.4Z"/>
        <path id="m8fafbbc6401" data-name="m8fafbbc640" class="st6" d="M238.9,188.8l-3.7,7.4h7.4l-3.7-7.4Z"/>
        <path id="m8fafbbc6402" data-name="m8fafbbc640" class="st6" d="M398.2,157.9l-3.7,7.4h7.4l-3.7-7.4Z"/>
        <path id="m8fafbbc6403" data-name="m8fafbbc640" class="st6" d="M345.1,188.8l-3.7,7.4h7.4l-3.7-7.4Z"/>
        <path id="m8fafbbc6404" data-name="m8fafbbc640" class="st6" d="M451.3,188.8l-3.7,7.4h7.4l-3.7-7.4Z"/>
        <path id="m8fafbbc6405" data-name="m8fafbbc640" class="st6" d="M238.9,250.8l-3.7,7.4h7.4l-3.7-7.4Z"/>
        <path id="m8fafbbc6406" data-name="m8fafbbc640" class="st6" d="M185.8,281.8l-3.7,7.4h7.4l-3.7-7.4Z"/>
        <path id="m8fafbbc6407" data-name="m8fafbbc640" class="st6" d="M345.1,250.8l-3.7,7.4h7.4l-3.7-7.4Z"/>
        <path id="m8fafbbc6408" data-name="m8fafbbc640" class="st6" d="M292,281.8l-3.7,7.4h7.4l-3.7-7.4Z"/>
        <path id="m8fafbbc6409" data-name="m8fafbbc640" class="st6" d="M451.3,250.8l-3.7,7.4h7.4l-3.7-7.4Z"/>
        <path id="m8fafbbc64010" data-name="m8fafbbc640" class="st6" d="M398.2,281.8l-3.7,7.4h7.4l-3.7-7.4Z"/>
        <path id="m8fafbbc64011" data-name="m8fafbbc640" class="st6" d="M504.4,281.8l-3.7,7.4h7.4l-3.7-7.4Z"/>
        <path id="m8fafbbc64012" data-name="m8fafbbc640" class="st6" d="M185.8,343.7l-3.7,7.4h7.4l-3.7-7.4Z"/>
        <path id="m8fafbbc64013" data-name="m8fafbbc640" class="st6" d="M292,343.7l-3.7,7.4h7.4l-3.7-7.4Z"/>
        <path id="m8fafbbc64014" data-name="m8fafbbc640" class="st6" d="M238.9,374.7l-3.7,7.4h7.4l-3.7-7.4Z"/>
        <path id="m8fafbbc64015" data-name="m8fafbbc640" class="st6" d="M398.2,343.7l-3.7,7.4h7.4l-3.7-7.4Z"/>
        <path id="m8fafbbc64016" data-name="m8fafbbc640" class="st6" d="M345.1,374.7l-3.7,7.4h7.4l-3.7-7.4Z"/>
        <path id="m8fafbbc64017" data-name="m8fafbbc640" class="st6" d="M504.4,343.7l-3.7,7.4h7.4l-3.7-7.4Z"/>
        <path id="m8fafbbc64018" data-name="m8fafbbc640" class="st6" d="M451.3,374.7l-3.7,7.4h7.4l-3.7-7.4Z"/>
        <path id="m8fafbbc64019" data-name="m8fafbbc640" class="st6" d="M238.9,436.7l-3.7,7.4h7.4l-3.7-7.4Z"/>
        <path id="m8fafbbc64020" data-name="m8fafbbc640" class="st6" d="M345.1,436.7l-3.7,7.4h7.4l-3.7-7.4Z"/>
        <path id="m8fafbbc64021" data-name="m8fafbbc640" class="st6" d="M292,467.6l-3.7,7.4h7.4l-3.7-7.4Z"/>
        <path id="m8fafbbc64022" data-name="m8fafbbc640" class="st6" d="M451.3,436.7l-3.7,7.4h7.4l-3.7-7.4Z"/>
        <path id="m8fafbbc64023" data-name="m8fafbbc640" class="st6" d="M398.2,467.6l-3.7,7.4h7.4l-3.7-7.4Z"/>
      </g>
    </g>
  </g>
  <g id="PathCollection_4">
    <g class="st24">
      <g>
        <path id="maff19b97dd" class="st10" d="M234.2,135.3h9.5v-9.5h-9.5v9.5Z"/>
        <path id="maff19b97dd1" data-name="maff19b97dd" class="st10" d="M340.4,135.3h9.5v-9.5h-9.5v9.5Z"/>
        <path id="maff19b97dd2" data-name="maff19b97dd" class="st10" d="M446.6,135.3h9.5v-9.5h-9.5v9.5Z"/>
        <path id="maff19b97dd3" data-name="maff19b97dd" class="st10" d="M181.1,228.3h9.5v-9.5h-9.5v9.5Z"/>
        <path id="maff19b97dd4" data-name="maff19b97dd" class="st10" d="M287.3,228.3h9.5v-9.5h-9.5v9.5Z"/>
        <path id="maff19b97dd5" data-name="maff19b97dd" class="st10" d="M393.5,228.3h9.5v-9.5h-9.5v9.5Z"/>
        <path id="maff19b97dd6" data-name="maff19b97dd" class="st10" d="M499.7,228.3h9.5v-9.5h-9.5v9.5Z"/>
        <path id="maff19b97dd7" data-name="maff19b97dd" class="st10" d="M127.9,321.2h9.5v-9.5h-9.5v9.5Z"/>
        <path id="maff19b97dd8" data-name="maff19b97dd" class="st10" d="M234.2,321.2h9.5v-9.5h-9.5v9.5Z"/>
        <path id="maff19b97dd9" data-name="maff19b97dd" class="st10" d="M340.4,321.2h9.5v-9.5h-9.5v9.5Z"/>
        <path id="maff19b97dd10" data-name="maff19b97dd" class="st10" d="M446.6,321.2h9.5v-9.5h-9.5v9.5Z"/>
        <path id="maff19b97dd11" data-name="maff19b97dd" class="st10" d="M552.8,321.2h9.5v-9.5h-9.5v9.5Z"/>
        <path id="maff19b97dd12" data-name="maff19b97dd" class="st10" d="M181.1,414.1h9.5v-9.5h-9.5v9.5Z"/>
        <path id="maff19b97dd13" data-name="maff19b97dd" class="st10" d="M287.3,414.1h9.5v-9.5h-9.5v9.5Z"/>
        <path id="maff19b97dd14" data-name="maff19b97dd" class="st10" d="M393.5,414.1h9.5v-9.5h-9.5v9.5Z"/>
        <path id="maff19b97dd15" data-name="maff19b97dd" class="st10" d="M499.7,414.1h9.5v-9.5h-9.5v9.5Z"/>
        <path id="maff19b97dd16" data-name="maff19b97dd" class="st10" d="M234.2,507.1h9.5v-9.5h-9.5v9.5Z"/>
        <path id="maff19b97dd17" data-name="maff19b97dd" class="st10" d="M340.4,507.1h9.5v-9.5h-9.5v9.5Z"/>
        <path id="maff19b97dd18" data-name="maff19b97dd" class="st10" d="M446.6,507.1h9.5v-9.5h-9.5v9.5Z"/>
      </g>
    </g>
  </g>
  <g id="legend_1">
    <g id="patch_26">
      <path class="st3" d="M491.9,117.8h139c1.2,0,1.8-.6,1.8-1.8V50.8c0-1.2-.6-1.8-1.8-1.8h-139c-1.2,0-1.8.6-1.8,1.8v65.2c0,1.2.6,1.8,1.8,1.8Z"/>
    </g>
    <g id="PathCollection_5">
      <path id="maff19b97dd19" data-name="maff19b97dd" class="st10" d="M497.9,61.9h9.5v-9.5h-9.5v9.5Z"/>
    </g>
    <g id="text_58">
      <g>
        <path id="DejaVuSans-4e" d="M519.8,52.9h1.2l2.9,5.5v-5.5h.9v6.6h-1.2l-2.9-5.5v5.5h-.9v-6.6Z"/>
        <path id="DejaVuSans-6f" d="M528.4,55.1c-.4,0-.8.2-1,.5s-.4.8-.4,1.4.1,1.1.4,1.4c.3.3.6.5,1,.5s.8-.2,1-.5c.3-.3.4-.8.4-1.4s-.1-1-.4-1.4c-.3-.3-.6-.5-1-.5ZM528.4,54.4c.7,0,1.3.2,1.7.7.4.5.6,1.1.6,1.9s-.2,1.4-.6,1.9c-.4.5-1,.7-1.7.7s-1.3-.2-1.7-.7c-.4-.5-.6-1.1-.6-1.9s.2-1.4.6-1.9c.4-.5,1-.7,1.7-.7Z"/>
        <path id="DejaVuSans-6d4" data-name="DejaVuSans-6d" d="M535.8,55.5c.2-.4.4-.6.7-.8s.6-.3,1-.3.9.2,1.2.5c.3.4.4.9.4,1.5v3h-.8v-2.9c0-.5,0-.8-.3-1-.2-.2-.4-.3-.8-.3s-.8.1-1,.4c-.2.3-.4.7-.4,1.1v2.8h-.8v-2.9c0-.5,0-.8-.3-1.1s-.4-.3-.8-.3-.7.1-1,.4c-.2.3-.4.7-.4,1.1v2.8h-.8v-4.9h.8v.8c.2-.3.4-.5.7-.7s.6-.2.9-.2.7,0,.9.3c.3.2.4.4.6.8Z"/>
        <path id="DejaVuSans-69" d="M540.7,54.6h.8v4.9h-.8v-4.9ZM540.7,52.6h.8v1h-.8v-1Z"/>
        <path id="DejaVuSans-6e" d="M547.3,56.5v3h-.8v-2.9c0-.5,0-.8-.3-1-.2-.2-.5-.3-.8-.3s-.8.1-1,.4c-.3.3-.4.7-.4,1.1v2.8h-.8v-4.9h.8v.8c.2-.3.4-.5.7-.7.3-.1.6-.2.9-.2.6,0,1,.2,1.3.5.3.3.4.9.4,1.5Z"/>
        <path id="DejaVuSans-61" d="M551.2,57c-.7,0-1.1,0-1.4.2s-.4.4-.4.8,0,.5.3.7c.2.2.4.3.8.3s.8-.2,1.1-.5.4-.7.4-1.3v-.2h-.8ZM552.8,56.7v2.8h-.8v-.7c-.2.3-.4.5-.7.7-.3.1-.6.2-1,.2s-.9-.1-1.2-.4c-.3-.3-.4-.7-.4-1.1s.2-1,.6-1.3c.4-.3.9-.4,1.7-.4h1.1c0-.5-.1-.7-.4-.9s-.6-.3-1-.3-.6,0-.8.1c-.3,0-.5.2-.8.3v-.7c.3-.1.6-.2.9-.3.3,0,.5,0,.8,0,.7,0,1.2.2,1.6.6.4.4.5.9.5,1.7Z"/>
        <path id="DejaVuSans-6c" d="M554.5,52.6h.8v6.8h-.8v-6.8Z"/>
        <path id="DejaVuSans-2c" d="M557.2,58.4h.9v.8l-.7,1.4h-.6l.4-1.4v-.8Z"/>
        <path id="DejaVuSans-202" data-name="DejaVuSans-20" d="M559,59.5"/>
        <path id="DejaVuSans-74" d="M563.5,53.2v1.4h1.7v.6h-1.7v2.7c0,.4,0,.7.2.8s.3.2.7.2h.8v.7h-.8c-.6,0-1.1-.1-1.3-.3-.2-.2-.4-.7-.4-1.3v-2.7h-.6v-.6h.6v-1.4h.8Z"/>
        <path id="DejaVuSans-72" d="M569.1,55.3c0,0-.2,0-.3-.1-.1,0-.2,0-.4,0-.5,0-.8.1-1.1.4s-.4.7-.4,1.3v2.6h-.8v-4.9h.8v.8c.2-.3.4-.5.7-.7.3-.1.6-.2,1-.2s.1,0,.2,0c0,0,.1,0,.2,0v.8Z"/>
        <path id="DejaVuSans-611" data-name="DejaVuSans-61" d="M572.1,57c-.7,0-1.1,0-1.4.2s-.4.4-.4.8,0,.5.3.7c.2.2.4.3.8.3s.8-.2,1.1-.5.4-.7.4-1.3v-.2h-.8ZM573.8,56.7v2.8h-.8v-.7c-.2.3-.4.5-.7.7-.3.1-.6.2-1,.2s-.9-.1-1.2-.4c-.3-.3-.4-.7-.4-1.1s.2-1,.6-1.3c.4-.3.9-.4,1.7-.4h1.1c0-.5-.1-.7-.4-.9s-.6-.3-1-.3-.6,0-.8.1c-.3,0-.5.2-.8.3v-.7c.3-.1.6-.2.9-.3.3,0,.5,0,.8,0,.7,0,1.2.2,1.6.6.4.4.5.9.5,1.7Z"/>
        <path id="DejaVuSans-6e1" data-name="DejaVuSans-6e" d="M579.5,56.5v3h-.8v-2.9c0-.5,0-.8-.3-1-.2-.2-.5-.3-.8-.3s-.8.1-1,.4c-.3.3-.4.7-.4,1.1v2.8h-.8v-4.9h.8v.8c.2-.3.4-.5.7-.7.3-.1.6-.2.9-.2.6,0,1,.2,1.3.5.3.3.4.9.4,1.5Z"/>
        <path id="DejaVuSans-73" d="M584.3,54.7v.8c-.2-.1-.5-.2-.7-.3-.2,0-.5,0-.8,0-.4,0-.7,0-.9.2-.2.1-.3.3-.3.6s0,.3.2.4.4.2.9.3h.3c.6.2,1,.4,1.2.6s.4.5.4.9-.2.8-.5,1.1c-.4.3-.9.4-1.5.4s-.5,0-.8,0c-.3,0-.6-.1-.9-.2v-.8c.3.2.6.3.9.4.3,0,.6.1.9.1s.7,0,.9-.2c.2-.1.3-.3.3-.6s0-.4-.2-.5c-.1-.1-.5-.2-1-.3h-.3c-.5-.2-.9-.3-1.1-.6-.2-.2-.3-.5-.3-.9s.2-.8.5-1.1c.3-.3.8-.4,1.4-.4s.6,0,.8,0c.3,0,.5.1.7.2Z"/>
        <path id="DejaVuSans-6c1" data-name="DejaVuSans-6c" d="M585.8,52.6h.8v6.8h-.8v-6.8Z"/>
        <path id="DejaVuSans-612" data-name="DejaVuSans-61" d="M590.6,57c-.7,0-1.1,0-1.4.2s-.4.4-.4.8,0,.5.3.7c.2.2.4.3.8.3s.8-.2,1.1-.5.4-.7.4-1.3v-.2h-.8ZM592.2,56.7v2.8h-.8v-.7c-.2.3-.4.5-.7.7-.3.1-.6.2-1,.2s-.9-.1-1.2-.4c-.3-.3-.4-.7-.4-1.1s.2-1,.6-1.3c.4-.3.9-.4,1.7-.4h1.1c0-.5-.1-.7-.4-.9s-.6-.3-1-.3-.6,0-.8.1c-.3,0-.5.2-.8.3v-.7c.3-.1.6-.2.9-.3.3,0,.5,0,.8,0,.7,0,1.2.2,1.6.6.4.4.5.9.5,1.7Z"/>
        <path id="DejaVuSans-741" data-name="DejaVuSans-74" d="M594.6,53.2v1.4h1.7v.6h-1.7v2.7c0,.4,0,.7.2.8s.3.2.7.2h.8v.7h-.8c-.6,0-1.1-.1-1.3-.3-.2-.2-.4-.7-.4-1.3v-2.7h-.6v-.6h.6v-1.4h.8Z"/>
        <path id="DejaVuSans-65" d="M601.6,56.8v.4h-3.7c0,.6.2,1,.5,1.3.3.3.7.4,1.3.4s.6,0,.9-.1.6-.2.9-.3v.8c-.3.1-.6.2-.9.3s-.6,0-.9,0c-.8,0-1.4-.2-1.9-.7-.5-.5-.7-1.1-.7-1.9s.2-1.4.7-1.9c.4-.5,1-.7,1.8-.7s1.2.2,1.6.6c.4.4.6,1,.6,1.7ZM600.8,56.6c0-.4-.1-.8-.4-1.1-.2-.3-.6-.4-1-.4s-.8.1-1.1.4-.4.6-.5,1.1h2.9Z"/>
        <path id="DejaVuSans-64" d="M606.1,55.3v-2.7h.8v6.8h-.8v-.7c-.2.3-.4.5-.6.7-.3.1-.6.2-.9.2-.6,0-1.1-.2-1.5-.7-.4-.5-.6-1.1-.6-1.9s.2-1.4.6-1.9c.4-.5.9-.7,1.5-.7s.7,0,.9.2c.3.1.5.4.6.7ZM603.4,57c0,.6.1,1.1.4,1.4.2.3.6.5,1,.5s.8-.2,1-.5c.2-.3.4-.8.4-1.4s-.1-1.1-.4-1.4c-.2-.3-.6-.5-1-.5s-.8.2-1,.5-.4.8-.4,1.4Z"/>
        <path id="DejaVuSans-203" data-name="DejaVuSans-20" d="M607.8,59.5"/>
        <path id="DejaVuSans-282" data-name="DejaVuSans-28" d="M613.4,52.7c-.4.7-.7,1.3-.9,2-.2.7-.3,1.3-.3,2s0,1.3.3,2,.5,1.3.9,2h-.7c-.4-.7-.8-1.4-1-2-.2-.7-.3-1.3-.3-2s.1-1.3.3-2c.2-.7.5-1.3,1-2h.7Z"/>
        <path id="DejaVuSans-318" data-name="DejaVuSans-31" d="M615.3,58.7h1.4v-5l-1.6.3v-.8l1.6-.3h.9v5.8h1.4v.7h-3.8v-.7Z"/>
        <path id="DejaVuSans-39" d="M620.9,59.3v-.8c.2.1.4.2.7.2.2,0,.5,0,.7,0,.6,0,1-.2,1.3-.6.3-.4.5-1,.5-1.8-.2.3-.4.4-.6.6-.3.1-.5.2-.9.2-.7,0-1.2-.2-1.6-.6-.4-.4-.6-.9-.6-1.6s.2-1.2.6-1.6c.4-.4.9-.6,1.6-.6s1.3.3,1.7.9c.4.6.6,1.4.6,2.5s-.2,1.9-.7,2.5c-.5.6-1.1.9-2,.9s-.4,0-.7,0c-.2,0-.5-.1-.7-.2ZM622.6,56.6c.4,0,.7-.1.9-.4.2-.3.4-.6.4-1.1s-.1-.8-.4-1.1c-.2-.3-.5-.4-.9-.4s-.7.1-.9.4c-.2.3-.3.6-.3,1.1s.1.8.3,1.1c.2.3.5.4.9.4Z"/>
        <path id="DejaVuSans-292" data-name="DejaVuSans-29" d="M626.3,52.7h.7c.4.7.8,1.4,1,2,.2.7.3,1.3.3,2s-.1,1.3-.3,2c-.2.7-.5,1.3-1,2h-.7c.4-.7.7-1.3.9-2,.2-.7.3-1.3.3-2s0-1.3-.3-2c-.2-.7-.5-1.3-.9-2Z"/>
      </g>
    </g>
    <g id="PathCollection_6">
      <path id="md95b5c89d314" data-name="md95b5c89d3" class="st7" d="M502.7,74c1,0,1.9-.4,2.6-1.1.7-.7,1.1-1.6,1.1-2.6s-.4-1.9-1.1-2.6c-.7-.7-1.6-1.1-2.6-1.1s-1.9.4-2.6,1.1c-.7.7-1.1,1.6-1.1,2.6s.4,1.9,1.1,2.6c.7.7,1.6,1.1,2.6,1.1Z"/>
    </g>
    <g id="text_59">
      <g>
        <path id="DejaVuSans-48" d="M519.8,66.1h.9v2.7h3.2v-2.7h.9v6.6h-.9v-3.1h-3.2v3.1h-.9v-6.6Z"/>
        <path id="DejaVuSans-6f1" data-name="DejaVuSans-6f" d="M528.4,68.3c-.4,0-.8.2-1,.5s-.4.8-.4,1.4.1,1.1.4,1.4c.3.3.6.5,1,.5s.8-.2,1-.5c.3-.3.4-.8.4-1.4s-.1-1-.4-1.4c-.3-.3-.6-.5-1-.5ZM528.4,67.7c.7,0,1.3.2,1.7.7.4.5.6,1.1.6,1.9s-.2,1.4-.6,1.9c-.4.5-1,.7-1.7.7s-1.3-.2-1.7-.7c-.4-.5-.6-1.1-.6-1.9s.2-1.4.6-1.9c.4-.5,1-.7,1.7-.7Z"/>
        <path id="DejaVuSans-721" data-name="DejaVuSans-72" d="M534.9,68.5c0,0-.2,0-.3-.1-.1,0-.2,0-.4,0-.5,0-.8.1-1.1.4s-.4.7-.4,1.3v2.6h-.8v-4.9h.8v.8c.2-.3.4-.5.7-.7.3-.1.6-.2,1-.2s.1,0,.2,0c0,0,.1,0,.2,0v.8Z"/>
        <path id="DejaVuSans-691" data-name="DejaVuSans-69" d="M535.7,67.8h.8v4.9h-.8v-4.9ZM535.7,65.9h.8v1h-.8v-1Z"/>
        <path id="DejaVuSans-7a" d="M537.9,67.8h3.8v.7l-3,3.5h3v.6h-4v-.7l3-3.5h-2.9v-.6Z"/>
        <path id="DejaVuSans-6f2" data-name="DejaVuSans-6f" d="M544.8,68.3c-.4,0-.8.2-1,.5s-.4.8-.4,1.4.1,1.1.4,1.4c.3.3.6.5,1,.5s.8-.2,1-.5c.3-.3.4-.8.4-1.4s-.1-1-.4-1.4c-.3-.3-.6-.5-1-.5ZM544.8,67.7c.7,0,1.3.2,1.7.7.4.5.6,1.1.6,1.9s-.2,1.4-.6,1.9c-.4.5-1,.7-1.7.7s-1.3-.2-1.7-.7c-.4-.5-.6-1.1-.6-1.9s.2-1.4.6-1.9c.4-.5,1-.7,1.7-.7Z"/>
        <path id="DejaVuSans-6e2" data-name="DejaVuSans-6e" d="M552.5,69.7v3h-.8v-2.9c0-.5,0-.8-.3-1-.2-.2-.5-.3-.8-.3s-.8.1-1,.4c-.3.3-.4.7-.4,1.1v2.8h-.8v-4.9h.8v.8c.2-.3.4-.5.7-.7.3-.1.6-.2.9-.2.6,0,1,.2,1.3.5.3.3.4.9.4,1.5Z"/>
        <path id="DejaVuSans-742" data-name="DejaVuSans-74" d="M554.9,66.4v1.4h1.7v.6h-1.7v2.7c0,.4,0,.7.2.8s.3.2.7.2h.8v.7h-.8c-.6,0-1.1-.1-1.3-.3-.2-.2-.4-.7-.4-1.3v-2.7h-.6v-.6h.6v-1.4h.8Z"/>
        <path id="DejaVuSans-613" data-name="DejaVuSans-61" d="M559.9,70.2c-.7,0-1.1,0-1.4.2s-.4.4-.4.8,0,.5.3.7c.2.2.4.3.8.3s.8-.2,1.1-.5.4-.7.4-1.3v-.2h-.8ZM561.5,69.9v2.8h-.8v-.7c-.2.3-.4.5-.7.7-.3.1-.6.2-1,.2s-.9-.1-1.2-.4c-.3-.3-.4-.7-.4-1.1s.2-1,.6-1.3c.4-.3.9-.4,1.7-.4h1.1c0-.5-.1-.7-.4-.9s-.6-.3-1-.3-.6,0-.8.1c-.3,0-.5.2-.8.3v-.7c.3-.1.6-.2.9-.3.3,0,.5,0,.8,0,.7,0,1.2.2,1.6.6.4.4.5.9.5,1.7Z"/>
        <path id="DejaVuSans-6c2" data-name="DejaVuSans-6c" d="M563.2,65.9h.8v6.8h-.8v-6.8Z"/>
        <path id="DejaVuSans-204" data-name="DejaVuSans-20" d="M564.8,72.7"/>
        <path id="DejaVuSans-283" data-name="DejaVuSans-28" d="M570.5,65.9c-.4.7-.7,1.3-.9,2-.2.7-.3,1.3-.3,2s0,1.3.3,2,.5,1.3.9,2h-.7c-.4-.7-.8-1.4-1-2-.2-.7-.3-1.3-.3-2s.1-1.3.3-2c.2-.7.5-1.3,1-2h.7Z"/>
        <path id="DejaVuSans-319" data-name="DejaVuSans-31" d="M572.3,71.9h1.4v-5l-1.6.3v-.8l1.6-.3h.9v5.8h1.4v.7h-3.8v-.7Z"/>
        <path id="DejaVuSans-34" d="M580.3,66.9l-2.2,3.5h2.2v-3.5ZM580.1,66.1h1.1v4.3h.9v.7h-.9v1.5h-.9v-1.5h-3v-.9l2.7-4.2Z"/>
        <path id="DejaVuSans-293" data-name="DejaVuSans-29" d="M583.4,65.9h.7c.4.7.8,1.4,1,2,.2.7.3,1.3.3,2s-.1,1.3-.3,2c-.2.7-.5,1.3-1,2h-.7c.4-.7.7-1.3.9-2,.2-.7.3-1.3.3-2s0-1.3-.3-2c-.2-.7-.5-1.3-.9-2Z"/>
      </g>
    </g>
    <g id="PathCollection_7">
      <path id="ma9e737f72f28" data-name="ma9e737f72f" class="st8" d="M502.7,87.3c1,0,1.9-.4,2.6-1.1.7-.7,1.1-1.6,1.1-2.6s-.4-1.9-1.1-2.6c-.7-.7-1.6-1.1-2.6-1.1s-1.9.4-2.6,1.1c-.7.7-1.1,1.6-1.1,2.6s.4,1.9,1.1,2.6c.7.7,1.6,1.1,2.6,1.1Z"/>
    </g>
    <g id="text_60">
      <g>
        <path id="DejaVuSans-44" d="M520.7,80.1v5.1h1.1c.9,0,1.6-.2,2-.6.4-.4.6-1.1.6-1.9s-.2-1.5-.6-1.9-1.1-.6-2-.6h-1.1ZM519.8,79.3h1.8c1.3,0,2.2.3,2.8.8.6.5.9,1.4.9,2.5s-.3,2-.9,2.5c-.6.5-1.5.8-2.8.8h-1.8v-6.6Z"/>
        <path id="DejaVuSans-692" data-name="DejaVuSans-69" d="M526.7,81h.8v4.9h-.8v-4.9ZM526.7,79.1h.8v1h-.8v-1Z"/>
        <path id="DejaVuSans-614" data-name="DejaVuSans-61" d="M531.4,83.4c-.7,0-1.1,0-1.4.2s-.4.4-.4.8,0,.5.3.7c.2.2.4.3.8.3s.8-.2,1.1-.5.4-.7.4-1.3v-.2h-.8ZM533,83.1v2.8h-.8v-.7c-.2.3-.4.5-.7.7-.3.1-.6.2-1,.2s-.9-.1-1.2-.4c-.3-.3-.4-.7-.4-1.1s.2-1,.6-1.3c.4-.3.9-.4,1.7-.4h1.1c0-.5-.1-.7-.4-.9s-.6-.3-1-.3-.6,0-.8.1c-.3,0-.5.2-.8.3v-.7c.3-.1.6-.2.9-.3.3,0,.5,0,.8,0,.7,0,1.2.2,1.6.6.4.4.5.9.5,1.7Z"/>
        <path id="DejaVuSans-67" d="M537.9,83.4c0-.6-.1-1-.4-1.4-.2-.3-.6-.5-1-.5s-.8.2-1,.5c-.2.3-.4.8-.4,1.4s.1,1,.4,1.4c.2.3.6.5,1,.5s.8-.2,1-.5c.2-.3.4-.8.4-1.4ZM538.7,85.3c0,.8-.2,1.5-.6,1.9-.4.4-.9.6-1.7.6s-.6,0-.8,0-.5-.1-.7-.2v-.8c.2.1.5.2.7.3.2,0,.5,0,.7,0,.5,0,.9-.1,1.2-.4.3-.3.4-.7.4-1.3v-.4c-.2.3-.4.5-.6.7s-.6.2-.9.2c-.6,0-1.1-.2-1.5-.7-.4-.5-.6-1.1-.6-1.8s.2-1.4.6-1.8c.4-.5.9-.7,1.5-.7s.7,0,.9.2.5.4.6.6v-.7h.8v4.3Z"/>
        <path id="DejaVuSans-6f3" data-name="DejaVuSans-6f" d="M542.3,81.6c-.4,0-.8.2-1,.5s-.4.8-.4,1.4.1,1.1.4,1.4c.3.3.6.5,1,.5s.8-.2,1-.5c.3-.3.4-.8.4-1.4s-.1-1-.4-1.4c-.3-.3-.6-.5-1-.5ZM542.3,80.9c.7,0,1.3.2,1.7.7.4.5.6,1.1.6,1.9s-.2,1.4-.6,1.9c-.4.5-1,.7-1.7.7s-1.3-.2-1.7-.7c-.4-.5-.6-1.1-.6-1.9s.2-1.4.6-1.9c.4-.5,1-.7,1.7-.7Z"/>
        <path id="DejaVuSans-6e3" data-name="DejaVuSans-6e" d="M550,82.9v3h-.8v-2.9c0-.5,0-.8-.3-1-.2-.2-.5-.3-.8-.3s-.8.1-1,.4c-.3.3-.4.7-.4,1.1v2.8h-.8v-4.9h.8v.8c.2-.3.4-.5.7-.7.3-.1.6-.2.9-.2.6,0,1,.2,1.3.5.3.3.4.9.4,1.5Z"/>
        <path id="DejaVuSans-615" data-name="DejaVuSans-61" d="M553.8,83.4c-.7,0-1.1,0-1.4.2s-.4.4-.4.8,0,.5.3.7c.2.2.4.3.8.3s.8-.2,1.1-.5.4-.7.4-1.3v-.2h-.8ZM555.5,83.1v2.8h-.8v-.7c-.2.3-.4.5-.7.7-.3.1-.6.2-1,.2s-.9-.1-1.2-.4c-.3-.3-.4-.7-.4-1.1s.2-1,.6-1.3c.4-.3.9-.4,1.7-.4h1.1c0-.5-.1-.7-.4-.9s-.6-.3-1-.3-.6,0-.8.1c-.3,0-.5.2-.8.3v-.7c.3-.1.6-.2.9-.3.3,0,.5,0,.8,0,.7,0,1.2.2,1.6.6.4.4.5.9.5,1.7Z"/>
        <path id="DejaVuSans-6c3" data-name="DejaVuSans-6c" d="M557.1,79.1h.8v6.8h-.8v-6.8Z"/>
        <path id="DejaVuSans-205" data-name="DejaVuSans-20" d="M558.8,85.9"/>
        <path id="DejaVuSans-284" data-name="DejaVuSans-28" d="M564.4,79.1c-.4.7-.7,1.3-.9,2-.2.7-.3,1.3-.3,2s0,1.3.3,2,.5,1.3.9,2h-.7c-.4-.7-.8-1.4-1-2-.2-.7-.3-1.3-.3-2s.1-1.3.3-2c.2-.7.5-1.3,1-2h.7Z"/>
        <path id="DejaVuSans-322" data-name="DejaVuSans-32" d="M566.9,85.2h3.1v.7h-4.2v-.7c.3-.3.8-.8,1.4-1.4.6-.6.9-1,1.1-1.1.3-.3.5-.6.6-.8.1-.2.2-.4.2-.7,0-.3-.1-.6-.4-.9-.2-.2-.6-.3-1-.3s-.6,0-.9.1c-.3,0-.6.2-1,.4v-.9c.4-.1.7-.3,1-.3.3,0,.6-.1.9-.1.7,0,1.2.2,1.6.5.4.3.6.8.6,1.4s0,.5-.2.8c-.1.2-.3.5-.6.9,0,0-.3.3-.7.7-.4.4-.9,1-1.7,1.7Z"/>
        <path id="DejaVuSans-38" d="M573.7,82.8c-.4,0-.8.1-1,.3-.2.2-.4.5-.4.9s.1.7.4.9c.2.2.6.3,1,.3s.8-.1,1-.3c.2-.2.4-.5.4-.9s-.1-.7-.4-.9c-.2-.2-.6-.3-1-.3ZM572.8,82.4c-.4,0-.7-.3-.9-.5-.2-.3-.3-.6-.3-1s.2-.9.6-1.2c.4-.3.9-.5,1.5-.5s1.2.2,1.5.5.6.7.6,1.2-.1.7-.3,1c-.2.3-.5.4-.9.5.4,0,.8.3,1,.6.2.3.4.6.4,1.1,0,.6-.2,1.1-.6,1.5-.4.3-.9.5-1.7.5s-1.3-.2-1.7-.5c-.4-.3-.6-.8-.6-1.5s.1-.8.4-1.1c.2-.3.6-.5,1-.6ZM572.5,81c0,.3.1.6.3.8.2.2.5.3.9.3s.7,0,.9-.3c.2-.2.3-.5.3-.8s-.1-.6-.3-.8c-.2-.2-.5-.3-.9-.3s-.7,0-.9.3c-.2.2-.3.5-.3.8Z"/>
        <path id="DejaVuSans-294" data-name="DejaVuSans-29" d="M577.3,79.1h.7c.4.7.8,1.4,1,2,.2.7.3,1.3.3,2s-.1,1.3-.3,2c-.2.7-.5,1.3-1,2h-.7c.4-.7.7-1.3.9-2,.2-.7.3-1.3.3-2s0-1.3-.3-2c-.2-.7-.5-1.3-.9-2Z"/>
      </g>
    </g>
    <g id="PathCollection_8">
      <path id="m8fafbbc64024" data-name="m8fafbbc640" class="st6" d="M502.7,93l-3.7,7.4h7.4l-3.7-7.4Z"/>
    </g>
    <g id="text_61">
      <g>
        <path id="DejaVuSans-54" d="M518.9,92.6h5.6v.7h-2.3v5.8h-.9v-5.8h-2.3v-.7Z"/>
        <path id="DejaVuSans-722" data-name="DejaVuSans-72" d="M526.8,94.9c0,0-.2,0-.3-.1-.1,0-.2,0-.4,0-.5,0-.8.1-1.1.4s-.4.7-.4,1.3v2.6h-.8v-4.9h.8v.8c.2-.3.4-.5.7-.7.3-.1.6-.2,1-.2s.1,0,.2,0c0,0,.1,0,.2,0v.8Z"/>
        <path id="DejaVuSans-693" data-name="DejaVuSans-69" d="M527.6,94.2h.8v4.9h-.8v-4.9ZM527.6,92.3h.8v1h-.8v-1Z"/>
        <path id="DejaVuSans-616" data-name="DejaVuSans-61" d="M532.3,96.6c-.7,0-1.1,0-1.4.2s-.4.4-.4.8,0,.5.3.7c.2.2.4.3.8.3s.8-.2,1.1-.5.4-.7.4-1.3v-.2h-.8ZM534,96.3v2.8h-.8v-.7c-.2.3-.4.5-.7.7-.3.1-.6.2-1,.2s-.9-.1-1.2-.4c-.3-.3-.4-.7-.4-1.1s.2-1,.6-1.3c.4-.3.9-.4,1.7-.4h1.1c0-.5-.1-.7-.4-.9s-.6-.3-1-.3-.6,0-.8.1c-.3,0-.5.2-.8.3v-.7c.3-.1.6-.2.9-.3.3,0,.5,0,.8,0,.7,0,1.2.2,1.6.6.4.4.5.9.5,1.7Z"/>
        <path id="DejaVuSans-6e4" data-name="DejaVuSans-6e" d="M539.7,96.1v3h-.8v-2.9c0-.5,0-.8-.3-1-.2-.2-.5-.3-.8-.3s-.8.1-1,.4c-.3.3-.4.7-.4,1.1v2.8h-.8v-4.9h.8v.8c.2-.3.4-.5.7-.7.3-.1.6-.2.9-.2.6,0,1,.2,1.3.5.3.3.4.9.4,1.5Z"/>
        <path id="DejaVuSans-671" data-name="DejaVuSans-67" d="M544.6,96.6c0-.6-.1-1-.4-1.4-.2-.3-.6-.5-1-.5s-.8.2-1,.5c-.2.3-.4.8-.4,1.4s.1,1,.4,1.4c.2.3.6.5,1,.5s.8-.2,1-.5c.2-.3.4-.8.4-1.4ZM545.4,98.5c0,.8-.2,1.5-.6,1.9-.4.4-.9.6-1.7.6s-.6,0-.8,0-.5-.1-.7-.2v-.8c.2.1.5.2.7.3.2,0,.5,0,.7,0,.5,0,.9-.1,1.2-.4.3-.3.4-.7.4-1.3v-.4c-.2.3-.4.5-.6.7s-.6.2-.9.2c-.6,0-1.1-.2-1.5-.7-.4-.5-.6-1.1-.6-1.8s.2-1.4.6-1.8c.4-.5.9-.7,1.5-.7s.7,0,.9.2.5.4.6.6v-.7h.8v4.3Z"/>
        <path id="DejaVuSans-6c4" data-name="DejaVuSans-6c" d="M547,92.3h.8v6.8h-.8v-6.8Z"/>
        <path id="DejaVuSans-651" data-name="DejaVuSans-65" d="M553.7,96.5v.4h-3.7c0,.6.2,1,.5,1.3.3.3.7.4,1.3.4s.6,0,.9-.1.6-.2.9-.3v.8c-.3.1-.6.2-.9.3s-.6,0-.9,0c-.8,0-1.4-.2-1.9-.7-.5-.5-.7-1.1-.7-1.9s.2-1.4.7-1.9c.4-.5,1-.7,1.8-.7s1.2.2,1.6.6c.4.4.6,1,.6,1.7ZM552.9,96.2c0-.4-.1-.8-.4-1.1-.2-.3-.6-.4-1-.4s-.8.1-1.1.4-.4.6-.5,1.1h2.9Z"/>
        <path id="DejaVuSans-206" data-name="DejaVuSans-20" d="M554.2,99.1"/>
        <path id="DejaVuSans-63" d="M561.5,94.4v.8c-.2-.1-.5-.2-.7-.3s-.5,0-.7,0c-.5,0-.9.2-1.2.5-.3.3-.4.8-.4,1.4s.1,1.1.4,1.4c.3.3.7.5,1.2.5s.5,0,.7,0,.5-.2.7-.3v.7c-.2.1-.5.2-.7.2-.2,0-.5,0-.8,0-.7,0-1.3-.2-1.8-.7-.4-.5-.7-1.1-.7-1.9s.2-1.4.7-1.9c.4-.5,1-.7,1.8-.7s.5,0,.7,0c.2,0,.5.1.7.2Z"/>
        <path id="DejaVuSans-652" data-name="DejaVuSans-65" d="M567.1,96.5v.4h-3.7c0,.6.2,1,.5,1.3.3.3.7.4,1.3.4s.6,0,.9-.1.6-.2.9-.3v.8c-.3.1-.6.2-.9.3s-.6,0-.9,0c-.8,0-1.4-.2-1.9-.7-.5-.5-.7-1.1-.7-1.9s.2-1.4.7-1.9c.4-.5,1-.7,1.8-.7s1.2.2,1.6.6c.4.4.6,1,.6,1.7ZM566.3,96.2c0-.4-.1-.8-.4-1.1-.2-.3-.6-.4-1-.4s-.8.1-1.1.4-.4.6-.5,1.1h2.9Z"/>
        <path id="DejaVuSans-6e5" data-name="DejaVuSans-6e" d="M572.5,96.1v3h-.8v-2.9c0-.5,0-.8-.3-1-.2-.2-.5-.3-.8-.3s-.8.1-1,.4c-.3.3-.4.7-.4,1.1v2.8h-.8v-4.9h.8v.8c.2-.3.4-.5.7-.7.3-.1.6-.2.9-.2.6,0,1,.2,1.3.5.3.3.4.9.4,1.5Z"/>
        <path id="DejaVuSans-743" data-name="DejaVuSans-74" d="M574.9,92.8v1.4h1.7v.6h-1.7v2.7c0,.4,0,.7.2.8s.3.2.7.2h.8v.7h-.8c-.6,0-1.1-.1-1.3-.3-.2-.2-.4-.7-.4-1.3v-2.7h-.6v-.6h.6v-1.4h.8Z"/>
        <path id="DejaVuSans-723" data-name="DejaVuSans-72" d="M580.5,94.9c0,0-.2,0-.3-.1-.1,0-.2,0-.4,0-.5,0-.8.1-1.1.4s-.4.7-.4,1.3v2.6h-.8v-4.9h.8v.8c.2-.3.4-.5.7-.7.3-.1.6-.2,1-.2s.1,0,.2,0c0,0,.1,0,.2,0v.8Z"/>
        <path id="DejaVuSans-6f4" data-name="DejaVuSans-6f" d="M583.1,94.8c-.4,0-.8.2-1,.5s-.4.8-.4,1.4.1,1.1.4,1.4c.3.3.6.5,1,.5s.8-.2,1-.5c.3-.3.4-.8.4-1.4s-.1-1-.4-1.4c-.3-.3-.6-.5-1-.5ZM583.1,94.1c.7,0,1.3.2,1.7.7.4.5.6,1.1.6,1.9s-.2,1.4-.6,1.9c-.4.5-1,.7-1.7.7s-1.3-.2-1.7-.7c-.4-.5-.6-1.1-.6-1.9s.2-1.4.6-1.9c.4-.5,1-.7,1.7-.7Z"/>
        <path id="DejaVuSans-694" data-name="DejaVuSans-69" d="M586.7,94.2h.8v4.9h-.8v-4.9ZM586.7,92.3h.8v1h-.8v-1Z"/>
        <path id="DejaVuSans-641" data-name="DejaVuSans-64" d="M592.4,94.9v-2.7h.8v6.8h-.8v-.7c-.2.3-.4.5-.6.7-.3.1-.6.2-.9.2-.6,0-1.1-.2-1.5-.7-.4-.5-.6-1.1-.6-1.9s.2-1.4.6-1.9c.4-.5.9-.7,1.5-.7s.7,0,.9.2c.3.1.5.4.6.7ZM589.6,96.7c0,.6.1,1.1.4,1.4.2.3.6.5,1,.5s.8-.2,1-.5c.2-.3.4-.8.4-1.4s-.1-1.1-.4-1.4c-.2-.3-.6-.5-1-.5s-.8.2-1,.5-.4.8-.4,1.4Z"/>
        <path id="DejaVuSans-207" data-name="DejaVuSans-20" d="M594,99.1"/>
        <path id="DejaVuSans-285" data-name="DejaVuSans-28" d="M599.7,92.3c-.4.7-.7,1.3-.9,2-.2.7-.3,1.3-.3,2s0,1.3.3,2,.5,1.3.9,2h-.7c-.4-.7-.8-1.4-1-2-.2-.7-.3-1.3-.3-2s.1-1.3.3-2c.2-.7.5-1.3,1-2h.7Z"/>
        <path id="DejaVuSans-323" data-name="DejaVuSans-32" d="M602.1,98.4h3.1v.7h-4.2v-.7c.3-.3.8-.8,1.4-1.4.6-.6.9-1,1.1-1.1.3-.3.5-.6.6-.8.1-.2.2-.4.2-.7,0-.3-.1-.6-.4-.9-.2-.2-.6-.3-1-.3s-.6,0-.9.1c-.3,0-.6.2-1,.4v-.9c.4-.1.7-.3,1-.3.3,0,.6-.1.9-.1.7,0,1.2.2,1.6.5.4.3.6.8.6,1.4s0,.5-.2.8c-.1.2-.3.5-.6.9,0,0-.3.3-.7.7-.4.4-.9,1-1.7,1.7Z"/>
        <path id="DejaVuSans-341" data-name="DejaVuSans-34" d="M609.5,93.3l-2.2,3.5h2.2v-3.5ZM609.3,92.6h1.1v4.3h.9v.7h-.9v1.5h-.9v-1.5h-3v-.9l2.7-4.2Z"/>
        <path id="DejaVuSans-295" data-name="DejaVuSans-29" d="M612.6,92.3h.7c.4.7.8,1.4,1,2,.2.7.3,1.3.3,2s-.1,1.3-.3,2c-.2.7-.5,1.3-1,2h-.7c.4-.7.7-1.3.9-2,.2-.7.3-1.3.3-2s0-1.3-.3-2c-.2-.7-.5-1.3-.9-2Z"/>
      </g>
    </g>
    <g id="PathCollection_9">
      <path id="m44fb04c506" class="st5" d="M498.5,114.1h8.4v-8.4h-8.4v8.4Z"/>
    </g>
    <g id="text_62">
      <g>
        <path id="DejaVuSans-41" d="M522,106.6l-1.2,3.3h2.4l-1.2-3.3ZM521.5,105.8h1l2.5,6.6h-.9l-.6-1.7h-3l-.6,1.7h-.9l2.5-6.6Z"/>
        <path id="DejaVuSans-631" data-name="DejaVuSans-63" d="M529.3,107.6v.8c-.2-.1-.5-.2-.7-.3s-.5,0-.7,0c-.5,0-.9.2-1.2.5-.3.3-.4.8-.4,1.4s.1,1.1.4,1.4c.3.3.7.5,1.2.5s.5,0,.7,0,.5-.2.7-.3v.7c-.2.1-.5.2-.7.2-.2,0-.5,0-.8,0-.7,0-1.3-.2-1.8-.7-.4-.5-.7-1.1-.7-1.9s.2-1.4.7-1.9c.4-.5,1-.7,1.8-.7s.5,0,.7,0c.2,0,.5.1.7.2Z"/>
        <path id="DejaVuSans-744" data-name="DejaVuSans-74" d="M531.5,106v1.4h1.7v.6h-1.7v2.7c0,.4,0,.7.2.8s.3.2.7.2h.8v.7h-.8c-.6,0-1.1-.1-1.3-.3-.2-.2-.4-.7-.4-1.3v-2.7h-.6v-.6h.6v-1.4h.8Z"/>
        <path id="DejaVuSans-75" d="M534.1,110.4v-3h.8v2.9c0,.5,0,.8.3,1,.2.2.5.3.8.3s.8-.1,1-.4c.3-.3.4-.7.4-1.1v-2.8h.8v4.9h-.8v-.8c-.2.3-.4.5-.7.7-.3.1-.6.2-.9.2-.6,0-1-.2-1.3-.5-.3-.4-.4-.9-.4-1.5ZM536.2,107.3h0Z"/>
        <path id="DejaVuSans-617" data-name="DejaVuSans-61" d="M542.2,109.9c-.7,0-1.1,0-1.4.2s-.4.4-.4.8,0,.5.3.7c.2.2.4.3.8.3s.8-.2,1.1-.5.4-.7.4-1.3v-.2h-.8ZM543.8,109.5v2.8h-.8v-.7c-.2.3-.4.5-.7.7-.3.1-.6.2-1,.2s-.9-.1-1.2-.4c-.3-.3-.4-.7-.4-1.1s.2-1,.6-1.3c.4-.3.9-.4,1.7-.4h1.1c0-.5-.1-.7-.4-.9s-.6-.3-1-.3-.6,0-.8.1c-.3,0-.5.2-.8.3v-.7c.3-.1.6-.2.9-.3.3,0,.5,0,.8,0,.7,0,1.2.2,1.6.6.4.4.5.9.5,1.7Z"/>
        <path id="DejaVuSans-6c5" data-name="DejaVuSans-6c" d="M545.4,105.5h.8v6.8h-.8v-6.8Z"/>
        <path id="DejaVuSans-208" data-name="DejaVuSans-20" d="M547.1,112.3"/>
        <path id="DejaVuSans-286" data-name="DejaVuSans-28" d="M552.7,105.5c-.4.7-.7,1.3-.9,2-.2.7-.3,1.3-.3,2s0,1.3.3,2,.5,1.3.9,2h-.7c-.4-.7-.8-1.4-1-2-.2-.7-.3-1.3-.3-2s.1-1.3.3-2c.2-.7.5-1.3,1-2h.7Z"/>
        <path id="DejaVuSans-724" data-name="DejaVuSans-72" d="M557.2,108.2c0,0-.2,0-.3-.1-.1,0-.2,0-.4,0-.5,0-.8.1-1.1.4s-.4.7-.4,1.3v2.6h-.8v-4.9h.8v.8c.2-.3.4-.5.7-.7.3-.1.6-.2,1-.2s.1,0,.2,0c0,0,.1,0,.2,0v.8Z"/>
        <path id="DejaVuSans-6f5" data-name="DejaVuSans-6f" d="M559.7,108c-.4,0-.8.2-1,.5s-.4.8-.4,1.4.1,1.1.4,1.4c.3.3.6.5,1,.5s.8-.2,1-.5c.3-.3.4-.8.4-1.4s-.1-1-.4-1.4c-.3-.3-.6-.5-1-.5ZM559.7,107.3c.7,0,1.3.2,1.7.7.4.5.6,1.1.6,1.9s-.2,1.4-.6,1.9c-.4.5-1,.7-1.7.7s-1.3-.2-1.7-.7c-.4-.5-.6-1.1-.6-1.9s.2-1.4.6-1.9c.4-.5,1-.7,1.7-.7Z"/>
        <path id="DejaVuSans-62" d="M566.8,109.9c0-.6-.1-1.1-.4-1.4s-.6-.5-1-.5-.8.2-1,.5-.4.8-.4,1.4.1,1.1.4,1.4c.2.3.6.5,1,.5s.8-.2,1-.5c.2-.3.4-.8.4-1.4ZM564.1,108.2c.2-.3.4-.5.6-.7.3-.1.6-.2.9-.2.6,0,1.1.2,1.5.7.4.5.6,1.1.6,1.9s-.2,1.4-.6,1.9c-.4.5-.9.7-1.5.7s-.7,0-.9-.2c-.3-.1-.5-.4-.6-.7v.7h-.8v-6.8h.8v2.7Z"/>
        <path id="DejaVuSans-6f6" data-name="DejaVuSans-6f" d="M570.9,108c-.4,0-.8.2-1,.5s-.4.8-.4,1.4.1,1.1.4,1.4c.3.3.6.5,1,.5s.8-.2,1-.5c.3-.3.4-.8.4-1.4s-.1-1-.4-1.4c-.3-.3-.6-.5-1-.5ZM570.9,107.3c.7,0,1.3.2,1.7.7.4.5.6,1.1.6,1.9s-.2,1.4-.6,1.9c-.4.5-1,.7-1.7.7s-1.3-.2-1.7-.7c-.4-.5-.6-1.1-.6-1.9s.2-1.4.6-1.9c.4-.5,1-.7,1.7-.7Z"/>
        <path id="DejaVuSans-745" data-name="DejaVuSans-74" d="M575.3,106v1.4h1.7v.6h-1.7v2.7c0,.4,0,.7.2.8s.3.2.7.2h.8v.7h-.8c-.6,0-1.1-.1-1.3-.3-.2-.2-.4-.7-.4-1.3v-2.7h-.6v-.6h.6v-1.4h.8Z"/>
        <path id="DejaVuSans-2d" d="M577.6,109.5h2.4v.7h-2.4v-.7Z"/>
        <path id="DejaVuSans-632" data-name="DejaVuSans-63" d="M584.8,107.6v.8c-.2-.1-.5-.2-.7-.3s-.5,0-.7,0c-.5,0-.9.2-1.2.5-.3.3-.4.8-.4,1.4s.1,1.1.4,1.4c.3.3.7.5,1.2.5s.5,0,.7,0,.5-.2.7-.3v.7c-.2.1-.5.2-.7.2-.2,0-.5,0-.8,0-.7,0-1.3-.2-1.8-.7-.4-.5-.7-1.1-.7-1.9s.2-1.4.7-1.9c.4-.5,1-.7,1.8-.7s.5,0,.7,0c.2,0,.5.1.7.2Z"/>
        <path id="DejaVuSans-618" data-name="DejaVuSans-61" d="M588.5,109.9c-.7,0-1.1,0-1.4.2s-.4.4-.4.8,0,.5.3.7c.2.2.4.3.8.3s.8-.2,1.1-.5.4-.7.4-1.3v-.2h-.8ZM590.1,109.5v2.8h-.8v-.7c-.2.3-.4.5-.7.7-.3.1-.6.2-1,.2s-.9-.1-1.2-.4c-.3-.3-.4-.7-.4-1.1s.2-1,.6-1.3c.4-.3.9-.4,1.7-.4h1.1c0-.5-.1-.7-.4-.9s-.6-.3-1-.3-.6,0-.8.1c-.3,0-.5.2-.8.3v-.7c.3-.1.6-.2.9-.3.3,0,.5,0,.8,0,.7,0,1.2.2,1.6.6.4.4.5.9.5,1.7Z"/>
        <path id="DejaVuSans-6c6" data-name="DejaVuSans-6c" d="M591.8,105.5h.8v6.8h-.8v-6.8Z"/>
        <path id="DejaVuSans-695" data-name="DejaVuSans-69" d="M594.3,107.4h.8v4.9h-.8v-4.9ZM594.3,105.5h.8v1h-.8v-1Z"/>
        <path id="DejaVuSans-621" data-name="DejaVuSans-62" d="M600.3,109.9c0-.6-.1-1.1-.4-1.4s-.6-.5-1-.5-.8.2-1,.5-.4.8-.4,1.4.1,1.1.4,1.4c.2.3.6.5,1,.5s.8-.2,1-.5c.2-.3.4-.8.4-1.4ZM597.5,108.2c.2-.3.4-.5.6-.7.3-.1.6-.2.9-.2.6,0,1.1.2,1.5.7.4.5.6,1.1.6,1.9s-.2,1.4-.6,1.9c-.4.5-.9.7-1.5.7s-.7,0-.9-.2c-.3-.1-.5-.4-.6-.7v.7h-.8v-6.8h.8v2.7Z"/>
        <path id="DejaVuSans-2c1" data-name="DejaVuSans-2c" d="M602.7,111.2h.9v.8l-.7,1.4h-.6l.4-1.4v-.8Z"/>
        <path id="DejaVuSans-209" data-name="DejaVuSans-20" d="M604.5,112.3"/>
        <path id="DejaVuSans-3110" data-name="DejaVuSans-31" d="M608.5,111.6h1.4v-5l-1.6.3v-.8l1.6-.3h.9v5.8h1.4v.7h-3.8v-.7Z"/>
        <path id="DejaVuSans-391" data-name="DejaVuSans-39" d="M614.1,112.2v-.8c.2.1.4.2.7.2.2,0,.5,0,.7,0,.6,0,1-.2,1.3-.6.3-.4.5-1,.5-1.8-.2.3-.4.4-.6.6-.3.1-.5.2-.9.2-.7,0-1.2-.2-1.6-.6-.4-.4-.6-.9-.6-1.6s.2-1.2.6-1.6c.4-.4.9-.6,1.6-.6s1.3.3,1.7.9c.4.6.6,1.4.6,2.5s-.2,1.9-.7,2.5c-.5.6-1.1.9-2,.9s-.4,0-.7,0c-.2,0-.5-.1-.7-.2ZM615.8,109.4c.4,0,.7-.1.9-.4.2-.3.4-.6.4-1.1s-.1-.8-.4-1.1c-.2-.3-.5-.4-.9-.4s-.7.1-.9.4c-.2.3-.3.6-.3,1.1s.1.8.3,1.1c.2.3.5.4.9.4Z"/>
        <path id="DejaVuSans-296" data-name="DejaVuSans-29" d="M619.5,105.5h.7c.4.7.8,1.4,1,2,.2.7.3,1.3.3,2s-.1,1.3-.3,2c-.2.7-.5,1.3-1,2h-.7c.4-.7.7-1.3.9-2,.2-.7.3-1.3.3-2s0-1.3-.3-2c-.2-.7-.5-1.3-.9-2Z"/>
      </g>
    </g>
  </g>
  <g id="PathCollection_10">
    <g class="st25">
      <g>
        <path id="m44fb04c5061" data-name="m44fb04c506" class="st5" d="M340.9,320.6h8.4v-8.4h-8.4v8.4Z"/>
        <g>
          <path id="m44fb04c5062" data-name="m44fb04c506" class="st5" d="M235.5,137.3l8.3,1.2,1.2-8.3-8.3-1.2-1.2,8.3Z"/>
          <path id="m44fb04c5063" data-name="m44fb04c506" class="st5" d="M338.9,135.8l8.3,1.2,1.2-8.3-8.3-1.2-1.2,8.3Z"/>
          <path id="m44fb04c5064" data-name="m44fb04c506" class="st5" d="M448.5,137.9l8.3,1.2,1.2-8.3-8.3-1.2-1.2,8.3Z"/>
          <path id="m44fb04c5065" data-name="m44fb04c506" class="st5" d="M179.3,231.4l8.3,1.2,1.2-8.3-8.3-1.2-1.2,8.3Z"/>
          <path id="m44fb04c5066" data-name="m44fb04c506" class="st5" d="M288,230.6l8.3,1.2,1.2-8.3-8.3-1.2-1.2,8.3Z"/>
          <path id="m44fb04c5067" data-name="m44fb04c506" class="st5" d="M392.6,230.5l8.3,1.2,1.2-8.3-8.3-1.2-1.2,8.3Z"/>
          <path id="m44fb04c5068" data-name="m44fb04c506" class="st5" d="M501.9,225.8l8.3,1.2,1.2-8.3-8.3-1.2-1.2,8.3Z"/>
          <path id="m44fb04c5069" data-name="m44fb04c506" class="st5" d="M132,319.9l8.3,1.2,1.2-8.3-8.3-1.2-1.2,8.3Z"/>
          <path id="m44fb04c50610" data-name="m44fb04c506" class="st5" d="M236.4,321.2l8.3,1.2,1.2-8.3-8.3-1.2-1.2,8.3Z"/>
          <path id="m44fb04c50611" data-name="m44fb04c506" class="st5" d="M445.8,319.8l8.3,1.2,1.2-8.3-8.3-1.2-1.2,8.3Z"/>
          <path id="m44fb04c50612" data-name="m44fb04c506" class="st5" d="M555.8,319.2l8.3,1.2,1.2-8.3-8.3-1.2-1.2,8.3Z"/>
          <path id="m44fb04c50613" data-name="m44fb04c506" class="st5" d="M174.9,415.8l8.3,1.2,1.2-8.3-8.3-1.2-1.2,8.3Z"/>
          <path id="m44fb04c50614" data-name="m44fb04c506" class="st5" d="M286.2,415.4l8.3,1.2,1.2-8.3-8.3-1.2-1.2,8.3Z"/>
          <path id="m44fb04c50615" data-name="m44fb04c506" class="st5" d="M391,414l8.3,1.2,1.2-8.3-8.3-1.2-1.2,8.3Z"/>
          <path id="m44fb04c50616" data-name="m44fb04c506" class="st5" d="M496.9,414.1l8.3,1.2,1.2-8.3-8.3-1.2-1.2,8.3Z"/>
          <path id="m44fb04c50617" data-name="m44fb04c506" class="st5" d="M226,510.1l8.3,1.2,1.2-8.3-8.3-1.2-1.2,8.3Z"/>
          <path id="m44fb04c50618" data-name="m44fb04c506" class="st5" d="M333.7,506.5l8.3,1.2,1.2-8.3-8.3-1.2-1.2,8.3Z"/>
          <path id="m44fb04c50619" data-name="m44fb04c506" class="st5" d="M445.5,512.8l8.3,1.2,1.2-8.3-8.3-1.2-1.2,8.3Z"/>
        </g>
      </g>
    </g>
  </g>
</svg>